G04 #@! TF.GenerationSoftware,KiCad,Pcbnew,(5.1.5)-3*
G04 #@! TF.CreationDate,2020-10-06T00:06:06-04:00*
G04 #@! TF.ProjectId,Diode_Gate_2,44696f64-655f-4476-9174-655f322e6b69,v01*
G04 #@! TF.SameCoordinates,Original*
G04 #@! TF.FileFunction,Legend,Top*
G04 #@! TF.FilePolarity,Positive*
%FSLAX46Y46*%
G04 Gerber Fmt 4.6, Leading zero omitted, Abs format (unit mm)*
G04 Created by KiCad (PCBNEW (5.1.5)-3) date 2020-10-06 00:06:06*
%MOMM*%
%LPD*%
G04 APERTURE LIST*
%ADD10C,0.120000*%
%ADD11C,0.150000*%
G04 APERTURE END LIST*
D10*
X139850000Y-104390000D02*
X142090000Y-104390000D01*
X139850000Y-104150000D02*
X142090000Y-104150000D01*
X139850000Y-104270000D02*
X142090000Y-104270000D01*
X140970000Y-100100000D02*
X140970000Y-100750000D01*
X140970000Y-105640000D02*
X140970000Y-104990000D01*
X139850000Y-100750000D02*
X139850000Y-104990000D01*
X142090000Y-100750000D02*
X139850000Y-100750000D01*
X142090000Y-104990000D02*
X142090000Y-100750000D01*
X139850000Y-104990000D02*
X142090000Y-104990000D01*
X144884000Y-100750000D02*
X142644000Y-100750000D01*
X142644000Y-100750000D02*
X142644000Y-104990000D01*
X142644000Y-104990000D02*
X144884000Y-104990000D01*
X144884000Y-104990000D02*
X144884000Y-100750000D01*
X143764000Y-100100000D02*
X143764000Y-100750000D01*
X143764000Y-105640000D02*
X143764000Y-104990000D01*
X144884000Y-101470000D02*
X142644000Y-101470000D01*
X144884000Y-101590000D02*
X142644000Y-101590000D01*
X144884000Y-101350000D02*
X142644000Y-101350000D01*
X130724000Y-107020000D02*
X139024000Y-107020000D01*
X130724000Y-98720000D02*
X139024000Y-98720000D01*
X139024000Y-107020000D02*
X139024000Y-98720000D01*
X130724000Y-107020000D02*
X130724000Y-98720000D01*
X154010000Y-98720000D02*
X154010000Y-107020000D01*
X145710000Y-98720000D02*
X145710000Y-107020000D01*
X154010000Y-107020000D02*
X145710000Y-107020000D01*
X154010000Y-98720000D02*
X145710000Y-98720000D01*
D11*
X141422380Y-103354095D02*
X140422380Y-103354095D01*
X140422380Y-103116000D01*
X140470000Y-102973142D01*
X140565238Y-102877904D01*
X140660476Y-102830285D01*
X140850952Y-102782666D01*
X140993809Y-102782666D01*
X141184285Y-102830285D01*
X141279523Y-102877904D01*
X141374761Y-102973142D01*
X141422380Y-103116000D01*
X141422380Y-103354095D01*
X141422380Y-101830285D02*
X141422380Y-102401714D01*
X141422380Y-102116000D02*
X140422380Y-102116000D01*
X140565238Y-102211238D01*
X140660476Y-102306476D01*
X140708095Y-102401714D01*
X144216380Y-103862095D02*
X143216380Y-103862095D01*
X143216380Y-103624000D01*
X143264000Y-103481142D01*
X143359238Y-103385904D01*
X143454476Y-103338285D01*
X143644952Y-103290666D01*
X143787809Y-103290666D01*
X143978285Y-103338285D01*
X144073523Y-103385904D01*
X144168761Y-103481142D01*
X144216380Y-103624000D01*
X144216380Y-103862095D01*
X143311619Y-102909714D02*
X143264000Y-102862095D01*
X143216380Y-102766857D01*
X143216380Y-102528761D01*
X143264000Y-102433523D01*
X143311619Y-102385904D01*
X143406857Y-102338285D01*
X143502095Y-102338285D01*
X143644952Y-102385904D01*
X144216380Y-102957333D01*
X144216380Y-102338285D01*
X137334666Y-102322380D02*
X137334666Y-103036666D01*
X137287047Y-103179523D01*
X137191809Y-103274761D01*
X137048952Y-103322380D01*
X136953714Y-103322380D01*
X138334666Y-103322380D02*
X137763238Y-103322380D01*
X138048952Y-103322380D02*
X138048952Y-102322380D01*
X137953714Y-102465238D01*
X137858476Y-102560476D01*
X137763238Y-102608095D01*
X146732666Y-102322380D02*
X146732666Y-103036666D01*
X146685047Y-103179523D01*
X146589809Y-103274761D01*
X146446952Y-103322380D01*
X146351714Y-103322380D01*
X147161238Y-102417619D02*
X147208857Y-102370000D01*
X147304095Y-102322380D01*
X147542190Y-102322380D01*
X147637428Y-102370000D01*
X147685047Y-102417619D01*
X147732666Y-102512857D01*
X147732666Y-102608095D01*
X147685047Y-102750952D01*
X147113619Y-103322380D01*
X147732666Y-103322380D01*
M02*
