G04 #@! TF.GenerationSoftware,KiCad,Pcbnew,(5.1.5)-3*
G04 #@! TF.CreationDate,2020-10-06T00:06:07-04:00*
G04 #@! TF.ProjectId,Diode_Gate_2,44696f64-655f-4476-9174-655f322e6b69,v01*
G04 #@! TF.SameCoordinates,Original*
G04 #@! TF.FileFunction,Soldermask,Top*
G04 #@! TF.FilePolarity,Negative*
%FSLAX46Y46*%
G04 Gerber Fmt 4.6, Leading zero omitted, Abs format (unit mm)*
G04 Created by KiCad (PCBNEW (5.1.5)-3) date 2020-10-06 00:06:07*
%MOMM*%
%LPD*%
G04 APERTURE LIST*
%ADD10C,0.100000*%
G04 APERTURE END LIST*
D10*
G36*
X141821000Y-107531000D02*
G01*
X140119000Y-107531000D01*
X140119000Y-105829000D01*
X141821000Y-105829000D01*
X141821000Y-107531000D01*
G37*
G36*
X144012228Y-105861703D02*
G01*
X144167100Y-105925853D01*
X144306481Y-106018985D01*
X144425015Y-106137519D01*
X144518147Y-106276900D01*
X144582297Y-106431772D01*
X144615000Y-106596184D01*
X144615000Y-106763816D01*
X144582297Y-106928228D01*
X144518147Y-107083100D01*
X144425015Y-107222481D01*
X144306481Y-107341015D01*
X144167100Y-107434147D01*
X144012228Y-107498297D01*
X143847816Y-107531000D01*
X143680184Y-107531000D01*
X143515772Y-107498297D01*
X143360900Y-107434147D01*
X143221519Y-107341015D01*
X143102985Y-107222481D01*
X143009853Y-107083100D01*
X142945703Y-106928228D01*
X142913000Y-106763816D01*
X142913000Y-106596184D01*
X142945703Y-106431772D01*
X143009853Y-106276900D01*
X143102985Y-106137519D01*
X143221519Y-106018985D01*
X143360900Y-105925853D01*
X143515772Y-105861703D01*
X143680184Y-105829000D01*
X143847816Y-105829000D01*
X144012228Y-105861703D01*
G37*
G36*
X152591560Y-104249064D02*
G01*
X152743027Y-104279193D01*
X152957045Y-104367842D01*
X152957046Y-104367843D01*
X153149654Y-104496539D01*
X153313461Y-104660346D01*
X153399258Y-104788751D01*
X153442158Y-104852955D01*
X153530807Y-105066973D01*
X153576000Y-105294174D01*
X153576000Y-105525826D01*
X153530807Y-105753027D01*
X153442158Y-105967045D01*
X153442157Y-105967046D01*
X153313461Y-106159654D01*
X153149654Y-106323461D01*
X153021249Y-106409258D01*
X152957045Y-106452158D01*
X152743027Y-106540807D01*
X152591560Y-106570936D01*
X152515827Y-106586000D01*
X152284173Y-106586000D01*
X152208440Y-106570936D01*
X152056973Y-106540807D01*
X151842955Y-106452158D01*
X151778751Y-106409258D01*
X151650346Y-106323461D01*
X151486539Y-106159654D01*
X151357843Y-105967046D01*
X151357842Y-105967045D01*
X151269193Y-105753027D01*
X151224000Y-105525826D01*
X151224000Y-105294174D01*
X151269193Y-105066973D01*
X151357842Y-104852955D01*
X151400742Y-104788751D01*
X151486539Y-104660346D01*
X151650346Y-104496539D01*
X151842954Y-104367843D01*
X151842955Y-104367842D01*
X152056973Y-104279193D01*
X152208440Y-104249064D01*
X152284173Y-104234000D01*
X152515827Y-104234000D01*
X152591560Y-104249064D01*
G37*
G36*
X147511560Y-104249064D02*
G01*
X147663027Y-104279193D01*
X147877045Y-104367842D01*
X147877046Y-104367843D01*
X148069654Y-104496539D01*
X148233461Y-104660346D01*
X148319258Y-104788751D01*
X148362158Y-104852955D01*
X148450807Y-105066973D01*
X148496000Y-105294174D01*
X148496000Y-105525826D01*
X148450807Y-105753027D01*
X148362158Y-105967045D01*
X148362157Y-105967046D01*
X148233461Y-106159654D01*
X148069654Y-106323461D01*
X147941249Y-106409258D01*
X147877045Y-106452158D01*
X147663027Y-106540807D01*
X147511560Y-106570936D01*
X147435827Y-106586000D01*
X147204173Y-106586000D01*
X147128440Y-106570936D01*
X146976973Y-106540807D01*
X146762955Y-106452158D01*
X146698751Y-106409258D01*
X146570346Y-106323461D01*
X146406539Y-106159654D01*
X146277843Y-105967046D01*
X146277842Y-105967045D01*
X146189193Y-105753027D01*
X146144000Y-105525826D01*
X146144000Y-105294174D01*
X146189193Y-105066973D01*
X146277842Y-104852955D01*
X146320742Y-104788751D01*
X146406539Y-104660346D01*
X146570346Y-104496539D01*
X146762954Y-104367843D01*
X146762955Y-104367842D01*
X146976973Y-104279193D01*
X147128440Y-104249064D01*
X147204173Y-104234000D01*
X147435827Y-104234000D01*
X147511560Y-104249064D01*
G37*
G36*
X137605560Y-104249064D02*
G01*
X137757027Y-104279193D01*
X137971045Y-104367842D01*
X137971046Y-104367843D01*
X138163654Y-104496539D01*
X138327461Y-104660346D01*
X138413258Y-104788751D01*
X138456158Y-104852955D01*
X138544807Y-105066973D01*
X138590000Y-105294174D01*
X138590000Y-105525826D01*
X138544807Y-105753027D01*
X138456158Y-105967045D01*
X138456157Y-105967046D01*
X138327461Y-106159654D01*
X138163654Y-106323461D01*
X138035249Y-106409258D01*
X137971045Y-106452158D01*
X137757027Y-106540807D01*
X137605560Y-106570936D01*
X137529827Y-106586000D01*
X137298173Y-106586000D01*
X137222440Y-106570936D01*
X137070973Y-106540807D01*
X136856955Y-106452158D01*
X136792751Y-106409258D01*
X136664346Y-106323461D01*
X136500539Y-106159654D01*
X136371843Y-105967046D01*
X136371842Y-105967045D01*
X136283193Y-105753027D01*
X136238000Y-105525826D01*
X136238000Y-105294174D01*
X136283193Y-105066973D01*
X136371842Y-104852955D01*
X136414742Y-104788751D01*
X136500539Y-104660346D01*
X136664346Y-104496539D01*
X136856954Y-104367843D01*
X136856955Y-104367842D01*
X137070973Y-104279193D01*
X137222440Y-104249064D01*
X137298173Y-104234000D01*
X137529827Y-104234000D01*
X137605560Y-104249064D01*
G37*
G36*
X132525560Y-104249064D02*
G01*
X132677027Y-104279193D01*
X132891045Y-104367842D01*
X132891046Y-104367843D01*
X133083654Y-104496539D01*
X133247461Y-104660346D01*
X133333258Y-104788751D01*
X133376158Y-104852955D01*
X133464807Y-105066973D01*
X133510000Y-105294174D01*
X133510000Y-105525826D01*
X133464807Y-105753027D01*
X133376158Y-105967045D01*
X133376157Y-105967046D01*
X133247461Y-106159654D01*
X133083654Y-106323461D01*
X132955249Y-106409258D01*
X132891045Y-106452158D01*
X132677027Y-106540807D01*
X132525560Y-106570936D01*
X132449827Y-106586000D01*
X132218173Y-106586000D01*
X132142440Y-106570936D01*
X131990973Y-106540807D01*
X131776955Y-106452158D01*
X131712751Y-106409258D01*
X131584346Y-106323461D01*
X131420539Y-106159654D01*
X131291843Y-105967046D01*
X131291842Y-105967045D01*
X131203193Y-105753027D01*
X131158000Y-105525826D01*
X131158000Y-105294174D01*
X131203193Y-105066973D01*
X131291842Y-104852955D01*
X131334742Y-104788751D01*
X131420539Y-104660346D01*
X131584346Y-104496539D01*
X131776954Y-104367843D01*
X131776955Y-104367842D01*
X131990973Y-104279193D01*
X132142440Y-104249064D01*
X132218173Y-104234000D01*
X132449827Y-104234000D01*
X132525560Y-104249064D01*
G37*
G36*
X150051560Y-101709064D02*
G01*
X150203027Y-101739193D01*
X150417045Y-101827842D01*
X150417046Y-101827843D01*
X150609654Y-101956539D01*
X150773461Y-102120346D01*
X150859258Y-102248751D01*
X150902158Y-102312955D01*
X150990807Y-102526973D01*
X151036000Y-102754174D01*
X151036000Y-102985826D01*
X150990807Y-103213027D01*
X150902158Y-103427045D01*
X150902157Y-103427046D01*
X150773461Y-103619654D01*
X150609654Y-103783461D01*
X150481249Y-103869258D01*
X150417045Y-103912158D01*
X150203027Y-104000807D01*
X150051560Y-104030936D01*
X149975827Y-104046000D01*
X149744173Y-104046000D01*
X149668440Y-104030936D01*
X149516973Y-104000807D01*
X149302955Y-103912158D01*
X149238751Y-103869258D01*
X149110346Y-103783461D01*
X148946539Y-103619654D01*
X148817843Y-103427046D01*
X148817842Y-103427045D01*
X148729193Y-103213027D01*
X148684000Y-102985826D01*
X148684000Y-102754174D01*
X148729193Y-102526973D01*
X148817842Y-102312955D01*
X148860742Y-102248751D01*
X148946539Y-102120346D01*
X149110346Y-101956539D01*
X149302954Y-101827843D01*
X149302955Y-101827842D01*
X149516973Y-101739193D01*
X149668440Y-101709064D01*
X149744173Y-101694000D01*
X149975827Y-101694000D01*
X150051560Y-101709064D01*
G37*
G36*
X135065560Y-101709064D02*
G01*
X135217027Y-101739193D01*
X135431045Y-101827842D01*
X135431046Y-101827843D01*
X135623654Y-101956539D01*
X135787461Y-102120346D01*
X135873258Y-102248751D01*
X135916158Y-102312955D01*
X136004807Y-102526973D01*
X136050000Y-102754174D01*
X136050000Y-102985826D01*
X136004807Y-103213027D01*
X135916158Y-103427045D01*
X135916157Y-103427046D01*
X135787461Y-103619654D01*
X135623654Y-103783461D01*
X135495249Y-103869258D01*
X135431045Y-103912158D01*
X135217027Y-104000807D01*
X135065560Y-104030936D01*
X134989827Y-104046000D01*
X134758173Y-104046000D01*
X134682440Y-104030936D01*
X134530973Y-104000807D01*
X134316955Y-103912158D01*
X134252751Y-103869258D01*
X134124346Y-103783461D01*
X133960539Y-103619654D01*
X133831843Y-103427046D01*
X133831842Y-103427045D01*
X133743193Y-103213027D01*
X133698000Y-102985826D01*
X133698000Y-102754174D01*
X133743193Y-102526973D01*
X133831842Y-102312955D01*
X133874742Y-102248751D01*
X133960539Y-102120346D01*
X134124346Y-101956539D01*
X134316954Y-101827843D01*
X134316955Y-101827842D01*
X134530973Y-101739193D01*
X134682440Y-101709064D01*
X134758173Y-101694000D01*
X134989827Y-101694000D01*
X135065560Y-101709064D01*
G37*
G36*
X132525560Y-99169064D02*
G01*
X132677027Y-99199193D01*
X132891045Y-99287842D01*
X132921556Y-99308229D01*
X133083654Y-99416539D01*
X133247461Y-99580346D01*
X133262250Y-99602480D01*
X133376158Y-99772955D01*
X133464807Y-99986973D01*
X133510000Y-100214174D01*
X133510000Y-100445826D01*
X133464807Y-100673027D01*
X133376158Y-100887045D01*
X133376157Y-100887046D01*
X133247461Y-101079654D01*
X133083654Y-101243461D01*
X132955249Y-101329258D01*
X132891045Y-101372158D01*
X132677027Y-101460807D01*
X132525560Y-101490936D01*
X132449827Y-101506000D01*
X132218173Y-101506000D01*
X132142440Y-101490936D01*
X131990973Y-101460807D01*
X131776955Y-101372158D01*
X131712751Y-101329258D01*
X131584346Y-101243461D01*
X131420539Y-101079654D01*
X131291843Y-100887046D01*
X131291842Y-100887045D01*
X131203193Y-100673027D01*
X131158000Y-100445826D01*
X131158000Y-100214174D01*
X131203193Y-99986973D01*
X131291842Y-99772955D01*
X131405750Y-99602480D01*
X131420539Y-99580346D01*
X131584346Y-99416539D01*
X131746444Y-99308229D01*
X131776955Y-99287842D01*
X131990973Y-99199193D01*
X132142440Y-99169064D01*
X132218173Y-99154000D01*
X132449827Y-99154000D01*
X132525560Y-99169064D01*
G37*
G36*
X137605560Y-99169064D02*
G01*
X137757027Y-99199193D01*
X137971045Y-99287842D01*
X138001556Y-99308229D01*
X138163654Y-99416539D01*
X138327461Y-99580346D01*
X138342250Y-99602480D01*
X138456158Y-99772955D01*
X138544807Y-99986973D01*
X138590000Y-100214174D01*
X138590000Y-100445826D01*
X138544807Y-100673027D01*
X138456158Y-100887045D01*
X138456157Y-100887046D01*
X138327461Y-101079654D01*
X138163654Y-101243461D01*
X138035249Y-101329258D01*
X137971045Y-101372158D01*
X137757027Y-101460807D01*
X137605560Y-101490936D01*
X137529827Y-101506000D01*
X137298173Y-101506000D01*
X137222440Y-101490936D01*
X137070973Y-101460807D01*
X136856955Y-101372158D01*
X136792751Y-101329258D01*
X136664346Y-101243461D01*
X136500539Y-101079654D01*
X136371843Y-100887046D01*
X136371842Y-100887045D01*
X136283193Y-100673027D01*
X136238000Y-100445826D01*
X136238000Y-100214174D01*
X136283193Y-99986973D01*
X136371842Y-99772955D01*
X136485750Y-99602480D01*
X136500539Y-99580346D01*
X136664346Y-99416539D01*
X136826444Y-99308229D01*
X136856955Y-99287842D01*
X137070973Y-99199193D01*
X137222440Y-99169064D01*
X137298173Y-99154000D01*
X137529827Y-99154000D01*
X137605560Y-99169064D01*
G37*
G36*
X147511560Y-99169064D02*
G01*
X147663027Y-99199193D01*
X147877045Y-99287842D01*
X147907556Y-99308229D01*
X148069654Y-99416539D01*
X148233461Y-99580346D01*
X148248250Y-99602480D01*
X148362158Y-99772955D01*
X148450807Y-99986973D01*
X148496000Y-100214174D01*
X148496000Y-100445826D01*
X148450807Y-100673027D01*
X148362158Y-100887045D01*
X148362157Y-100887046D01*
X148233461Y-101079654D01*
X148069654Y-101243461D01*
X147941249Y-101329258D01*
X147877045Y-101372158D01*
X147663027Y-101460807D01*
X147511560Y-101490936D01*
X147435827Y-101506000D01*
X147204173Y-101506000D01*
X147128440Y-101490936D01*
X146976973Y-101460807D01*
X146762955Y-101372158D01*
X146698751Y-101329258D01*
X146570346Y-101243461D01*
X146406539Y-101079654D01*
X146277843Y-100887046D01*
X146277842Y-100887045D01*
X146189193Y-100673027D01*
X146144000Y-100445826D01*
X146144000Y-100214174D01*
X146189193Y-99986973D01*
X146277842Y-99772955D01*
X146391750Y-99602480D01*
X146406539Y-99580346D01*
X146570346Y-99416539D01*
X146732444Y-99308229D01*
X146762955Y-99287842D01*
X146976973Y-99199193D01*
X147128440Y-99169064D01*
X147204173Y-99154000D01*
X147435827Y-99154000D01*
X147511560Y-99169064D01*
G37*
G36*
X152591560Y-99169064D02*
G01*
X152743027Y-99199193D01*
X152957045Y-99287842D01*
X152987556Y-99308229D01*
X153149654Y-99416539D01*
X153313461Y-99580346D01*
X153328250Y-99602480D01*
X153442158Y-99772955D01*
X153530807Y-99986973D01*
X153576000Y-100214174D01*
X153576000Y-100445826D01*
X153530807Y-100673027D01*
X153442158Y-100887045D01*
X153442157Y-100887046D01*
X153313461Y-101079654D01*
X153149654Y-101243461D01*
X153021249Y-101329258D01*
X152957045Y-101372158D01*
X152743027Y-101460807D01*
X152591560Y-101490936D01*
X152515827Y-101506000D01*
X152284173Y-101506000D01*
X152208440Y-101490936D01*
X152056973Y-101460807D01*
X151842955Y-101372158D01*
X151778751Y-101329258D01*
X151650346Y-101243461D01*
X151486539Y-101079654D01*
X151357843Y-100887046D01*
X151357842Y-100887045D01*
X151269193Y-100673027D01*
X151224000Y-100445826D01*
X151224000Y-100214174D01*
X151269193Y-99986973D01*
X151357842Y-99772955D01*
X151471750Y-99602480D01*
X151486539Y-99580346D01*
X151650346Y-99416539D01*
X151812444Y-99308229D01*
X151842955Y-99287842D01*
X152056973Y-99199193D01*
X152208440Y-99169064D01*
X152284173Y-99154000D01*
X152515827Y-99154000D01*
X152591560Y-99169064D01*
G37*
G36*
X141218228Y-98241703D02*
G01*
X141373100Y-98305853D01*
X141512481Y-98398985D01*
X141631015Y-98517519D01*
X141724147Y-98656900D01*
X141788297Y-98811772D01*
X141821000Y-98976184D01*
X141821000Y-99143816D01*
X141788297Y-99308228D01*
X141724147Y-99463100D01*
X141631015Y-99602481D01*
X141512481Y-99721015D01*
X141373100Y-99814147D01*
X141218228Y-99878297D01*
X141053816Y-99911000D01*
X140886184Y-99911000D01*
X140721772Y-99878297D01*
X140566900Y-99814147D01*
X140427519Y-99721015D01*
X140308985Y-99602481D01*
X140215853Y-99463100D01*
X140151703Y-99308228D01*
X140119000Y-99143816D01*
X140119000Y-98976184D01*
X140151703Y-98811772D01*
X140215853Y-98656900D01*
X140308985Y-98517519D01*
X140427519Y-98398985D01*
X140566900Y-98305853D01*
X140721772Y-98241703D01*
X140886184Y-98209000D01*
X141053816Y-98209000D01*
X141218228Y-98241703D01*
G37*
G36*
X144615000Y-99911000D02*
G01*
X142913000Y-99911000D01*
X142913000Y-98209000D01*
X144615000Y-98209000D01*
X144615000Y-99911000D01*
G37*
M02*
