%TF.GenerationSoftware,KiCad,Pcbnew,(6.0.10)*%
%TF.CreationDate,2023-04-04T11:29:01-04:00*%
%TF.ProjectId,Coil_Connector_V3_selfprint,436f696c-5f43-46f6-9e6e-6563746f725f,rev?*%
%TF.SameCoordinates,Original*%
%TF.FileFunction,Legend,Top*%
%TF.FilePolarity,Positive*%
%FSLAX46Y46*%
G04 Gerber Fmt 4.6, Leading zero omitted, Abs format (unit mm)*
G04 Created by KiCad (PCBNEW (6.0.10)) date 2023-04-04 11:29:01*
%MOMM*%
%LPD*%
G01*
G04 APERTURE LIST*
%ADD10C,0.150000*%
%ADD11C,0.120000*%
G04 APERTURE END LIST*
D10*
%TO.C,J1*%
X137080666Y-103084380D02*
X137080666Y-103798666D01*
X137033047Y-103941523D01*
X136937809Y-104036761D01*
X136794952Y-104084380D01*
X136699714Y-104084380D01*
X138080666Y-104084380D02*
X137509238Y-104084380D01*
X137794952Y-104084380D02*
X137794952Y-103084380D01*
X137699714Y-103227238D01*
X137604476Y-103322476D01*
X137509238Y-103370095D01*
%TO.C,L1*%
X138898333Y-112982380D02*
X138422142Y-112982380D01*
X138422142Y-111982380D01*
X139755476Y-112982380D02*
X139184047Y-112982380D01*
X139469761Y-112982380D02*
X139469761Y-111982380D01*
X139374523Y-112125238D01*
X139279285Y-112220476D01*
X139184047Y-112268095D01*
%TO.C,SH*%
X141659076Y-120978561D02*
X141801933Y-121026180D01*
X142040028Y-121026180D01*
X142135266Y-120978561D01*
X142182885Y-120930942D01*
X142230504Y-120835704D01*
X142230504Y-120740466D01*
X142182885Y-120645228D01*
X142135266Y-120597609D01*
X142040028Y-120549990D01*
X141849552Y-120502371D01*
X141754314Y-120454752D01*
X141706695Y-120407133D01*
X141659076Y-120311895D01*
X141659076Y-120216657D01*
X141706695Y-120121419D01*
X141754314Y-120073800D01*
X141849552Y-120026180D01*
X142087647Y-120026180D01*
X142230504Y-120073800D01*
X142659076Y-121026180D02*
X142659076Y-120026180D01*
X142659076Y-120502371D02*
X143230504Y-120502371D01*
X143230504Y-121026180D02*
X143230504Y-120026180D01*
X146002476Y-98448761D02*
X146145333Y-98496380D01*
X146383428Y-98496380D01*
X146478666Y-98448761D01*
X146526285Y-98401142D01*
X146573904Y-98305904D01*
X146573904Y-98210666D01*
X146526285Y-98115428D01*
X146478666Y-98067809D01*
X146383428Y-98020190D01*
X146192952Y-97972571D01*
X146097714Y-97924952D01*
X146050095Y-97877333D01*
X146002476Y-97782095D01*
X146002476Y-97686857D01*
X146050095Y-97591619D01*
X146097714Y-97544000D01*
X146192952Y-97496380D01*
X146431047Y-97496380D01*
X146573904Y-97544000D01*
X147002476Y-98496380D02*
X147002476Y-97496380D01*
X147002476Y-97972571D02*
X147573904Y-97972571D01*
X147573904Y-98496380D02*
X147573904Y-97496380D01*
D11*
%TO.C,J1*%
X139300000Y-102745500D02*
X139050000Y-102245500D01*
X138210000Y-97985500D02*
X137100000Y-97985500D01*
X141000000Y-97985500D02*
X139890000Y-97985500D01*
X138210000Y-101695500D02*
X137100000Y-101695500D01*
X141000000Y-101695500D02*
X139890000Y-101695500D01*
X138800000Y-102745500D02*
X139300000Y-102745500D01*
X139050000Y-102245500D02*
X138800000Y-102745500D01*
%TO.C,L1*%
X136017000Y-117348000D02*
X136017000Y-107188000D01*
X142113000Y-117348000D02*
X142113000Y-107188000D01*
%TD*%
M02*
