%TF.GenerationSoftware,KiCad,Pcbnew,8.0.6*%
%TF.CreationDate,2025-02-17T16:21:55-05:00*%
%TF.ProjectId,PCB Design,50434220-4465-4736-9967-6e2e6b696361,rev?*%
%TF.SameCoordinates,Original*%
%TF.FileFunction,Soldermask,Top*%
%TF.FilePolarity,Negative*%
%FSLAX46Y46*%
G04 Gerber Fmt 4.6, Leading zero omitted, Abs format (unit mm)*
G04 Created by KiCad (PCBNEW 8.0.6) date 2025-02-17 16:21:55*
%MOMM*%
%LPD*%
G01*
G04 APERTURE LIST*
G04 Aperture macros list*
%AMRoundRect*
0 Rectangle with rounded corners*
0 $1 Rounding radius*
0 $2 $3 $4 $5 $6 $7 $8 $9 X,Y pos of 4 corners*
0 Add a 4 corners polygon primitive as box body*
4,1,4,$2,$3,$4,$5,$6,$7,$8,$9,$2,$3,0*
0 Add four circle primitives for the rounded corners*
1,1,$1+$1,$2,$3*
1,1,$1+$1,$4,$5*
1,1,$1+$1,$6,$7*
1,1,$1+$1,$8,$9*
0 Add four rect primitives between the rounded corners*
20,1,$1+$1,$2,$3,$4,$5,0*
20,1,$1+$1,$4,$5,$6,$7,0*
20,1,$1+$1,$6,$7,$8,$9,0*
20,1,$1+$1,$8,$9,$2,$3,0*%
G04 Aperture macros list end*
%ADD10RoundRect,0.336539X0.663461X0.538461X-0.663461X0.538461X-0.663461X-0.538461X0.663461X-0.538461X0*%
%ADD11C,2.050000*%
%ADD12C,2.250000*%
%ADD13RoundRect,0.336539X0.538461X-0.663461X0.538461X0.663461X-0.538461X0.663461X-0.538461X-0.663461X0*%
%ADD14RoundRect,0.100000X-1.000000X-0.100000X1.000000X-0.100000X1.000000X0.100000X-1.000000X0.100000X0*%
%ADD15RoundRect,0.093750X-1.006250X-0.093750X1.006250X-0.093750X1.006250X0.093750X-1.006250X0.093750X0*%
%ADD16C,5.700000*%
%ADD17C,2.000000*%
%ADD18RoundRect,0.100000X-0.100000X0.860000X-0.100000X-0.860000X0.100000X-0.860000X0.100000X0.860000X0*%
%ADD19R,1.600000X1.600000*%
%ADD20O,1.600000X1.600000*%
%ADD21C,1.600000*%
%ADD22RoundRect,0.250000X1.280000X0.350000X-1.280000X0.350000X-1.280000X-0.350000X1.280000X-0.350000X0*%
%ADD23RoundRect,0.249997X2.950003X2.650003X-2.950003X2.650003X-2.950003X-2.650003X2.950003X-2.650003X0*%
%ADD24R,1.915800X0.558800*%
%ADD25RoundRect,0.162500X-0.162500X0.837500X-0.162500X-0.837500X0.162500X-0.837500X0.162500X0.837500X0*%
%ADD26C,2.400000*%
%ADD27R,3.230000X1.651000*%
%ADD28RoundRect,0.336539X-0.538461X0.663461X-0.538461X-0.663461X0.538461X-0.663461X0.538461X0.663461X0*%
%ADD29RoundRect,0.100000X-0.100000X1.087500X-0.100000X-1.087500X0.100000X-1.087500X0.100000X1.087500X0*%
%ADD30RoundRect,0.093750X-0.093750X1.093750X-0.093750X-1.093750X0.093750X-1.093750X0.093750X1.093750X0*%
%ADD31RoundRect,0.336539X-0.663461X-0.538461X0.663461X-0.538461X0.663461X0.538461X-0.663461X0.538461X0*%
%ADD32RoundRect,0.250000X2.325000X0.300000X-2.325000X0.300000X-2.325000X-0.300000X2.325000X-0.300000X0*%
%ADD33RoundRect,0.250002X4.449998X5.149998X-4.449998X5.149998X-4.449998X-5.149998X4.449998X-5.149998X0*%
G04 APERTURE END LIST*
D10*
%TO.C,0.1uf*%
X132500000Y-93500000D03*
X129000000Y-93500000D03*
%TD*%
D11*
%TO.C,24V_DC*%
X107061000Y-143764000D03*
D12*
X104521000Y-141224000D03*
X104521000Y-146304000D03*
X109601000Y-141224000D03*
X109601000Y-146304000D03*
%TD*%
D13*
%TO.C,1uF1*%
X123300000Y-116275000D03*
X123300000Y-112775000D03*
%TD*%
%TO.C,1k\u03A91*%
X151162500Y-84500000D03*
X151162500Y-81000000D03*
%TD*%
D14*
%TO.C,Switch1*%
X181700000Y-92850000D03*
X181700000Y-93500000D03*
X181700000Y-94150000D03*
X181700000Y-94800000D03*
X186500000Y-94800000D03*
D15*
X186500000Y-94137500D03*
D14*
X186500000Y-93500000D03*
X186500000Y-92850000D03*
%TD*%
D13*
%TO.C,C7*%
X155500000Y-139500000D03*
X155500000Y-136000000D03*
%TD*%
D11*
%TO.C,24V_AMP_PWR*%
X121000000Y-144000000D03*
D12*
X118460000Y-141460000D03*
X118460000Y-146540000D03*
X123540000Y-141460000D03*
X123540000Y-146540000D03*
%TD*%
D16*
%TO.C,REF\u002A\u002A*%
X217000000Y-78500000D03*
%TD*%
D13*
%TO.C,C10*%
X135500000Y-104500000D03*
X135500000Y-101000000D03*
%TD*%
D17*
%TO.C,TP17*%
X126000000Y-91000000D03*
%TD*%
D13*
%TO.C,1uF2*%
X155000000Y-111500000D03*
X155000000Y-108000000D03*
%TD*%
%TO.C,12k\u03A91*%
X156162500Y-84500000D03*
X156162500Y-81000000D03*
%TD*%
%TO.C,10uF1*%
X122825000Y-105000000D03*
X122825000Y-101500000D03*
%TD*%
D17*
%TO.C,TP7*%
X136000000Y-83500000D03*
%TD*%
D18*
%TO.C,1.8V_Reg.1*%
X162500000Y-108500000D03*
X161850000Y-108500000D03*
X161200000Y-108500000D03*
X161200000Y-111580000D03*
X162500000Y-111580000D03*
%TD*%
D11*
%TO.C,HP_AMP_IN*%
X170460000Y-93000000D03*
D12*
X173000000Y-95540000D03*
X173000000Y-90460000D03*
X167920000Y-95540000D03*
X167920000Y-90460000D03*
%TD*%
D19*
%TO.C,D2*%
X140000000Y-128880000D03*
D20*
X140000000Y-136500000D03*
%TD*%
D16*
%TO.C,REF\u002A\u002A*%
X105500000Y-133000000D03*
%TD*%
D13*
%TO.C,1uF3*%
X169000000Y-111500000D03*
X169000000Y-108000000D03*
%TD*%
D16*
%TO.C,REF\u002A\u002A*%
X106000000Y-78500000D03*
%TD*%
D19*
%TO.C,D1*%
X133000000Y-136500000D03*
D20*
X133000000Y-128880000D03*
%TD*%
D21*
%TO.C,0.56uH*%
X148000000Y-145500000D03*
D20*
X155620000Y-145500000D03*
%TD*%
D11*
%TO.C,SIN_GEN*%
X185500000Y-67500000D03*
D12*
X188040000Y-70040000D03*
X188040000Y-64960000D03*
X182960000Y-70040000D03*
X182960000Y-64960000D03*
%TD*%
D13*
%TO.C,20k\u03A91*%
X142162500Y-84250000D03*
X142162500Y-80750000D03*
%TD*%
D22*
%TO.C,5V_REG1*%
X117055000Y-105305000D03*
D23*
X110325000Y-103025000D03*
D22*
X117055000Y-100745000D03*
%TD*%
D17*
%TO.C,TP3*%
X146500000Y-96000000D03*
%TD*%
%TO.C,TP13*%
X191500000Y-126000000D03*
%TD*%
D11*
%TO.C,O-SCOPE_TRIG*%
X163675000Y-67500000D03*
D12*
X166215000Y-70040000D03*
X166215000Y-64960000D03*
X161135000Y-70040000D03*
X161135000Y-64960000D03*
%TD*%
D19*
%TO.C,D4*%
X169000000Y-135880000D03*
D20*
X169000000Y-143500000D03*
%TD*%
D24*
%TO.C,-5V_REG1*%
X109415800Y-89000000D03*
X109415800Y-89952500D03*
X109415800Y-90905000D03*
X112500000Y-90905000D03*
X112500000Y-89000000D03*
%TD*%
D13*
%TO.C,R1*%
X151162500Y-92500000D03*
X151162500Y-89000000D03*
%TD*%
D11*
%TO.C,F_OUT*%
X141675000Y-67500000D03*
D12*
X144215000Y-70040000D03*
X144215000Y-64960000D03*
X139135000Y-70040000D03*
X139135000Y-64960000D03*
%TD*%
D13*
%TO.C,0.33uF1*%
X123300000Y-123775000D03*
X123300000Y-120275000D03*
%TD*%
D11*
%TO.C,LNA_OUT*%
X227500000Y-69000000D03*
D12*
X230040000Y-71540000D03*
X230040000Y-66460000D03*
X224960000Y-71540000D03*
X224960000Y-66460000D03*
%TD*%
D13*
%TO.C,1nF1*%
X146412500Y-84250000D03*
X146412500Y-80750000D03*
%TD*%
D25*
%TO.C,D8*%
X207950000Y-138080000D03*
X206050000Y-138080000D03*
X207000000Y-141500000D03*
%TD*%
D11*
%TO.C,LNA_IN*%
X227460000Y-142960000D03*
D12*
X224920000Y-140420000D03*
X224920000Y-145500000D03*
X230000000Y-140420000D03*
X230000000Y-145500000D03*
%TD*%
D26*
%TO.C,GNDPin1*%
X214500000Y-94500000D03*
%TD*%
D27*
%TO.C,Power_Spliter*%
X203270000Y-102500000D03*
X203270000Y-99960000D03*
X203270000Y-97420000D03*
X197500000Y-97420000D03*
X197500000Y-99960000D03*
X197500000Y-102500000D03*
%TD*%
D17*
%TO.C,TP8*%
X192000000Y-87500000D03*
%TD*%
%TO.C,TP6*%
X110500000Y-82500000D03*
%TD*%
%TO.C,TP9*%
X166000000Y-119000000D03*
%TD*%
%TO.C,TP11*%
X185500000Y-109500000D03*
%TD*%
D11*
%TO.C,SIN_TRIG*%
X208000000Y-67500000D03*
D12*
X210540000Y-70040000D03*
X210540000Y-64960000D03*
X205460000Y-70040000D03*
X205460000Y-64960000D03*
%TD*%
D28*
%TO.C,10uF*%
X120500000Y-88500000D03*
X120500000Y-92000000D03*
%TD*%
D17*
%TO.C,TP2*%
X178500000Y-82000000D03*
%TD*%
D11*
%TO.C,IMPD_MATCH*%
X136500000Y-120500000D03*
D12*
X133960000Y-117960000D03*
X133960000Y-123040000D03*
X139040000Y-117960000D03*
X139040000Y-123040000D03*
%TD*%
D17*
%TO.C,TP10*%
X170053000Y-75946000D03*
%TD*%
%TO.C,TP5*%
X145000000Y-75500000D03*
%TD*%
D16*
%TO.C,REF\u002A\u002A*%
X217000000Y-132500000D03*
%TD*%
D11*
%TO.C,HP_AMP_OUT*%
X136398000Y-144145000D03*
D12*
X133858000Y-141605000D03*
X133858000Y-146685000D03*
X138938000Y-141605000D03*
X138938000Y-146685000D03*
%TD*%
D11*
%TO.C,PULSE_GEN*%
X123825000Y-67500000D03*
D12*
X126365000Y-70040000D03*
X126365000Y-64960000D03*
X121285000Y-70040000D03*
X121285000Y-64960000D03*
%TD*%
D19*
%TO.C,D3*%
X163000000Y-143620000D03*
D20*
X163000000Y-136000000D03*
%TD*%
D13*
%TO.C,C6*%
X148000000Y-139500000D03*
X148000000Y-136000000D03*
%TD*%
D26*
%TO.C,+12VPin1*%
X214000000Y-88500000D03*
%TD*%
D29*
%TO.C,LNA1*%
X142475000Y-92687500D03*
X141825000Y-92687500D03*
D30*
X141187500Y-92687500D03*
D29*
X140525000Y-92687500D03*
X140525000Y-99312500D03*
D30*
X141187500Y-99312500D03*
D29*
X141825000Y-99312500D03*
X142475000Y-99312500D03*
%TD*%
D25*
%TO.C,D9*%
X186450000Y-138080000D03*
X184550000Y-138080000D03*
X185500000Y-141500000D03*
%TD*%
D17*
%TO.C,TP18*%
X134500000Y-97000000D03*
%TD*%
%TO.C,TP4*%
X147500000Y-100000000D03*
%TD*%
%TO.C,TP12*%
X179000000Y-117500000D03*
%TD*%
D25*
%TO.C,D10*%
X197000000Y-138000000D03*
X195100000Y-138000000D03*
X196050000Y-141420000D03*
%TD*%
D17*
%TO.C,TP14*%
X201000000Y-88500000D03*
%TD*%
D13*
%TO.C,10uF4*%
X102325000Y-92000000D03*
X102325000Y-88500000D03*
%TD*%
%TO.C,10uF2*%
X101825000Y-105000000D03*
X101825000Y-101500000D03*
%TD*%
D31*
%TO.C,0.1uF1*%
X181700000Y-88500000D03*
X185200000Y-88500000D03*
%TD*%
D17*
%TO.C,TP1*%
X133000000Y-109500000D03*
%TD*%
D13*
%TO.C,1nF2*%
X162162500Y-84500000D03*
X162162500Y-81000000D03*
%TD*%
D17*
%TO.C,TP16*%
X105000000Y-84000000D03*
%TD*%
%TO.C,TP15*%
X189000000Y-100000000D03*
%TD*%
D32*
%TO.C,12V_REG1*%
X116000000Y-121265000D03*
X116000000Y-118725000D03*
D33*
X106575000Y-118725000D03*
D32*
X116000000Y-116185000D03*
%TD*%
M02*
