M48
; DRILL file {KiCad 8.0.6} date 2025-02-17T16:22:02-0500
; FORMAT={-:-/ absolute / inch / decimal}
; #@! TF.CreationDate,2025-02-17T16:22:02-05:00
; #@! TF.GenerationSoftware,Kicad,Pcbnew,8.0.6
; #@! TF.FileFunction,Plated,1,2,PTH
FMAT,2
INCH
; #@! TA.AperFunction,Plated,PTH,ViaDrill
T1C0.0118
; #@! TA.AperFunction,Plated,PTH,ViaDrill
T2C0.0157
; #@! TA.AperFunction,Plated,PTH,ComponentDrill
T3C0.0200
; #@! TA.AperFunction,Plated,PTH,ComponentDrill
T4C0.0315
; #@! TA.AperFunction,Plated,PTH,ComponentDrill
T5C0.0394
; #@! TA.AperFunction,Plated,PTH,ComponentDrill
T6C0.0472
; #@! TA.AperFunction,Plated,PTH,ComponentDrill
T7C0.0591
; #@! TA.AperFunction,Plated,PTH,ComponentDrill
T8C0.0669
; #@! TA.AperFunction,Plated,PTH,ComponentDrill
T9C0.1260
%
G90
G05
T1
X5.1378Y-4.0551
X5.7677Y-3.0906
X6.5945Y-3.9961
X6.6929Y-3.9567
X6.7126Y-3.878
X7.185Y-4.626
X7.2441Y-3.7008
X7.4213Y-3.7992
X7.5394Y-3.7795
X7.5394Y-3.8976
X8.2677Y-3.4843
T2
X3.9173Y-3.7795
X3.9567Y-5.8268
X3.9764Y-4.3898
X4.01Y-5.4
X4.0354Y-3.3661
X4.1732Y-3.7402
X4.3504Y-5.3937
X4.3888Y-5.2162
X4.4685Y-5.7677
X4.5079Y-4.9409
X4.5276Y-3.7402
X4.626Y-4.2913
X4.8622Y-5.2756
X4.875Y-2.8671
X4.8819Y-5.4331
X4.9213Y-3.4646
X4.9409Y-3.6811
X4.9726Y-5.8856
X5.0394Y-4.7835
X5.0591Y-3.937
X5.07Y-4.33
X5.0787Y-2.6181
X5.0787Y-3.1496
X5.1378Y-5.4921
X5.1575Y-5.7283
X5.1772Y-3.4843
X5.2953Y-3.189
X5.315Y-3.3858
X5.4086Y-4.3769
X5.4134Y-3.937
X5.4407Y-3.5137
X5.4921Y-2.9724
X5.4929Y-3.1696
X5.6299Y-4.7835
X5.6646Y-5.7201
X5.7677Y-3.622
X5.8465Y-3.8583
X5.8465Y-5.2165
X5.8858Y-4.4685
X5.9252Y-2.6181
X5.9646Y-5.5709
X6.063Y-4.0945
X6.0946Y-3.8816
X6.1024Y-2.7165
X6.122Y-5.8858
X6.1487Y-4.7018
X6.1888Y-3.0934
X6.2205Y-5.1378
X6.2598Y-5.374
X6.2791Y-3.3942
X6.3189Y-2.9724
X6.3583Y-2.874
X6.3976Y-4.0748
X6.45Y-3.66
X6.4567Y-4.6063
X6.618Y-3.2262
X6.6513Y-5.8675
X6.6535Y-4.7047
X6.675Y-5.08
X6.7323Y-2.6378
X6.8301Y-3.0818
X6.8701Y-4.1339
X6.8701Y-4.4094
X6.8701Y-5.5709
X6.9023Y-4.7153
X6.9685Y-3.5039
X7.0748Y-3.7205
X7.0866Y-2.6181
X7.1063Y-4.5079
X7.126Y-5.0197
X7.145Y-2.955
X7.1457Y-5.315
X7.185Y-4.0354
X7.1896Y-3.1888
X7.2047Y-4.2913
X7.2835Y-5.8661
X7.3031Y-3.6024
X7.3031Y-3.7992
X7.4016Y-4.0748
X7.4803Y-3.2677
X7.5197Y-2.5787
X7.5197Y-3.6417
X7.5984Y-3.5827
X7.6575Y-5.315
X7.6575Y-5.748
X7.6969Y-2.9528
X7.7756Y-3.3858
X7.8346Y-4.7638
X7.8346Y-5.2362
X7.8543Y-4.5276
X7.8937Y-3.6024
X7.8937Y-4.252
X8.1496Y-3.3268
X8.1645Y-4.7274
X8.189Y-2.9134
X8.2087Y-5.2362
X8.2283Y-3.878
X8.248Y-5.8661
X8.3661Y-3.6417
X8.3858Y-3.878
X8.4593Y-5.5757
X8.5236Y-2.6772
X8.5236Y-3.7992
X8.5436Y-5.8013
X9.0941Y-5.2508
X9.1339Y-3.189
X9.1732Y-3.9173
X9.2114Y-5.6449
T3
X7.8892Y-3.8354
X7.8892Y-3.8854
X7.8892Y-3.9354
X7.8892Y-3.9854
X7.8892Y-4.0354
T4
X5.2362Y-5.074
X5.2362Y-5.374
X5.5118Y-5.074
X5.5118Y-5.374
X5.8268Y-5.7283
X6.1268Y-5.7283
X6.4173Y-5.3543
X6.4173Y-5.6543
X6.6535Y-5.3496
X6.6535Y-5.6496
T5
X4.1339Y-3.3071
X4.3504Y-3.248
X4.9606Y-3.5827
X5.2362Y-4.311
X5.2953Y-3.8189
X5.3543Y-3.2874
X5.7087Y-2.9724
X5.7677Y-3.7795
X5.8071Y-3.937
X6.5354Y-4.685
X6.695Y-2.99
X7.0276Y-3.2283
X7.0472Y-4.626
X7.3031Y-4.311
X7.4409Y-3.937
X7.5394Y-4.9606
X7.5591Y-3.4449
X7.9134Y-3.4843
T6
X8.4252Y-3.4843
X8.4449Y-3.7205
T7
X4.215Y-5.66
X4.7638Y-5.6693
X4.875Y-2.6575
X5.37Y-5.675
X5.374Y-4.7441
X5.5778Y-2.6575
X6.4439Y-2.6575
X6.711Y-3.6614
X7.3031Y-2.6575
X8.189Y-2.6575
X8.9551Y-5.6283
X8.9567Y-2.7165
T8
X4.115Y-5.56
X4.115Y-5.76
X4.315Y-5.56
X4.315Y-5.76
X4.6638Y-5.5693
X4.6638Y-5.7693
X4.775Y-2.5575
X4.775Y-2.7575
X4.8638Y-5.5693
X4.8638Y-5.7693
X4.975Y-2.5575
X4.975Y-2.7575
X5.27Y-5.575
X5.27Y-5.775
X5.274Y-4.6441
X5.274Y-4.8441
X5.47Y-5.575
X5.47Y-5.775
X5.474Y-4.6441
X5.474Y-4.8441
X5.4778Y-2.5575
X5.4778Y-2.7575
X5.6778Y-2.5575
X5.6778Y-2.7575
X6.3439Y-2.5575
X6.3439Y-2.7575
X6.5439Y-2.5575
X6.5439Y-2.7575
X6.611Y-3.5614
X6.611Y-3.7614
X6.811Y-3.5614
X6.811Y-3.7614
X7.2031Y-2.5575
X7.2031Y-2.7575
X7.4031Y-2.5575
X7.4031Y-2.7575
X8.089Y-2.5575
X8.089Y-2.7575
X8.289Y-2.5575
X8.289Y-2.7575
X8.8551Y-5.5283
X8.8551Y-5.7283
X8.8567Y-2.6165
X8.8567Y-2.8165
X9.0551Y-5.5283
X9.0551Y-5.7283
X9.0567Y-2.6165
X9.0567Y-2.8165
T9
X4.1535Y-5.2362
X4.1732Y-3.0906
X8.5433Y-3.0906
X8.5433Y-5.2165
M30
