%TF.GenerationSoftware,KiCad,Pcbnew,(6.0.1)*%
%TF.CreationDate,2023-04-04T11:04:11-04:00*%
%TF.ProjectId,NMR_control_board_V0.3.2,4e4d525f-636f-46e7-9472-6f6c5f626f61,rev?*%
%TF.SameCoordinates,Original*%
%TF.FileFunction,Copper,L1,Top*%
%TF.FilePolarity,Positive*%
%FSLAX46Y46*%
G04 Gerber Fmt 4.6, Leading zero omitted, Abs format (unit mm)*
G04 Created by KiCad (PCBNEW (6.0.1)) date 2023-04-04 11:04:11*
%MOMM*%
%LPD*%
G01*
G04 APERTURE LIST*
G04 Aperture macros list*
%AMRoundRect*
0 Rectangle with rounded corners*
0 $1 Rounding radius*
0 $2 $3 $4 $5 $6 $7 $8 $9 X,Y pos of 4 corners*
0 Add a 4 corners polygon primitive as box body*
4,1,4,$2,$3,$4,$5,$6,$7,$8,$9,$2,$3,0*
0 Add four circle primitives for the rounded corners*
1,1,$1+$1,$2,$3*
1,1,$1+$1,$4,$5*
1,1,$1+$1,$6,$7*
1,1,$1+$1,$8,$9*
0 Add four rect primitives between the rounded corners*
20,1,$1+$1,$2,$3,$4,$5,0*
20,1,$1+$1,$4,$5,$6,$7,0*
20,1,$1+$1,$6,$7,$8,$9,0*
20,1,$1+$1,$8,$9,$2,$3,0*%
G04 Aperture macros list end*
%TA.AperFunction,SMDPad,CuDef*%
%ADD10R,3.600000X1.270000*%
%TD*%
%TA.AperFunction,SMDPad,CuDef*%
%ADD11R,4.200000X1.350000*%
%TD*%
%TA.AperFunction,SMDPad,CuDef*%
%ADD12RoundRect,0.250000X0.650000X-0.325000X0.650000X0.325000X-0.650000X0.325000X-0.650000X-0.325000X0*%
%TD*%
%TA.AperFunction,SMDPad,CuDef*%
%ADD13RoundRect,0.250000X-0.625000X0.312500X-0.625000X-0.312500X0.625000X-0.312500X0.625000X0.312500X0*%
%TD*%
%TA.AperFunction,SMDPad,CuDef*%
%ADD14R,1.270000X3.600000*%
%TD*%
%TA.AperFunction,SMDPad,CuDef*%
%ADD15R,1.350000X4.200000*%
%TD*%
%TA.AperFunction,SMDPad,CuDef*%
%ADD16RoundRect,0.250000X-0.325000X-0.650000X0.325000X-0.650000X0.325000X0.650000X-0.325000X0.650000X0*%
%TD*%
%TA.AperFunction,SMDPad,CuDef*%
%ADD17RoundRect,0.250000X0.625000X-0.312500X0.625000X0.312500X-0.625000X0.312500X-0.625000X-0.312500X0*%
%TD*%
%TA.AperFunction,SMDPad,CuDef*%
%ADD18R,2.540000X1.651000*%
%TD*%
%TA.AperFunction,SMDPad,CuDef*%
%ADD19R,0.635000X1.651000*%
%TD*%
%TA.AperFunction,ComponentPad*%
%ADD20C,1.016000*%
%TD*%
%TA.AperFunction,SMDPad,CuDef*%
%ADD21R,1.270000X6.731000*%
%TD*%
%TA.AperFunction,SMDPad,CuDef*%
%ADD22RoundRect,0.250000X0.325000X0.650000X-0.325000X0.650000X-0.325000X-0.650000X0.325000X-0.650000X0*%
%TD*%
%TA.AperFunction,SMDPad,CuDef*%
%ADD23R,0.400000X0.650000*%
%TD*%
%TA.AperFunction,SMDPad,CuDef*%
%ADD24RoundRect,0.100000X-0.100000X0.637500X-0.100000X-0.637500X0.100000X-0.637500X0.100000X0.637500X0*%
%TD*%
%TA.AperFunction,SMDPad,CuDef*%
%ADD25R,5.334000X1.651000*%
%TD*%
%TA.AperFunction,SMDPad,CuDef*%
%ADD26R,5.334000X4.191000*%
%TD*%
%TA.AperFunction,SMDPad,CuDef*%
%ADD27RoundRect,0.100000X-0.712500X-0.100000X0.712500X-0.100000X0.712500X0.100000X-0.712500X0.100000X0*%
%TD*%
%TA.AperFunction,ViaPad*%
%ADD28C,0.800000*%
%TD*%
%TA.AperFunction,Conductor*%
%ADD29C,1.065870*%
%TD*%
%TA.AperFunction,Conductor*%
%ADD30C,0.250000*%
%TD*%
G04 APERTURE END LIST*
D10*
%TO.P,-5V1,1,In*%
%TO.N,Net-(-5V1-Pad1)*%
X96066000Y-70739000D03*
D11*
%TO.P,-5V1,2,Ext*%
%TO.N,GND*%
X96266000Y-73564000D03*
X96266000Y-67914000D03*
%TD*%
D12*
%TO.P,1nF,1*%
%TO.N,Net-(C1-Pad1)*%
X117602000Y-76646500D03*
%TO.P,1nF,2*%
%TO.N,Net-(C1-Pad2)*%
X117602000Y-73696500D03*
%TD*%
D13*
%TO.P,100k\u03A9,1*%
%TO.N,Net-(R1-Pad2)*%
X120142000Y-79248000D03*
%TO.P,100k\u03A9,2*%
%TO.N,Net-(R2-Pad2)*%
X120142000Y-82173000D03*
%TD*%
D14*
%TO.P,F_OUT1,1,In*%
%TO.N,Net-(C3-Pad2)*%
X119634000Y-58220000D03*
D15*
%TO.P,F_OUT1,2,Ext*%
%TO.N,GND*%
X122459000Y-58420000D03*
X116809000Y-58420000D03*
%TD*%
D12*
%TO.P,1nF,1*%
%TO.N,GND*%
X129879000Y-76786000D03*
%TO.P,1nF,2*%
%TO.N,Net-(C3-Pad2)*%
X129879000Y-73836000D03*
%TD*%
D13*
%TO.P,1k\u03A9,1*%
%TO.N,GND*%
X121920000Y-73787000D03*
%TO.P,1k\u03A9,2*%
%TO.N,Net-(R1-Pad2)*%
X121920000Y-76712000D03*
%TD*%
D16*
%TO.P,C6,1*%
%TO.N,GND*%
X109523000Y-82194400D03*
%TO.P,C6,2*%
%TO.N,Net-(-5V1-Pad1)*%
X112473000Y-82194400D03*
%TD*%
D10*
%TO.P,SW_OUT1,1,In*%
%TO.N,Net-(SW_OUT1-Pad1)*%
X183334000Y-70104000D03*
D11*
%TO.P,SW_OUT1,2,Ext*%
%TO.N,GND*%
X183134000Y-72929000D03*
X183134000Y-67279000D03*
%TD*%
D14*
%TO.P,PULSE_GEN_IN1,1,In*%
%TO.N,Net-(U4-Pad2)*%
X102997000Y-58220000D03*
D15*
%TO.P,PULSE_GEN_IN1,2,Ext*%
%TO.N,GND*%
X105822000Y-58420000D03*
X100172000Y-58420000D03*
%TD*%
D17*
%TO.P,20k\u03A9,1*%
%TO.N,Net-(C1-Pad1)*%
X114046000Y-76646500D03*
%TO.P,20k\u03A9,2*%
%TO.N,GND*%
X114046000Y-73721500D03*
%TD*%
D18*
%TO.P,Power Splitter,1,SUM*%
%TO.N,Net-(SPL_IN1-Pad1)*%
X162001200Y-77165200D03*
%TO.P,Power Splitter,2,NC*%
%TO.N,unconnected-(U3-Pad2)*%
X162001200Y-74625200D03*
%TO.P,Power Splitter,3,PORT1*%
%TO.N,Net-(U3-Pad3)*%
X162001200Y-72085200D03*
%TO.P,Power Splitter,4,PORT2*%
%TO.N,Net-(U3-Pad4)*%
X156921200Y-72085200D03*
%TO.P,Power Splitter,5,NC*%
%TO.N,unconnected-(U3-Pad5)*%
X156921200Y-74625200D03*
D19*
%TO.P,Power Splitter,6,GND*%
%TO.N,GND*%
X158508700Y-77165200D03*
D20*
X159461200Y-75895200D03*
X159461200Y-72085200D03*
D18*
X156921200Y-77165200D03*
D21*
X159461200Y-74625200D03*
D20*
X159461200Y-74625200D03*
X159461200Y-73355200D03*
X159461200Y-77165200D03*
%TD*%
D14*
%TO.P,TRIG_OUT1,1,In*%
%TO.N,Net-(U4-Pad2)*%
X139700000Y-58220000D03*
D15*
%TO.P,TRIG_OUT1,2,Ext*%
%TO.N,GND*%
X142525000Y-58420000D03*
X136875000Y-58420000D03*
%TD*%
D14*
%TO.P,SPL_IN1,1,In*%
%TO.N,Net-(SPL_IN1-Pad1)*%
X160401000Y-58220000D03*
D15*
%TO.P,SPL_IN1,2,Ext*%
%TO.N,GND*%
X157576000Y-58420000D03*
X163226000Y-58420000D03*
%TD*%
D22*
%TO.P,C7,1*%
%TO.N,GND*%
X120397800Y-90373200D03*
%TO.P,C7,2*%
%TO.N,Net-(5V1-Pad1)*%
X117447800Y-90373200D03*
%TD*%
D14*
%TO.P,SIN_SIGNAL_IN1,1,In*%
%TO.N,Net-(U4-Pad2)*%
X176940000Y-58220000D03*
D15*
%TO.P,SIN_SIGNAL_IN1,2,Ext*%
%TO.N,GND*%
X174115000Y-58420000D03*
X179765000Y-58420000D03*
%TD*%
D23*
%TO.P,1.8V Reg.,1,NC*%
%TO.N,unconnected-(U2-Pad1)*%
X130825000Y-86045000D03*
%TO.P,1.8V Reg.,2,GND*%
%TO.N,GND*%
X130175000Y-86045000D03*
%TO.P,1.8V Reg.,3,NC*%
%TO.N,unconnected-(U2-Pad3)*%
X129525000Y-86045000D03*
%TO.P,1.8V Reg.,4,IN*%
%TO.N,Net-(5V1-Pad1)*%
X129525000Y-87945000D03*
%TO.P,1.8V Reg.,5,OUT*%
%TO.N,Net-(C4-Pad1)*%
X130825000Y-87945000D03*
%TD*%
D12*
%TO.P,C4,1*%
%TO.N,Net-(C4-Pad1)*%
X133451600Y-88470000D03*
%TO.P,C4,2*%
%TO.N,GND*%
X133451600Y-85520000D03*
%TD*%
%TO.P,C2,1*%
%TO.N,Net-(5V1-Pad1)*%
X126898400Y-88470000D03*
%TO.P,C2,2*%
%TO.N,GND*%
X126898400Y-85520000D03*
%TD*%
D17*
%TO.P,12k\u03A9,1*%
%TO.N,Net-(R2-Pad2)*%
X126323000Y-76773500D03*
%TO.P,12k\u03A9,2*%
%TO.N,Net-(C3-Pad2)*%
X126323000Y-73848500D03*
%TD*%
D10*
%TO.P,5V1,1,In*%
%TO.N,Net-(5V1-Pad1)*%
X96066000Y-90678000D03*
D11*
%TO.P,5V1,2,Ext*%
%TO.N,GND*%
X96266000Y-87853000D03*
X96266000Y-93503000D03*
%TD*%
D24*
%TO.P,LNA,1,OUT1*%
%TO.N,Net-(R2-Pad2)*%
X117053000Y-82227500D03*
%TO.P,LNA,2,-IN1*%
%TO.N,Net-(R1-Pad2)*%
X116403000Y-82227500D03*
%TO.P,LNA,3,+IN1*%
%TO.N,Net-(C1-Pad1)*%
X115753000Y-82227500D03*
%TO.P,LNA,4,VEE*%
%TO.N,Net-(-5V1-Pad1)*%
X115103000Y-82227500D03*
%TO.P,LNA,5,+IN2*%
%TO.N,GND*%
X115103000Y-87952500D03*
%TO.P,LNA,6,-IN2*%
%TO.N,Net-(U1-Pad6)*%
X115753000Y-87952500D03*
%TO.P,LNA,7,OUT2*%
X116403000Y-87952500D03*
%TO.P,LNA,8,VCC*%
%TO.N,Net-(5V1-Pad1)*%
X117053000Y-87952500D03*
%TD*%
D25*
%TO.P,Mixer_U5,1,GND*%
%TO.N,GND*%
X153162000Y-87757000D03*
D20*
X155194000Y-89027000D03*
X155194000Y-90297000D03*
X155194000Y-91567000D03*
D21*
X155194000Y-90297000D03*
D20*
X155194000Y-87757000D03*
X155194000Y-92837000D03*
X151003000Y-87757000D03*
D18*
X152654000Y-87757000D03*
%TO.P,Mixer_U5,2,IF*%
%TO.N,Net-(C1-Pad2)*%
X152654000Y-90297000D03*
%TO.P,Mixer_U5,3,RF*%
%TO.N,Net-(MIX_RF1-Pad1)*%
X152654000Y-92837000D03*
%TO.P,Mixer_U5,4,GND*%
%TO.N,GND*%
X157734000Y-92837000D03*
D20*
X159385000Y-92837000D03*
D26*
X157226000Y-91567000D03*
D20*
%TO.P,Mixer_U5,5,GND*%
X159385000Y-90297000D03*
D18*
X157734000Y-90297000D03*
%TO.P,Mixer_U5,6,LO*%
%TO.N,Net-(U3-Pad3)*%
X157734000Y-87757000D03*
%TD*%
D22*
%TO.P,C5,1*%
%TO.N,GND*%
X146561600Y-69804400D03*
%TO.P,C5,2*%
%TO.N,Net-(C4-Pad1)*%
X143611600Y-69804400D03*
%TD*%
D27*
%TO.P,Switch,1,VDD*%
%TO.N,Net-(C4-Pad1)*%
X143023100Y-72258400D03*
%TO.P,Switch,2,CTRL*%
%TO.N,Net-(U4-Pad2)*%
X143023100Y-72908400D03*
%TO.P,Switch,3,GND*%
%TO.N,GND*%
X143023100Y-73558400D03*
%TO.P,Switch,4,RF1*%
%TO.N,Net-(U3-Pad4)*%
X143023100Y-74208400D03*
%TO.P,Switch,5,GND*%
%TO.N,GND*%
X147248100Y-74208400D03*
%TO.P,Switch,6,GND*%
X147248100Y-73558400D03*
%TO.P,Switch,7,GND*%
X147248100Y-72908400D03*
%TO.P,Switch,8,RF2*%
%TO.N,Net-(SW_OUT1-Pad1)*%
X147248100Y-72258400D03*
%TD*%
D10*
%TO.P,MIX_RF1,1,In*%
%TO.N,Net-(MIX_RF1-Pad1)*%
X183334000Y-90932000D03*
D11*
%TO.P,MIX_RF1,2,Ext*%
%TO.N,GND*%
X183134000Y-88107000D03*
X183134000Y-93757000D03*
%TD*%
D28*
%TO.N,Net-(C1-Pad2)*%
X117602000Y-71628000D03*
X148971000Y-90297000D03*
%TO.N,GND*%
X137668000Y-77216000D03*
X107188000Y-69342000D03*
X165303200Y-84582000D03*
X113030000Y-57404000D03*
X119888000Y-73152000D03*
X126746000Y-59283600D03*
X103479600Y-96367600D03*
X170942000Y-71628000D03*
X148844000Y-82804000D03*
X128219200Y-91846400D03*
X175768000Y-66548000D03*
X136144000Y-68834000D03*
X181356000Y-77724000D03*
X143510000Y-97028000D03*
X123698000Y-64363600D03*
X98298000Y-82804000D03*
X109880400Y-86664800D03*
X169519600Y-96316800D03*
X98044000Y-64770000D03*
X113233200Y-95148400D03*
X108305600Y-95148400D03*
X180340000Y-84836000D03*
X149301200Y-96367600D03*
X150622000Y-60960000D03*
X168402000Y-58674000D03*
X130759200Y-64109600D03*
X131216400Y-81330800D03*
X129032000Y-71374000D03*
X163322000Y-79502000D03*
X118668800Y-95148400D03*
X102362000Y-77978000D03*
X126695200Y-81330800D03*
X130149600Y-84175600D03*
X152400000Y-71882000D03*
X152857200Y-80264000D03*
X136296400Y-91694000D03*
X159512000Y-68326000D03*
X103530400Y-85039200D03*
X163626800Y-89509600D03*
X174752000Y-82550000D03*
X150368000Y-68580000D03*
X157175200Y-64211200D03*
X153924000Y-75184000D03*
X171704000Y-87376000D03*
X147320000Y-64312800D03*
X113944400Y-67716400D03*
%TO.N,Net-(C4-Pad1)*%
X141500846Y-72184596D03*
X143129000Y-83058000D03*
%TO.N,Net-(U3-Pad3)*%
X164465000Y-81661000D03*
X164338000Y-72136000D03*
%TO.N,Net-(U3-Pad4)*%
X143052800Y-75996800D03*
X154178000Y-72136000D03*
%TO.N,Net-(U4-Pad2)*%
X173482000Y-63246000D03*
X139700000Y-63246000D03*
X106858000Y-63246000D03*
%TD*%
D29*
%TO.N,Net-(C1-Pad1)*%
X114046000Y-76646500D02*
X114046000Y-78867000D01*
D30*
X115753000Y-82227500D02*
X115753000Y-80574000D01*
X115753000Y-80574000D02*
X115443000Y-80264000D01*
D29*
X117602000Y-76646500D02*
X114046000Y-76646500D01*
X114046000Y-78867000D02*
X115443000Y-80264000D01*
%TO.N,Net-(C1-Pad2)*%
X152654000Y-90297000D02*
X148971000Y-90297000D01*
X117602000Y-71628000D02*
X117602000Y-73696500D01*
%TO.N,Net-(5V1-Pad1)*%
X117143000Y-90678000D02*
X96664500Y-90678000D01*
X117335455Y-90260855D02*
X117335455Y-87952500D01*
X117447800Y-88288600D02*
X117398800Y-88239600D01*
X126898400Y-88470000D02*
X129000000Y-88470000D01*
X126717000Y-88288600D02*
X126898400Y-88470000D01*
X117447800Y-88288600D02*
X126717000Y-88288600D01*
X117447800Y-90373200D02*
X117143000Y-90678000D01*
X117447800Y-90373200D02*
X117335455Y-90260855D01*
X129000000Y-88470000D02*
X129525000Y-87945000D01*
D30*
%TO.N,GND*%
X143023100Y-73558400D02*
X147248100Y-73558400D01*
X130175000Y-84201000D02*
X130149600Y-84175600D01*
X130175000Y-86045000D02*
X130175000Y-84201000D01*
D29*
%TO.N,Net-(C3-Pad2)*%
X126323000Y-73848500D02*
X129866500Y-73848500D01*
X119634000Y-67159500D02*
X119634000Y-58220000D01*
X129866500Y-73848500D02*
X129879000Y-73836000D01*
X126323000Y-73848500D02*
X119634000Y-67159500D01*
D30*
%TO.N,Net-(C4-Pad1)*%
X143007500Y-72242800D02*
X143023100Y-72258400D01*
D29*
X143103600Y-70312400D02*
X143103600Y-71836400D01*
X131350000Y-88470000D02*
X130825000Y-87945000D01*
D30*
X137717000Y-88470000D02*
X133451600Y-88470000D01*
D29*
X133451600Y-88470000D02*
X131350000Y-88470000D01*
X143611600Y-69804400D02*
X143103600Y-70312400D01*
D30*
X137717000Y-88470000D02*
X143129000Y-83058000D01*
X141503400Y-72242800D02*
X143007500Y-72242800D01*
D29*
%TO.N,Net-(R1-Pad2)*%
X117200248Y-79248000D02*
X116708390Y-79739858D01*
X116708390Y-79739858D02*
X116708390Y-80518000D01*
X120142000Y-79248000D02*
X117200248Y-79248000D01*
D30*
X116403000Y-82227500D02*
X116403000Y-80823390D01*
X116403000Y-80823390D02*
X116708390Y-80518000D01*
D29*
X120142000Y-78490000D02*
X121920000Y-76712000D01*
X120142000Y-79248000D02*
X120142000Y-78490000D01*
%TO.N,Net-(R2-Pad2)*%
X120142000Y-82173000D02*
X120923500Y-82173000D01*
X120923500Y-82173000D02*
X126323000Y-76773500D01*
X120142000Y-82173000D02*
X117479000Y-82173000D01*
X117479000Y-82173000D02*
X117475000Y-82169000D01*
D30*
%TO.N,Net-(U3-Pad3)*%
X164211000Y-81661000D02*
X158115000Y-87757000D01*
X158115000Y-87757000D02*
X157734000Y-87757000D01*
X162052000Y-72136000D02*
X162001200Y-72085200D01*
X164338000Y-72136000D02*
X162052000Y-72136000D01*
X164465000Y-81661000D02*
X164211000Y-81661000D01*
%TO.N,Net-(U3-Pad4)*%
X143023100Y-75967100D02*
X143052800Y-75996800D01*
X154178000Y-72136000D02*
X154228800Y-72085200D01*
X143023100Y-74208400D02*
X143023100Y-75967100D01*
X154228800Y-72085200D02*
X156921200Y-72085200D01*
%TO.N,Net-(U1-Pad6)*%
X116403000Y-87952500D02*
X115753000Y-87952500D01*
D29*
%TO.N,Net-(-5V1-Pad1)*%
X112473000Y-82194400D02*
X101017600Y-70739000D01*
X101017600Y-70739000D02*
X96066000Y-70739000D01*
X112473000Y-82194400D02*
X114808000Y-82194400D01*
%TO.N,Net-(MIX_RF1-Pad1)*%
X164338000Y-95707200D02*
X169113200Y-90932000D01*
X169113200Y-90932000D02*
X182989500Y-90932000D01*
X154228800Y-95707200D02*
X152654000Y-94132400D01*
X164338000Y-95707200D02*
X154228800Y-95707200D01*
X152654000Y-94132400D02*
X152654000Y-92837000D01*
D30*
%TO.N,Net-(SPL_IN1-Pad1)*%
X160401000Y-61230095D02*
X165190000Y-66019095D01*
X163450396Y-76978804D02*
X162451200Y-76978804D01*
X162451200Y-76978804D02*
X162319398Y-76847002D01*
X165190000Y-66019095D02*
X165190000Y-75239200D01*
X165190000Y-75239200D02*
X163450396Y-76978804D01*
X160401000Y-58220000D02*
X160401000Y-61230095D01*
%TO.N,Net-(U4-Pad2)*%
X139700000Y-58220000D02*
X139700000Y-63246000D01*
X106858000Y-63246000D02*
X102997000Y-59385000D01*
X143021904Y-72909596D02*
X143023100Y-72908400D01*
X140815544Y-72909596D02*
X139700000Y-71794052D01*
X173482000Y-63246000D02*
X176784000Y-59944000D01*
X102997000Y-59385000D02*
X102997000Y-58220000D01*
X139700000Y-63246000D02*
X139700000Y-71794052D01*
X140815544Y-72909596D02*
X143021904Y-72909596D01*
%TO.N,Net-(SW_OUT1-Pad1)*%
X156220441Y-80467200D02*
X171145200Y-80467200D01*
X147248100Y-72258400D02*
X148011641Y-72258400D01*
X148011641Y-72258400D02*
X156220441Y-80467200D01*
X171145200Y-80467200D02*
X181508400Y-70104000D01*
X181508400Y-70104000D02*
X183334000Y-70104000D01*
%TD*%
%TA.AperFunction,Conductor*%
%TO.N,GND*%
G36*
X98931121Y-56662002D02*
G01*
X98977614Y-56715658D01*
X98989000Y-56768000D01*
X98989000Y-58147885D01*
X98993475Y-58163124D01*
X98994865Y-58164329D01*
X99002548Y-58166000D01*
X101336884Y-58166000D01*
X101352123Y-58161525D01*
X101353328Y-58160135D01*
X101354999Y-58152452D01*
X101354999Y-56768000D01*
X101375001Y-56699879D01*
X101428657Y-56653386D01*
X101480999Y-56642000D01*
X101727500Y-56642000D01*
X101795621Y-56662002D01*
X101842114Y-56715658D01*
X101853500Y-56768000D01*
X101853500Y-60068134D01*
X101860255Y-60130316D01*
X101911385Y-60266705D01*
X101998739Y-60383261D01*
X102115295Y-60470615D01*
X102251684Y-60521745D01*
X102313866Y-60528500D01*
X103192406Y-60528500D01*
X103260527Y-60548502D01*
X103281501Y-60565405D01*
X105910878Y-63194782D01*
X105944904Y-63257094D01*
X105947092Y-63270703D01*
X105964458Y-63435928D01*
X106023473Y-63617556D01*
X106118960Y-63782944D01*
X106246747Y-63924866D01*
X106401248Y-64037118D01*
X106407276Y-64039802D01*
X106407278Y-64039803D01*
X106569681Y-64112109D01*
X106575712Y-64114794D01*
X106669113Y-64134647D01*
X106756056Y-64153128D01*
X106756061Y-64153128D01*
X106762513Y-64154500D01*
X106953487Y-64154500D01*
X106959939Y-64153128D01*
X106959944Y-64153128D01*
X107046887Y-64134647D01*
X107140288Y-64114794D01*
X107146319Y-64112109D01*
X107308722Y-64039803D01*
X107308724Y-64039802D01*
X107314752Y-64037118D01*
X107469253Y-63924866D01*
X107597040Y-63782944D01*
X107692527Y-63617556D01*
X107751542Y-63435928D01*
X107771504Y-63246000D01*
X107751542Y-63056072D01*
X107692527Y-62874444D01*
X107597040Y-62709056D01*
X107469253Y-62567134D01*
X107314752Y-62454882D01*
X107308724Y-62452198D01*
X107308722Y-62452197D01*
X107146319Y-62379891D01*
X107146318Y-62379891D01*
X107140288Y-62377206D01*
X107046888Y-62357353D01*
X106959944Y-62338872D01*
X106959939Y-62338872D01*
X106953487Y-62337500D01*
X106897594Y-62337500D01*
X106829473Y-62317498D01*
X106808499Y-62300595D01*
X105604905Y-61097001D01*
X105570879Y-61034689D01*
X105568213Y-61009884D01*
X106076000Y-61009884D01*
X106080475Y-61025123D01*
X106081865Y-61026328D01*
X106089548Y-61027999D01*
X106541669Y-61027999D01*
X106548490Y-61027629D01*
X106599352Y-61022105D01*
X106614604Y-61018479D01*
X106735054Y-60973324D01*
X106750649Y-60964786D01*
X106852724Y-60888285D01*
X106865285Y-60875724D01*
X106941786Y-60773649D01*
X106950324Y-60758054D01*
X106995478Y-60637606D01*
X106999105Y-60622351D01*
X107004631Y-60571486D01*
X107005000Y-60564672D01*
X107005000Y-60564669D01*
X115626001Y-60564669D01*
X115626371Y-60571490D01*
X115631895Y-60622352D01*
X115635521Y-60637604D01*
X115680676Y-60758054D01*
X115689214Y-60773649D01*
X115765715Y-60875724D01*
X115778276Y-60888285D01*
X115880351Y-60964786D01*
X115895946Y-60973324D01*
X116016394Y-61018478D01*
X116031649Y-61022105D01*
X116082514Y-61027631D01*
X116089328Y-61028000D01*
X116536885Y-61028000D01*
X116552124Y-61023525D01*
X116553329Y-61022135D01*
X116555000Y-61014452D01*
X116555000Y-61009884D01*
X117063000Y-61009884D01*
X117067475Y-61025123D01*
X117068865Y-61026328D01*
X117076548Y-61027999D01*
X117528669Y-61027999D01*
X117535490Y-61027629D01*
X117586352Y-61022105D01*
X117601604Y-61018479D01*
X117722054Y-60973324D01*
X117737649Y-60964786D01*
X117839724Y-60888285D01*
X117852285Y-60875724D01*
X117928786Y-60773649D01*
X117937324Y-60758054D01*
X117982478Y-60637606D01*
X117986105Y-60622351D01*
X117991631Y-60571486D01*
X117992000Y-60564672D01*
X117992000Y-58692115D01*
X117987525Y-58676876D01*
X117986135Y-58675671D01*
X117978452Y-58674000D01*
X117081115Y-58674000D01*
X117065876Y-58678475D01*
X117064671Y-58679865D01*
X117063000Y-58687548D01*
X117063000Y-61009884D01*
X116555000Y-61009884D01*
X116555000Y-58692115D01*
X116550525Y-58676876D01*
X116549135Y-58675671D01*
X116541452Y-58674000D01*
X115644116Y-58674000D01*
X115628877Y-58678475D01*
X115627672Y-58679865D01*
X115626001Y-58687548D01*
X115626001Y-60564669D01*
X107005000Y-60564669D01*
X107005000Y-58692115D01*
X107000525Y-58676876D01*
X106999135Y-58675671D01*
X106991452Y-58674000D01*
X106094115Y-58674000D01*
X106078876Y-58678475D01*
X106077671Y-58679865D01*
X106076000Y-58687548D01*
X106076000Y-61009884D01*
X105568213Y-61009884D01*
X105568000Y-61007906D01*
X105568000Y-58692115D01*
X105563525Y-58676876D01*
X105562135Y-58675671D01*
X105554452Y-58674000D01*
X104657116Y-58674000D01*
X104641877Y-58678475D01*
X104640672Y-58679865D01*
X104639001Y-58687548D01*
X104639001Y-59826906D01*
X104618999Y-59895027D01*
X104565343Y-59941520D01*
X104495069Y-59951624D01*
X104430489Y-59922130D01*
X104423906Y-59916001D01*
X104177405Y-59669500D01*
X104143379Y-59607188D01*
X104140500Y-59580405D01*
X104140500Y-56768000D01*
X104160502Y-56699879D01*
X104214158Y-56653386D01*
X104266500Y-56642000D01*
X104513000Y-56642000D01*
X104581121Y-56662002D01*
X104627614Y-56715658D01*
X104639000Y-56768000D01*
X104639000Y-58147885D01*
X104643475Y-58163124D01*
X104644865Y-58164329D01*
X104652548Y-58166000D01*
X106986884Y-58166000D01*
X107002123Y-58161525D01*
X107003328Y-58160135D01*
X107004999Y-58152452D01*
X107004999Y-56768000D01*
X107025001Y-56699879D01*
X107078657Y-56653386D01*
X107130999Y-56642000D01*
X115500000Y-56642000D01*
X115568121Y-56662002D01*
X115614614Y-56715658D01*
X115626000Y-56768000D01*
X115626000Y-58147885D01*
X115630475Y-58163124D01*
X115631865Y-58164329D01*
X115639548Y-58166000D01*
X117973884Y-58166000D01*
X117989123Y-58161525D01*
X117990328Y-58160135D01*
X117991999Y-58152452D01*
X117991999Y-56768000D01*
X118012001Y-56699879D01*
X118065657Y-56653386D01*
X118117999Y-56642000D01*
X118364500Y-56642000D01*
X118432621Y-56662002D01*
X118479114Y-56715658D01*
X118490500Y-56768000D01*
X118490500Y-60068134D01*
X118497255Y-60130316D01*
X118548385Y-60266705D01*
X118553768Y-60273888D01*
X118553770Y-60273891D01*
X118567392Y-60292066D01*
X118592239Y-60358572D01*
X118592565Y-60367630D01*
X118592565Y-67095865D01*
X118591828Y-67109472D01*
X118587584Y-67148541D01*
X118588121Y-67154676D01*
X118592096Y-67200116D01*
X118592425Y-67204945D01*
X118592565Y-67207806D01*
X118592565Y-67210891D01*
X118592866Y-67213956D01*
X118596896Y-67255063D01*
X118597016Y-67256359D01*
X118605384Y-67352001D01*
X118606919Y-67357285D01*
X118607456Y-67362761D01*
X118635228Y-67454747D01*
X118635550Y-67455834D01*
X118662364Y-67548127D01*
X118664897Y-67553014D01*
X118666487Y-67558280D01*
X118669376Y-67563714D01*
X118669380Y-67563723D01*
X118711526Y-67642989D01*
X118712138Y-67644155D01*
X118753515Y-67723978D01*
X118753520Y-67723986D01*
X118756353Y-67729451D01*
X118759788Y-67733754D01*
X118762370Y-67738610D01*
X118766262Y-67743382D01*
X118766264Y-67743385D01*
X118823040Y-67812999D01*
X118823868Y-67814026D01*
X118856140Y-67854452D01*
X118858634Y-67856946D01*
X118859554Y-67857975D01*
X118863269Y-67862324D01*
X118887558Y-67892106D01*
X118887561Y-67892109D01*
X118891453Y-67896881D01*
X118896201Y-67900809D01*
X118896202Y-67900810D01*
X118928078Y-67927180D01*
X118936857Y-67935169D01*
X121935297Y-70933608D01*
X124902595Y-73900906D01*
X124936621Y-73963218D01*
X124939500Y-73990001D01*
X124939500Y-74211400D01*
X124939837Y-74214646D01*
X124939837Y-74214650D01*
X124947706Y-74290486D01*
X124950474Y-74317166D01*
X124952655Y-74323702D01*
X124952655Y-74323704D01*
X124962220Y-74352373D01*
X125006450Y-74484946D01*
X125099522Y-74635348D01*
X125104704Y-74640521D01*
X125156597Y-74692324D01*
X125224697Y-74760305D01*
X125230927Y-74764145D01*
X125230928Y-74764146D01*
X125368090Y-74848694D01*
X125375262Y-74853115D01*
X125435214Y-74873000D01*
X125536611Y-74906632D01*
X125536613Y-74906632D01*
X125543139Y-74908797D01*
X125549975Y-74909497D01*
X125549978Y-74909498D01*
X125593031Y-74913909D01*
X125647600Y-74919500D01*
X126998400Y-74919500D01*
X127001646Y-74919163D01*
X127001650Y-74919163D01*
X127097308Y-74909238D01*
X127097312Y-74909237D01*
X127104166Y-74908526D01*
X127110702Y-74906345D01*
X127110704Y-74906345D01*
X127140479Y-74896411D01*
X127180355Y-74889935D01*
X128996921Y-74889935D01*
X129036588Y-74896342D01*
X129067611Y-74906632D01*
X129067613Y-74906632D01*
X129074139Y-74908797D01*
X129080975Y-74909497D01*
X129080978Y-74909498D01*
X129124031Y-74913909D01*
X129178600Y-74919500D01*
X130579400Y-74919500D01*
X130582646Y-74919163D01*
X130582650Y-74919163D01*
X130678308Y-74909238D01*
X130678312Y-74909237D01*
X130685166Y-74908526D01*
X130691702Y-74906345D01*
X130691704Y-74906345D01*
X130843121Y-74855828D01*
X130852946Y-74852550D01*
X131003348Y-74759478D01*
X131128305Y-74634303D01*
X131134258Y-74624646D01*
X131217275Y-74489968D01*
X131217276Y-74489966D01*
X131221115Y-74483738D01*
X131265214Y-74350784D01*
X131274632Y-74322389D01*
X131274632Y-74322387D01*
X131276797Y-74315861D01*
X131287500Y-74211400D01*
X131287500Y-73460600D01*
X131287163Y-73457350D01*
X131277238Y-73361692D01*
X131277237Y-73361688D01*
X131276526Y-73354834D01*
X131265272Y-73321100D01*
X131222868Y-73194002D01*
X131220550Y-73187054D01*
X131127478Y-73036652D01*
X131002303Y-72911695D01*
X130988814Y-72903380D01*
X130857968Y-72822725D01*
X130857966Y-72822724D01*
X130851738Y-72818885D01*
X130756394Y-72787261D01*
X130690389Y-72765368D01*
X130690387Y-72765368D01*
X130683861Y-72763203D01*
X130677025Y-72762503D01*
X130677022Y-72762502D01*
X130628180Y-72757498D01*
X130579400Y-72752500D01*
X129178600Y-72752500D01*
X129175354Y-72752837D01*
X129175350Y-72752837D01*
X129079692Y-72762762D01*
X129079688Y-72762763D01*
X129072834Y-72763474D01*
X129066298Y-72765655D01*
X129066296Y-72765655D01*
X128961587Y-72800589D01*
X128921711Y-72807065D01*
X127180079Y-72807065D01*
X127140412Y-72800658D01*
X127109389Y-72790368D01*
X127109387Y-72790368D01*
X127102861Y-72788203D01*
X127096025Y-72787503D01*
X127096022Y-72787502D01*
X127052969Y-72783091D01*
X126998400Y-72777500D01*
X126777001Y-72777500D01*
X126708880Y-72757498D01*
X126687906Y-72740595D01*
X120712340Y-66765028D01*
X120678314Y-66702716D01*
X120675435Y-66675933D01*
X120675435Y-60564669D01*
X121276001Y-60564669D01*
X121276371Y-60571490D01*
X121281895Y-60622352D01*
X121285521Y-60637604D01*
X121330676Y-60758054D01*
X121339214Y-60773649D01*
X121415715Y-60875724D01*
X121428276Y-60888285D01*
X121530351Y-60964786D01*
X121545946Y-60973324D01*
X121666394Y-61018478D01*
X121681649Y-61022105D01*
X121732514Y-61027631D01*
X121739328Y-61028000D01*
X122186885Y-61028000D01*
X122202124Y-61023525D01*
X122203329Y-61022135D01*
X122205000Y-61014452D01*
X122205000Y-61009884D01*
X122713000Y-61009884D01*
X122717475Y-61025123D01*
X122718865Y-61026328D01*
X122726548Y-61027999D01*
X123178669Y-61027999D01*
X123185490Y-61027629D01*
X123236352Y-61022105D01*
X123251604Y-61018479D01*
X123372054Y-60973324D01*
X123387649Y-60964786D01*
X123489724Y-60888285D01*
X123502285Y-60875724D01*
X123578786Y-60773649D01*
X123587324Y-60758054D01*
X123632478Y-60637606D01*
X123636105Y-60622351D01*
X123641631Y-60571486D01*
X123642000Y-60564672D01*
X123642000Y-60564669D01*
X135692001Y-60564669D01*
X135692371Y-60571490D01*
X135697895Y-60622352D01*
X135701521Y-60637604D01*
X135746676Y-60758054D01*
X135755214Y-60773649D01*
X135831715Y-60875724D01*
X135844276Y-60888285D01*
X135946351Y-60964786D01*
X135961946Y-60973324D01*
X136082394Y-61018478D01*
X136097649Y-61022105D01*
X136148514Y-61027631D01*
X136155328Y-61028000D01*
X136602885Y-61028000D01*
X136618124Y-61023525D01*
X136619329Y-61022135D01*
X136621000Y-61014452D01*
X136621000Y-61009884D01*
X137129000Y-61009884D01*
X137133475Y-61025123D01*
X137134865Y-61026328D01*
X137142548Y-61027999D01*
X137594669Y-61027999D01*
X137601490Y-61027629D01*
X137652352Y-61022105D01*
X137667604Y-61018479D01*
X137788054Y-60973324D01*
X137803649Y-60964786D01*
X137905724Y-60888285D01*
X137918285Y-60875724D01*
X137994786Y-60773649D01*
X138003324Y-60758054D01*
X138048478Y-60637606D01*
X138052105Y-60622351D01*
X138057631Y-60571486D01*
X138058000Y-60564672D01*
X138058000Y-58692115D01*
X138053525Y-58676876D01*
X138052135Y-58675671D01*
X138044452Y-58674000D01*
X137147115Y-58674000D01*
X137131876Y-58678475D01*
X137130671Y-58679865D01*
X137129000Y-58687548D01*
X137129000Y-61009884D01*
X136621000Y-61009884D01*
X136621000Y-58692115D01*
X136616525Y-58676876D01*
X136615135Y-58675671D01*
X136607452Y-58674000D01*
X135710116Y-58674000D01*
X135694877Y-58678475D01*
X135693672Y-58679865D01*
X135692001Y-58687548D01*
X135692001Y-60564669D01*
X123642000Y-60564669D01*
X123642000Y-58692115D01*
X123637525Y-58676876D01*
X123636135Y-58675671D01*
X123628452Y-58674000D01*
X122731115Y-58674000D01*
X122715876Y-58678475D01*
X122714671Y-58679865D01*
X122713000Y-58687548D01*
X122713000Y-61009884D01*
X122205000Y-61009884D01*
X122205000Y-58692115D01*
X122200525Y-58676876D01*
X122199135Y-58675671D01*
X122191452Y-58674000D01*
X121294116Y-58674000D01*
X121278877Y-58678475D01*
X121277672Y-58679865D01*
X121276001Y-58687548D01*
X121276001Y-60564669D01*
X120675435Y-60564669D01*
X120675435Y-60367630D01*
X120695437Y-60299509D01*
X120700608Y-60292066D01*
X120714230Y-60273891D01*
X120714232Y-60273888D01*
X120719615Y-60266705D01*
X120770745Y-60130316D01*
X120777500Y-60068134D01*
X120777500Y-56768000D01*
X120797502Y-56699879D01*
X120851158Y-56653386D01*
X120903500Y-56642000D01*
X121150000Y-56642000D01*
X121218121Y-56662002D01*
X121264614Y-56715658D01*
X121276000Y-56768000D01*
X121276000Y-58147885D01*
X121280475Y-58163124D01*
X121281865Y-58164329D01*
X121289548Y-58166000D01*
X123623884Y-58166000D01*
X123639123Y-58161525D01*
X123640328Y-58160135D01*
X123641999Y-58152452D01*
X123641999Y-56768000D01*
X123662001Y-56699879D01*
X123715657Y-56653386D01*
X123767999Y-56642000D01*
X135566000Y-56642000D01*
X135634121Y-56662002D01*
X135680614Y-56715658D01*
X135692000Y-56768000D01*
X135692000Y-58147885D01*
X135696475Y-58163124D01*
X135697865Y-58164329D01*
X135705548Y-58166000D01*
X138039884Y-58166000D01*
X138055123Y-58161525D01*
X138056328Y-58160135D01*
X138057999Y-58152452D01*
X138057999Y-56768000D01*
X138078001Y-56699879D01*
X138131657Y-56653386D01*
X138183999Y-56642000D01*
X138430500Y-56642000D01*
X138498621Y-56662002D01*
X138545114Y-56715658D01*
X138556500Y-56768000D01*
X138556500Y-60068134D01*
X138563255Y-60130316D01*
X138614385Y-60266705D01*
X138701739Y-60383261D01*
X138818295Y-60470615D01*
X138954684Y-60521745D01*
X138962541Y-60522598D01*
X138969646Y-60524288D01*
X139031293Y-60559506D01*
X139064113Y-60622461D01*
X139066500Y-60646871D01*
X139066500Y-62543476D01*
X139046498Y-62611597D01*
X139034142Y-62627779D01*
X138960960Y-62709056D01*
X138865473Y-62874444D01*
X138806458Y-63056072D01*
X138786496Y-63246000D01*
X138806458Y-63435928D01*
X138865473Y-63617556D01*
X138960960Y-63782944D01*
X139034137Y-63864215D01*
X139064853Y-63928221D01*
X139066500Y-63948524D01*
X139066500Y-71715285D01*
X139065973Y-71726468D01*
X139064298Y-71733961D01*
X139064547Y-71741887D01*
X139064547Y-71741888D01*
X139066438Y-71802038D01*
X139066500Y-71805997D01*
X139066500Y-71833908D01*
X139066997Y-71837842D01*
X139066997Y-71837843D01*
X139067005Y-71837908D01*
X139067938Y-71849745D01*
X139069327Y-71893941D01*
X139074978Y-71913391D01*
X139078987Y-71932752D01*
X139081526Y-71952849D01*
X139084445Y-71960220D01*
X139084445Y-71960222D01*
X139097804Y-71993964D01*
X139101649Y-72005194D01*
X139111771Y-72040035D01*
X139113982Y-72047645D01*
X139118015Y-72054464D01*
X139118017Y-72054469D01*
X139124293Y-72065080D01*
X139132988Y-72082828D01*
X139140448Y-72101669D01*
X139145110Y-72108085D01*
X139145110Y-72108086D01*
X139166436Y-72137439D01*
X139172952Y-72147359D01*
X139195458Y-72185414D01*
X139209779Y-72199735D01*
X139222619Y-72214768D01*
X139234528Y-72231159D01*
X139240634Y-72236210D01*
X139268605Y-72259350D01*
X139277384Y-72267340D01*
X140311887Y-73301843D01*
X140319431Y-73310133D01*
X140323544Y-73316614D01*
X140329321Y-73322039D01*
X140373211Y-73363254D01*
X140376053Y-73366009D01*
X140395774Y-73385730D01*
X140398969Y-73388208D01*
X140407991Y-73395914D01*
X140440223Y-73426182D01*
X140447172Y-73430002D01*
X140457976Y-73435942D01*
X140474500Y-73446795D01*
X140490503Y-73459209D01*
X140531087Y-73476772D01*
X140541717Y-73481979D01*
X140580484Y-73503291D01*
X140588161Y-73505262D01*
X140588166Y-73505264D01*
X140600102Y-73508328D01*
X140618810Y-73514733D01*
X140637399Y-73522777D01*
X140645224Y-73524016D01*
X140645226Y-73524017D01*
X140681063Y-73529693D01*
X140692684Y-73532100D01*
X140727833Y-73541124D01*
X140735514Y-73543096D01*
X140755775Y-73543096D01*
X140775484Y-73544647D01*
X140795487Y-73547815D01*
X140803379Y-73547069D01*
X140808606Y-73546575D01*
X140839498Y-73543655D01*
X140851355Y-73543096D01*
X141576601Y-73543096D01*
X141644722Y-73563098D01*
X141691215Y-73616754D01*
X141702601Y-73669096D01*
X141702601Y-73694124D01*
X141703139Y-73702335D01*
X141717172Y-73808933D01*
X141721410Y-73824748D01*
X141725460Y-73834526D01*
X141733050Y-73905115D01*
X141725461Y-73930964D01*
X141717762Y-73949550D01*
X141716684Y-73957737D01*
X141716684Y-73957738D01*
X141703338Y-74059115D01*
X141702100Y-74068515D01*
X141702101Y-74348284D01*
X141702639Y-74352369D01*
X141702639Y-74352373D01*
X141712629Y-74428257D01*
X141717762Y-74467250D01*
X141732076Y-74501807D01*
X141775811Y-74607393D01*
X141779076Y-74615276D01*
X141784102Y-74621826D01*
X141871585Y-74735834D01*
X141876613Y-74742387D01*
X141883163Y-74747413D01*
X141883166Y-74747416D01*
X141925192Y-74779663D01*
X142003725Y-74839924D01*
X142151750Y-74901238D01*
X142159938Y-74902316D01*
X142266625Y-74916362D01*
X142266632Y-74916362D01*
X142270715Y-74916900D01*
X142272381Y-74916900D01*
X142338512Y-74941122D01*
X142381394Y-74997705D01*
X142389600Y-75042434D01*
X142389600Y-75327261D01*
X142369598Y-75395382D01*
X142357236Y-75411571D01*
X142313760Y-75459856D01*
X142305444Y-75474260D01*
X142228477Y-75607571D01*
X142218273Y-75625244D01*
X142159258Y-75806872D01*
X142158568Y-75813433D01*
X142158568Y-75813435D01*
X142153601Y-75860697D01*
X142139296Y-75996800D01*
X142139986Y-76003365D01*
X142148304Y-76082502D01*
X142159258Y-76186728D01*
X142218273Y-76368356D01*
X142313760Y-76533744D01*
X142441547Y-76675666D01*
X142596048Y-76787918D01*
X142602076Y-76790602D01*
X142602078Y-76790603D01*
X142764481Y-76862909D01*
X142770512Y-76865594D01*
X142863913Y-76885447D01*
X142950856Y-76903928D01*
X142950861Y-76903928D01*
X142957313Y-76905300D01*
X143148287Y-76905300D01*
X143154739Y-76903928D01*
X143154744Y-76903928D01*
X143241687Y-76885447D01*
X143335088Y-76865594D01*
X143341119Y-76862909D01*
X143503522Y-76790603D01*
X143503524Y-76790602D01*
X143509552Y-76787918D01*
X143664053Y-76675666D01*
X143791840Y-76533744D01*
X143887327Y-76368356D01*
X143946342Y-76186728D01*
X143957297Y-76082502D01*
X143965614Y-76003365D01*
X143966304Y-75996800D01*
X143951999Y-75860697D01*
X143947032Y-75813435D01*
X143947032Y-75813433D01*
X143946342Y-75806872D01*
X143887327Y-75625244D01*
X143877124Y-75607571D01*
X143800156Y-75474260D01*
X143791840Y-75459856D01*
X143770301Y-75435934D01*
X143688964Y-75345600D01*
X143658246Y-75281593D01*
X143656600Y-75261290D01*
X143656600Y-75042433D01*
X143676602Y-74974312D01*
X143730258Y-74927819D01*
X143773575Y-74916899D01*
X143775484Y-74916899D01*
X143840225Y-74908376D01*
X143886263Y-74902316D01*
X143886265Y-74902316D01*
X143894450Y-74901238D01*
X144000046Y-74857499D01*
X144034848Y-74843084D01*
X144034850Y-74843083D01*
X144042476Y-74839924D01*
X144103024Y-74793463D01*
X144163036Y-74747414D01*
X144163037Y-74747413D01*
X144169587Y-74742387D01*
X144174614Y-74735836D01*
X144174616Y-74735834D01*
X144248548Y-74639483D01*
X144267124Y-74615275D01*
X144328438Y-74467250D01*
X144333871Y-74425983D01*
X145937835Y-74425983D01*
X145942172Y-74458933D01*
X145946410Y-74474748D01*
X146001353Y-74607393D01*
X146009541Y-74621576D01*
X146096944Y-74735480D01*
X146108520Y-74747056D01*
X146222424Y-74834459D01*
X146236607Y-74842647D01*
X146369250Y-74897590D01*
X146385068Y-74901828D01*
X146491666Y-74915862D01*
X146499875Y-74916400D01*
X147029985Y-74916400D01*
X147045224Y-74911925D01*
X147046429Y-74910535D01*
X147048100Y-74902852D01*
X147048100Y-74898284D01*
X147448100Y-74898284D01*
X147452575Y-74913523D01*
X147453965Y-74914728D01*
X147461648Y-74916399D01*
X147996323Y-74916399D01*
X148004535Y-74915861D01*
X148111133Y-74901828D01*
X148126948Y-74897590D01*
X148259593Y-74842647D01*
X148273776Y-74834459D01*
X148387680Y-74747056D01*
X148399256Y-74735480D01*
X148486659Y-74621576D01*
X148494847Y-74607393D01*
X148549789Y-74474751D01*
X148554028Y-74458931D01*
X148558316Y-74426360D01*
X148556105Y-74412178D01*
X148542948Y-74408400D01*
X147466215Y-74408400D01*
X147450976Y-74412875D01*
X147449771Y-74414265D01*
X147448100Y-74421948D01*
X147448100Y-74898284D01*
X147048100Y-74898284D01*
X147048100Y-74426515D01*
X147043625Y-74411276D01*
X147042235Y-74410071D01*
X147034552Y-74408400D01*
X145953635Y-74408400D01*
X145939864Y-74412444D01*
X145937835Y-74425983D01*
X144333871Y-74425983D01*
X144344100Y-74348285D01*
X144344099Y-74068516D01*
X144342862Y-74059115D01*
X144329516Y-73957737D01*
X144329516Y-73957735D01*
X144328438Y-73949550D01*
X144320740Y-73930965D01*
X144313150Y-73860377D01*
X144320740Y-73834526D01*
X144324789Y-73824751D01*
X144329028Y-73808931D01*
X144333316Y-73776360D01*
X144333257Y-73775983D01*
X145937835Y-73775983D01*
X145942172Y-73808933D01*
X145946409Y-73824745D01*
X145950731Y-73835179D01*
X145958322Y-73905769D01*
X145950731Y-73931621D01*
X145946410Y-73942052D01*
X145942172Y-73957869D01*
X145937884Y-73990440D01*
X145940095Y-74004622D01*
X145953252Y-74008400D01*
X147029985Y-74008400D01*
X147045224Y-74003925D01*
X147046429Y-74002535D01*
X147048100Y-73994852D01*
X147048100Y-73776515D01*
X147043625Y-73761276D01*
X147042235Y-73760071D01*
X147034552Y-73758400D01*
X145953635Y-73758400D01*
X145939864Y-73762444D01*
X145937835Y-73775983D01*
X144333257Y-73775983D01*
X144331105Y-73762178D01*
X144317948Y-73758400D01*
X144296169Y-73758400D01*
X144228048Y-73738398D01*
X144196207Y-73709105D01*
X144169587Y-73674413D01*
X144148668Y-73658361D01*
X144106802Y-73601022D01*
X144102582Y-73530151D01*
X144137347Y-73468248D01*
X144148670Y-73458438D01*
X144163033Y-73447417D01*
X144163037Y-73447413D01*
X144169587Y-73442387D01*
X144196208Y-73407695D01*
X144253546Y-73365828D01*
X144296169Y-73358400D01*
X144317565Y-73358400D01*
X144331336Y-73354356D01*
X144333365Y-73340817D01*
X144329028Y-73307867D01*
X144324790Y-73292052D01*
X144320740Y-73282274D01*
X144313150Y-73211685D01*
X144320740Y-73185834D01*
X144321012Y-73185179D01*
X144328438Y-73167250D01*
X144338157Y-73093424D01*
X144343562Y-73052372D01*
X144343562Y-73052371D01*
X144344100Y-73048285D01*
X144344099Y-72768516D01*
X144343436Y-72763474D01*
X144329516Y-72657737D01*
X144329516Y-72657735D01*
X144328438Y-72649550D01*
X144321011Y-72631619D01*
X144313421Y-72561030D01*
X144321011Y-72535180D01*
X144325278Y-72524880D01*
X144325279Y-72524877D01*
X144328438Y-72517250D01*
X144344100Y-72398285D01*
X144344099Y-72118516D01*
X144339403Y-72082839D01*
X144329516Y-72007737D01*
X144329516Y-72007735D01*
X144328438Y-71999550D01*
X144284671Y-71893886D01*
X144270284Y-71859152D01*
X144270283Y-71859150D01*
X144267124Y-71851524D01*
X144171073Y-71726349D01*
X144145472Y-71660130D01*
X144145035Y-71649645D01*
X144145035Y-71275278D01*
X144165037Y-71207157D01*
X144218693Y-71160664D01*
X144231157Y-71155755D01*
X144238459Y-71153319D01*
X144260546Y-71145950D01*
X144267513Y-71141639D01*
X144404720Y-71056732D01*
X144410948Y-71052878D01*
X144535905Y-70927703D01*
X144565111Y-70880323D01*
X144624875Y-70783368D01*
X144624876Y-70783366D01*
X144628715Y-70777138D01*
X144666475Y-70663294D01*
X144682232Y-70615789D01*
X144682232Y-70615787D01*
X144684397Y-70609261D01*
X144685162Y-70601801D01*
X144689509Y-70559369D01*
X144695100Y-70504800D01*
X144695100Y-70501495D01*
X145478601Y-70501495D01*
X145478938Y-70508014D01*
X145488857Y-70603606D01*
X145491749Y-70617000D01*
X145543188Y-70771184D01*
X145549361Y-70784362D01*
X145634663Y-70922207D01*
X145643699Y-70933608D01*
X145758429Y-71048139D01*
X145769840Y-71057151D01*
X145907843Y-71142216D01*
X145921024Y-71148363D01*
X146075310Y-71199538D01*
X146088686Y-71202405D01*
X146183038Y-71212072D01*
X146189454Y-71212400D01*
X146289485Y-71212400D01*
X146304724Y-71207925D01*
X146305929Y-71206535D01*
X146307600Y-71198852D01*
X146307600Y-71194284D01*
X146815600Y-71194284D01*
X146820075Y-71209523D01*
X146821465Y-71210728D01*
X146829148Y-71212399D01*
X146933695Y-71212399D01*
X146940214Y-71212062D01*
X147035806Y-71202143D01*
X147049200Y-71199251D01*
X147203384Y-71147812D01*
X147216562Y-71141639D01*
X147354407Y-71056337D01*
X147365808Y-71047301D01*
X147480339Y-70932571D01*
X147489351Y-70921160D01*
X147574416Y-70783157D01*
X147580563Y-70769976D01*
X147631738Y-70615690D01*
X147634605Y-70602314D01*
X147644272Y-70507962D01*
X147644600Y-70501546D01*
X147644600Y-70076515D01*
X147640125Y-70061276D01*
X147638735Y-70060071D01*
X147631052Y-70058400D01*
X146833715Y-70058400D01*
X146818476Y-70062875D01*
X146817271Y-70064265D01*
X146815600Y-70071948D01*
X146815600Y-71194284D01*
X146307600Y-71194284D01*
X146307600Y-70076515D01*
X146303125Y-70061276D01*
X146301735Y-70060071D01*
X146294052Y-70058400D01*
X145496716Y-70058400D01*
X145481477Y-70062875D01*
X145480272Y-70064265D01*
X145478601Y-70071948D01*
X145478601Y-70501495D01*
X144695100Y-70501495D01*
X144695100Y-69532285D01*
X145478600Y-69532285D01*
X145483075Y-69547524D01*
X145484465Y-69548729D01*
X145492148Y-69550400D01*
X146289485Y-69550400D01*
X146304724Y-69545925D01*
X146305929Y-69544535D01*
X146307600Y-69536852D01*
X146307600Y-69532285D01*
X146815600Y-69532285D01*
X146820075Y-69547524D01*
X146821465Y-69548729D01*
X146829148Y-69550400D01*
X147626484Y-69550400D01*
X147641723Y-69545925D01*
X147642928Y-69544535D01*
X147644599Y-69536852D01*
X147644599Y-69107305D01*
X147644262Y-69100786D01*
X147634343Y-69005194D01*
X147631451Y-68991800D01*
X147580012Y-68837616D01*
X147573839Y-68824438D01*
X147488537Y-68686593D01*
X147479501Y-68675192D01*
X147364771Y-68560661D01*
X147353360Y-68551649D01*
X147215357Y-68466584D01*
X147202176Y-68460437D01*
X147047890Y-68409262D01*
X147034514Y-68406395D01*
X146940162Y-68396728D01*
X146933745Y-68396400D01*
X146833715Y-68396400D01*
X146818476Y-68400875D01*
X146817271Y-68402265D01*
X146815600Y-68409948D01*
X146815600Y-69532285D01*
X146307600Y-69532285D01*
X146307600Y-68414516D01*
X146303125Y-68399277D01*
X146301735Y-68398072D01*
X146294052Y-68396401D01*
X146189505Y-68396401D01*
X146182986Y-68396738D01*
X146087394Y-68406657D01*
X146074000Y-68409549D01*
X145919816Y-68460988D01*
X145906638Y-68467161D01*
X145768793Y-68552463D01*
X145757392Y-68561499D01*
X145642861Y-68676229D01*
X145633849Y-68687640D01*
X145548784Y-68825643D01*
X145542637Y-68838824D01*
X145491462Y-68993110D01*
X145488595Y-69006486D01*
X145478928Y-69100838D01*
X145478600Y-69107255D01*
X145478600Y-69532285D01*
X144695100Y-69532285D01*
X144695100Y-69104000D01*
X144694075Y-69094123D01*
X144684838Y-69005092D01*
X144684837Y-69005088D01*
X144684126Y-68998234D01*
X144628150Y-68830454D01*
X144535078Y-68680052D01*
X144409903Y-68555095D01*
X144291323Y-68482001D01*
X144265568Y-68466125D01*
X144265566Y-68466124D01*
X144259338Y-68462285D01*
X144179595Y-68435836D01*
X144097989Y-68408768D01*
X144097987Y-68408768D01*
X144091461Y-68406603D01*
X144084625Y-68405903D01*
X144084622Y-68405902D01*
X144041569Y-68401491D01*
X143987000Y-68395900D01*
X143236200Y-68395900D01*
X143232954Y-68396237D01*
X143232950Y-68396237D01*
X143137292Y-68406162D01*
X143137288Y-68406163D01*
X143130434Y-68406874D01*
X143123898Y-68409055D01*
X143123896Y-68409055D01*
X143107528Y-68414516D01*
X142962654Y-68462850D01*
X142812252Y-68555922D01*
X142687295Y-68681097D01*
X142594485Y-68831662D01*
X142590841Y-68842649D01*
X142551752Y-68960500D01*
X142538803Y-68999539D01*
X142528100Y-69104000D01*
X142528100Y-69362898D01*
X142508098Y-69431019D01*
X142491195Y-69451993D01*
X142412190Y-69530998D01*
X142402047Y-69540099D01*
X142371421Y-69564723D01*
X142367460Y-69569444D01*
X142338140Y-69604385D01*
X142334961Y-69608029D01*
X142333037Y-69610151D01*
X142330855Y-69612333D01*
X142328897Y-69614717D01*
X142302706Y-69646602D01*
X142301864Y-69647617D01*
X142244622Y-69715836D01*
X142240140Y-69721177D01*
X142237488Y-69726001D01*
X142233997Y-69730251D01*
X142188596Y-69814924D01*
X142188051Y-69815926D01*
X142144722Y-69894740D01*
X142144718Y-69894750D01*
X142141749Y-69900150D01*
X142140085Y-69905397D01*
X142137485Y-69910245D01*
X142135682Y-69916143D01*
X142135681Y-69916145D01*
X142109436Y-70001990D01*
X142109044Y-70003250D01*
X142085803Y-70076515D01*
X142079994Y-70094826D01*
X142079380Y-70100296D01*
X142077772Y-70105557D01*
X142068079Y-70200989D01*
X142067941Y-70202285D01*
X142062165Y-70253775D01*
X142062165Y-70257299D01*
X142062087Y-70258693D01*
X142061638Y-70264393D01*
X142057755Y-70302618D01*
X142057755Y-70302624D01*
X142057133Y-70308747D01*
X142057713Y-70314878D01*
X142061606Y-70356067D01*
X142062165Y-70367924D01*
X142062165Y-71246011D01*
X142042163Y-71314132D01*
X141988507Y-71360625D01*
X141918233Y-71370729D01*
X141884916Y-71361118D01*
X141789165Y-71318487D01*
X141789164Y-71318487D01*
X141783134Y-71315802D01*
X141689733Y-71295949D01*
X141602790Y-71277468D01*
X141602785Y-71277468D01*
X141596333Y-71276096D01*
X141405359Y-71276096D01*
X141398907Y-71277468D01*
X141398902Y-71277468D01*
X141311959Y-71295949D01*
X141218558Y-71315802D01*
X141212528Y-71318487D01*
X141212527Y-71318487D01*
X141050124Y-71390793D01*
X141050122Y-71390794D01*
X141044094Y-71393478D01*
X141038753Y-71397358D01*
X141038752Y-71397359D01*
X141020767Y-71410426D01*
X140889593Y-71505730D01*
X140885172Y-71510640D01*
X140885171Y-71510641D01*
X140775985Y-71631905D01*
X140761806Y-71647652D01*
X140729598Y-71703438D01*
X140678217Y-71752430D01*
X140608504Y-71765867D01*
X140542593Y-71739480D01*
X140531385Y-71729532D01*
X140370405Y-71568552D01*
X140336379Y-71506240D01*
X140333500Y-71479457D01*
X140333500Y-63948524D01*
X140353502Y-63880403D01*
X140365858Y-63864221D01*
X140439040Y-63782944D01*
X140534527Y-63617556D01*
X140593542Y-63435928D01*
X140613504Y-63246000D01*
X140593542Y-63056072D01*
X140534527Y-62874444D01*
X140439040Y-62709056D01*
X140365863Y-62627785D01*
X140335147Y-62563779D01*
X140333500Y-62543476D01*
X140333500Y-60646871D01*
X140353502Y-60578750D01*
X140369752Y-60564669D01*
X141342001Y-60564669D01*
X141342371Y-60571490D01*
X141347895Y-60622352D01*
X141351521Y-60637604D01*
X141396676Y-60758054D01*
X141405214Y-60773649D01*
X141481715Y-60875724D01*
X141494276Y-60888285D01*
X141596351Y-60964786D01*
X141611946Y-60973324D01*
X141732394Y-61018478D01*
X141747649Y-61022105D01*
X141798514Y-61027631D01*
X141805328Y-61028000D01*
X142252885Y-61028000D01*
X142268124Y-61023525D01*
X142269329Y-61022135D01*
X142271000Y-61014452D01*
X142271000Y-61009884D01*
X142779000Y-61009884D01*
X142783475Y-61025123D01*
X142784865Y-61026328D01*
X142792548Y-61027999D01*
X143244669Y-61027999D01*
X143251490Y-61027629D01*
X143302352Y-61022105D01*
X143317604Y-61018479D01*
X143438054Y-60973324D01*
X143453649Y-60964786D01*
X143555724Y-60888285D01*
X143568285Y-60875724D01*
X143644786Y-60773649D01*
X143653324Y-60758054D01*
X143698478Y-60637606D01*
X143702105Y-60622351D01*
X143707631Y-60571486D01*
X143708000Y-60564672D01*
X143708000Y-60564669D01*
X156393001Y-60564669D01*
X156393371Y-60571490D01*
X156398895Y-60622352D01*
X156402521Y-60637604D01*
X156447676Y-60758054D01*
X156456214Y-60773649D01*
X156532715Y-60875724D01*
X156545276Y-60888285D01*
X156647351Y-60964786D01*
X156662946Y-60973324D01*
X156783394Y-61018478D01*
X156798649Y-61022105D01*
X156849514Y-61027631D01*
X156856328Y-61028000D01*
X157303885Y-61028000D01*
X157319124Y-61023525D01*
X157320329Y-61022135D01*
X157322000Y-61014452D01*
X157322000Y-61009884D01*
X157830000Y-61009884D01*
X157834475Y-61025123D01*
X157835865Y-61026328D01*
X157843548Y-61027999D01*
X158295669Y-61027999D01*
X158302490Y-61027629D01*
X158353352Y-61022105D01*
X158368604Y-61018479D01*
X158489054Y-60973324D01*
X158504649Y-60964786D01*
X158606724Y-60888285D01*
X158619285Y-60875724D01*
X158695786Y-60773649D01*
X158704324Y-60758054D01*
X158749478Y-60637606D01*
X158753105Y-60622351D01*
X158758631Y-60571486D01*
X158759000Y-60564672D01*
X158759000Y-58692115D01*
X158754525Y-58676876D01*
X158753135Y-58675671D01*
X158745452Y-58674000D01*
X157848115Y-58674000D01*
X157832876Y-58678475D01*
X157831671Y-58679865D01*
X157830000Y-58687548D01*
X157830000Y-61009884D01*
X157322000Y-61009884D01*
X157322000Y-58692115D01*
X157317525Y-58676876D01*
X157316135Y-58675671D01*
X157308452Y-58674000D01*
X156411116Y-58674000D01*
X156395877Y-58678475D01*
X156394672Y-58679865D01*
X156393001Y-58687548D01*
X156393001Y-60564669D01*
X143708000Y-60564669D01*
X143708000Y-58692115D01*
X143703525Y-58676876D01*
X143702135Y-58675671D01*
X143694452Y-58674000D01*
X142797115Y-58674000D01*
X142781876Y-58678475D01*
X142780671Y-58679865D01*
X142779000Y-58687548D01*
X142779000Y-61009884D01*
X142271000Y-61009884D01*
X142271000Y-58692115D01*
X142266525Y-58676876D01*
X142265135Y-58675671D01*
X142257452Y-58674000D01*
X141360116Y-58674000D01*
X141344877Y-58678475D01*
X141343672Y-58679865D01*
X141342001Y-58687548D01*
X141342001Y-60564669D01*
X140369752Y-60564669D01*
X140407158Y-60532257D01*
X140430354Y-60524288D01*
X140437459Y-60522598D01*
X140445316Y-60521745D01*
X140581705Y-60470615D01*
X140698261Y-60383261D01*
X140785615Y-60266705D01*
X140836745Y-60130316D01*
X140843500Y-60068134D01*
X140843500Y-56768000D01*
X140863502Y-56699879D01*
X140917158Y-56653386D01*
X140969500Y-56642000D01*
X141216000Y-56642000D01*
X141284121Y-56662002D01*
X141330614Y-56715658D01*
X141342000Y-56768000D01*
X141342000Y-58147885D01*
X141346475Y-58163124D01*
X141347865Y-58164329D01*
X141355548Y-58166000D01*
X143689884Y-58166000D01*
X143705123Y-58161525D01*
X143706328Y-58160135D01*
X143707999Y-58152452D01*
X143707999Y-56768000D01*
X143728001Y-56699879D01*
X143781657Y-56653386D01*
X143833999Y-56642000D01*
X156267000Y-56642000D01*
X156335121Y-56662002D01*
X156381614Y-56715658D01*
X156393000Y-56768000D01*
X156393000Y-58147885D01*
X156397475Y-58163124D01*
X156398865Y-58164329D01*
X156406548Y-58166000D01*
X158740884Y-58166000D01*
X158756123Y-58161525D01*
X158757328Y-58160135D01*
X158758999Y-58152452D01*
X158758999Y-56768000D01*
X158779001Y-56699879D01*
X158832657Y-56653386D01*
X158884999Y-56642000D01*
X159131500Y-56642000D01*
X159199621Y-56662002D01*
X159246114Y-56715658D01*
X159257500Y-56768000D01*
X159257500Y-60068134D01*
X159264255Y-60130316D01*
X159315385Y-60266705D01*
X159402739Y-60383261D01*
X159519295Y-60470615D01*
X159655684Y-60521745D01*
X159663541Y-60522598D01*
X159670646Y-60524288D01*
X159732293Y-60559506D01*
X159765113Y-60622461D01*
X159767500Y-60646871D01*
X159767500Y-61151328D01*
X159766973Y-61162511D01*
X159765298Y-61170004D01*
X159765547Y-61177930D01*
X159765547Y-61177931D01*
X159767438Y-61238081D01*
X159767500Y-61242040D01*
X159767500Y-61269951D01*
X159767997Y-61273885D01*
X159767997Y-61273886D01*
X159768005Y-61273951D01*
X159768938Y-61285788D01*
X159770327Y-61329984D01*
X159775978Y-61349434D01*
X159779987Y-61368795D01*
X159782526Y-61388892D01*
X159785445Y-61396263D01*
X159785445Y-61396265D01*
X159798804Y-61430007D01*
X159802649Y-61441237D01*
X159814982Y-61483688D01*
X159819015Y-61490507D01*
X159819017Y-61490512D01*
X159825293Y-61501123D01*
X159833988Y-61518871D01*
X159841448Y-61537712D01*
X159846110Y-61544128D01*
X159846110Y-61544129D01*
X159867436Y-61573482D01*
X159873952Y-61583402D01*
X159896458Y-61621457D01*
X159910779Y-61635778D01*
X159923619Y-61650811D01*
X159935528Y-61667202D01*
X159941634Y-61672253D01*
X159969605Y-61695393D01*
X159978384Y-61703383D01*
X164519595Y-66244595D01*
X164553621Y-66306907D01*
X164556500Y-66333690D01*
X164556500Y-71101500D01*
X164536498Y-71169621D01*
X164482842Y-71216114D01*
X164430500Y-71227500D01*
X164242513Y-71227500D01*
X164236061Y-71228872D01*
X164236056Y-71228872D01*
X164055712Y-71267206D01*
X164055133Y-71264482D01*
X163996419Y-71266133D01*
X163935637Y-71229444D01*
X163904554Y-71166922D01*
X163904370Y-71165914D01*
X163903865Y-71159496D01*
X163859069Y-71005307D01*
X163816667Y-70933608D01*
X163781369Y-70873923D01*
X163777335Y-70867102D01*
X163663798Y-70753565D01*
X163525593Y-70671831D01*
X163517982Y-70669620D01*
X163517980Y-70669619D01*
X163377581Y-70628829D01*
X163377576Y-70628828D01*
X163371404Y-70627035D01*
X163349781Y-70625333D01*
X163337838Y-70624393D01*
X163337829Y-70624393D01*
X163335381Y-70624200D01*
X162002280Y-70624200D01*
X160667020Y-70624201D01*
X160647777Y-70625715D01*
X160637414Y-70626530D01*
X160637413Y-70626530D01*
X160630996Y-70627035D01*
X160624816Y-70628830D01*
X160624813Y-70628831D01*
X160484420Y-70669619D01*
X160484418Y-70669620D01*
X160476807Y-70671831D01*
X160338602Y-70753565D01*
X160225065Y-70867102D01*
X160221031Y-70873923D01*
X160185734Y-70933608D01*
X160143331Y-71005307D01*
X160141120Y-71012918D01*
X160141119Y-71012920D01*
X160100329Y-71153319D01*
X160100328Y-71153324D01*
X160098535Y-71159496D01*
X160096833Y-71181119D01*
X160095894Y-71193056D01*
X160095700Y-71195519D01*
X160095701Y-72974880D01*
X160095895Y-72977344D01*
X160097683Y-73000068D01*
X160098535Y-73010904D01*
X160100330Y-73017081D01*
X160100331Y-73017087D01*
X160137359Y-73144538D01*
X160143331Y-73165093D01*
X160147366Y-73171915D01*
X160147366Y-73171916D01*
X160217828Y-73291061D01*
X160235287Y-73359877D01*
X160217828Y-73419339D01*
X160151142Y-73532100D01*
X160143331Y-73545307D01*
X160141120Y-73552918D01*
X160141119Y-73552920D01*
X160100329Y-73693319D01*
X160100328Y-73693324D01*
X160098535Y-73699496D01*
X160097779Y-73709105D01*
X160095894Y-73733056D01*
X160095700Y-73735519D01*
X160095701Y-75514880D01*
X160098535Y-75550904D01*
X160100330Y-75557081D01*
X160100331Y-75557087D01*
X160136071Y-75680105D01*
X160143331Y-75705093D01*
X160147366Y-75711915D01*
X160147366Y-75711916D01*
X160217828Y-75831061D01*
X160235287Y-75899877D01*
X160217828Y-75959339D01*
X160169664Y-76040781D01*
X160143331Y-76085307D01*
X160141120Y-76092918D01*
X160141119Y-76092920D01*
X160100329Y-76233319D01*
X160100328Y-76233324D01*
X160098535Y-76239496D01*
X160097592Y-76251478D01*
X160096048Y-76271100D01*
X160095700Y-76275519D01*
X160095701Y-78054880D01*
X160098535Y-78090904D01*
X160100330Y-78097081D01*
X160100331Y-78097087D01*
X160132225Y-78206866D01*
X160143331Y-78245093D01*
X160147366Y-78251915D01*
X160147366Y-78251916D01*
X160220968Y-78376370D01*
X160225065Y-78383298D01*
X160338602Y-78496835D01*
X160476807Y-78578569D01*
X160484418Y-78580780D01*
X160484420Y-78580781D01*
X160624819Y-78621571D01*
X160624824Y-78621572D01*
X160630996Y-78623365D01*
X160652619Y-78625067D01*
X160664562Y-78626007D01*
X160664571Y-78626007D01*
X160667019Y-78626200D01*
X162000120Y-78626200D01*
X163335380Y-78626199D01*
X163354623Y-78624685D01*
X163364986Y-78623870D01*
X163364987Y-78623870D01*
X163371404Y-78623365D01*
X163377584Y-78621570D01*
X163377587Y-78621569D01*
X163517980Y-78580781D01*
X163517982Y-78580780D01*
X163525593Y-78578569D01*
X163663798Y-78496835D01*
X163777335Y-78383298D01*
X163781432Y-78376370D01*
X163855034Y-78251916D01*
X163855034Y-78251915D01*
X163859069Y-78245093D01*
X163870175Y-78206866D01*
X163902071Y-78097081D01*
X163902072Y-78097076D01*
X163903865Y-78090904D01*
X163905567Y-78069281D01*
X163906507Y-78057338D01*
X163906507Y-78057329D01*
X163906700Y-78054881D01*
X163906700Y-77470594D01*
X163926702Y-77402473D01*
X163943605Y-77381499D01*
X165582247Y-75742857D01*
X165590537Y-75735313D01*
X165597018Y-75731200D01*
X165613868Y-75713257D01*
X165643658Y-75681533D01*
X165646413Y-75678691D01*
X165666135Y-75658969D01*
X165668612Y-75655776D01*
X165676317Y-75646755D01*
X165692628Y-75629385D01*
X165706586Y-75614521D01*
X165710407Y-75607571D01*
X165716346Y-75596768D01*
X165727202Y-75580241D01*
X165734757Y-75570502D01*
X165734758Y-75570500D01*
X165739614Y-75564240D01*
X165757174Y-75523660D01*
X165762391Y-75513012D01*
X165779875Y-75481209D01*
X165779876Y-75481207D01*
X165783695Y-75474260D01*
X165785926Y-75465574D01*
X165788067Y-75457231D01*
X165788733Y-75454637D01*
X165795137Y-75435934D01*
X165800033Y-75424620D01*
X165800033Y-75424619D01*
X165803181Y-75417345D01*
X165804420Y-75409522D01*
X165804423Y-75409512D01*
X165810099Y-75373676D01*
X165812505Y-75362056D01*
X165821528Y-75326911D01*
X165821528Y-75326910D01*
X165823500Y-75319230D01*
X165823500Y-75298976D01*
X165825051Y-75279265D01*
X165826980Y-75267086D01*
X165828220Y-75259257D01*
X165824059Y-75215238D01*
X165823500Y-75203381D01*
X165823500Y-67998669D01*
X180526001Y-67998669D01*
X180526371Y-68005490D01*
X180531895Y-68056352D01*
X180535521Y-68071604D01*
X180580676Y-68192054D01*
X180589214Y-68207649D01*
X180665715Y-68309724D01*
X180678276Y-68322285D01*
X180780351Y-68398786D01*
X180795946Y-68407324D01*
X180916394Y-68452478D01*
X180931649Y-68456105D01*
X180982514Y-68461631D01*
X180989328Y-68462000D01*
X182861885Y-68462000D01*
X182877124Y-68457525D01*
X182878329Y-68456135D01*
X182880000Y-68448452D01*
X182880000Y-67551115D01*
X182875525Y-67535876D01*
X182874135Y-67534671D01*
X182866452Y-67533000D01*
X180544116Y-67533000D01*
X180528877Y-67537475D01*
X180527672Y-67538865D01*
X180526001Y-67546548D01*
X180526001Y-67998669D01*
X165823500Y-67998669D01*
X165823500Y-67006885D01*
X180526000Y-67006885D01*
X180530475Y-67022124D01*
X180531865Y-67023329D01*
X180539548Y-67025000D01*
X182861885Y-67025000D01*
X182877124Y-67020525D01*
X182878329Y-67019135D01*
X182880000Y-67011452D01*
X182880000Y-66114116D01*
X182875525Y-66098877D01*
X182874135Y-66097672D01*
X182866452Y-66096001D01*
X180989331Y-66096001D01*
X180982510Y-66096371D01*
X180931648Y-66101895D01*
X180916396Y-66105521D01*
X180795946Y-66150676D01*
X180780351Y-66159214D01*
X180678276Y-66235715D01*
X180665715Y-66248276D01*
X180589214Y-66350351D01*
X180580676Y-66365946D01*
X180535522Y-66486394D01*
X180531895Y-66501649D01*
X180526369Y-66552514D01*
X180526000Y-66559328D01*
X180526000Y-67006885D01*
X165823500Y-67006885D01*
X165823500Y-66097863D01*
X165824027Y-66086680D01*
X165825702Y-66079187D01*
X165823562Y-66011096D01*
X165823500Y-66007139D01*
X165823500Y-65979239D01*
X165822996Y-65975248D01*
X165822063Y-65963406D01*
X165820923Y-65927131D01*
X165820674Y-65919206D01*
X165818462Y-65911592D01*
X165818461Y-65911587D01*
X165815023Y-65899754D01*
X165811012Y-65880390D01*
X165809467Y-65868159D01*
X165808474Y-65860298D01*
X165805557Y-65852931D01*
X165805556Y-65852926D01*
X165792198Y-65819187D01*
X165788354Y-65807960D01*
X165778230Y-65773117D01*
X165776018Y-65765502D01*
X165765707Y-65748067D01*
X165757012Y-65730319D01*
X165749552Y-65711478D01*
X165723564Y-65675708D01*
X165717048Y-65665788D01*
X165698580Y-65634560D01*
X165698578Y-65634557D01*
X165694542Y-65627733D01*
X165680221Y-65613412D01*
X165667380Y-65598378D01*
X165660131Y-65588401D01*
X165655472Y-65581988D01*
X165621395Y-65553797D01*
X165612616Y-65545807D01*
X161071405Y-61004595D01*
X161037379Y-60942283D01*
X161034500Y-60915500D01*
X161034500Y-60646871D01*
X161054502Y-60578750D01*
X161070752Y-60564669D01*
X162043001Y-60564669D01*
X162043371Y-60571490D01*
X162048895Y-60622352D01*
X162052521Y-60637604D01*
X162097676Y-60758054D01*
X162106214Y-60773649D01*
X162182715Y-60875724D01*
X162195276Y-60888285D01*
X162297351Y-60964786D01*
X162312946Y-60973324D01*
X162433394Y-61018478D01*
X162448649Y-61022105D01*
X162499514Y-61027631D01*
X162506328Y-61028000D01*
X162953885Y-61028000D01*
X162969124Y-61023525D01*
X162970329Y-61022135D01*
X162972000Y-61014452D01*
X162972000Y-61009884D01*
X163480000Y-61009884D01*
X163484475Y-61025123D01*
X163485865Y-61026328D01*
X163493548Y-61027999D01*
X163945669Y-61027999D01*
X163952490Y-61027629D01*
X164003352Y-61022105D01*
X164018604Y-61018479D01*
X164139054Y-60973324D01*
X164154649Y-60964786D01*
X164256724Y-60888285D01*
X164269285Y-60875724D01*
X164345786Y-60773649D01*
X164354324Y-60758054D01*
X164399478Y-60637606D01*
X164403105Y-60622351D01*
X164408631Y-60571486D01*
X164409000Y-60564672D01*
X164409000Y-60564669D01*
X172932001Y-60564669D01*
X172932371Y-60571490D01*
X172937895Y-60622352D01*
X172941521Y-60637604D01*
X172986676Y-60758054D01*
X172995214Y-60773649D01*
X173071715Y-60875724D01*
X173084276Y-60888285D01*
X173186351Y-60964786D01*
X173201946Y-60973324D01*
X173322394Y-61018478D01*
X173337649Y-61022105D01*
X173388514Y-61027631D01*
X173395328Y-61028000D01*
X173842885Y-61028000D01*
X173858124Y-61023525D01*
X173859329Y-61022135D01*
X173861000Y-61014452D01*
X173861000Y-58692115D01*
X173856525Y-58676876D01*
X173855135Y-58675671D01*
X173847452Y-58674000D01*
X172950116Y-58674000D01*
X172934877Y-58678475D01*
X172933672Y-58679865D01*
X172932001Y-58687548D01*
X172932001Y-60564669D01*
X164409000Y-60564669D01*
X164409000Y-58692115D01*
X164404525Y-58676876D01*
X164403135Y-58675671D01*
X164395452Y-58674000D01*
X163498115Y-58674000D01*
X163482876Y-58678475D01*
X163481671Y-58679865D01*
X163480000Y-58687548D01*
X163480000Y-61009884D01*
X162972000Y-61009884D01*
X162972000Y-58692115D01*
X162967525Y-58676876D01*
X162966135Y-58675671D01*
X162958452Y-58674000D01*
X162061116Y-58674000D01*
X162045877Y-58678475D01*
X162044672Y-58679865D01*
X162043001Y-58687548D01*
X162043001Y-60564669D01*
X161070752Y-60564669D01*
X161108158Y-60532257D01*
X161131354Y-60524288D01*
X161138459Y-60522598D01*
X161146316Y-60521745D01*
X161282705Y-60470615D01*
X161399261Y-60383261D01*
X161486615Y-60266705D01*
X161537745Y-60130316D01*
X161544500Y-60068134D01*
X161544500Y-56768000D01*
X161564502Y-56699879D01*
X161618158Y-56653386D01*
X161670500Y-56642000D01*
X161917000Y-56642000D01*
X161985121Y-56662002D01*
X162031614Y-56715658D01*
X162043000Y-56768000D01*
X162043000Y-58147885D01*
X162047475Y-58163124D01*
X162048865Y-58164329D01*
X162056548Y-58166000D01*
X164390884Y-58166000D01*
X164406123Y-58161525D01*
X164407328Y-58160135D01*
X164408999Y-58152452D01*
X164408999Y-56768000D01*
X164429001Y-56699879D01*
X164482657Y-56653386D01*
X164534999Y-56642000D01*
X172806000Y-56642000D01*
X172874121Y-56662002D01*
X172920614Y-56715658D01*
X172932000Y-56768000D01*
X172932000Y-58147885D01*
X172936475Y-58163124D01*
X172937865Y-58164329D01*
X172945548Y-58166000D01*
X175279884Y-58166000D01*
X175295123Y-58161525D01*
X175296328Y-58160135D01*
X175297999Y-58152452D01*
X175297999Y-56768000D01*
X175318001Y-56699879D01*
X175371657Y-56653386D01*
X175423999Y-56642000D01*
X175670500Y-56642000D01*
X175738621Y-56662002D01*
X175785114Y-56715658D01*
X175796500Y-56768000D01*
X175796500Y-59983405D01*
X175776498Y-60051526D01*
X175759595Y-60072500D01*
X175513095Y-60319000D01*
X175450783Y-60353026D01*
X175379968Y-60347961D01*
X175323132Y-60305414D01*
X175298321Y-60238894D01*
X175298000Y-60229905D01*
X175298000Y-58692115D01*
X175293525Y-58676876D01*
X175292135Y-58675671D01*
X175284452Y-58674000D01*
X174387115Y-58674000D01*
X174371876Y-58678475D01*
X174370671Y-58679865D01*
X174369000Y-58687548D01*
X174369000Y-61009884D01*
X174373475Y-61025123D01*
X174374865Y-61026328D01*
X174382548Y-61027999D01*
X174499906Y-61027999D01*
X174568027Y-61048001D01*
X174614520Y-61101657D01*
X174624624Y-61171931D01*
X174595130Y-61236511D01*
X174589001Y-61243094D01*
X173531500Y-62300595D01*
X173469188Y-62334621D01*
X173442405Y-62337500D01*
X173386513Y-62337500D01*
X173380061Y-62338872D01*
X173380056Y-62338872D01*
X173293112Y-62357353D01*
X173199712Y-62377206D01*
X173193682Y-62379891D01*
X173193681Y-62379891D01*
X173031278Y-62452197D01*
X173031276Y-62452198D01*
X173025248Y-62454882D01*
X172870747Y-62567134D01*
X172742960Y-62709056D01*
X172647473Y-62874444D01*
X172588458Y-63056072D01*
X172568496Y-63246000D01*
X172588458Y-63435928D01*
X172647473Y-63617556D01*
X172742960Y-63782944D01*
X172870747Y-63924866D01*
X173025248Y-64037118D01*
X173031276Y-64039802D01*
X173031278Y-64039803D01*
X173193681Y-64112109D01*
X173199712Y-64114794D01*
X173293113Y-64134647D01*
X173380056Y-64153128D01*
X173380061Y-64153128D01*
X173386513Y-64154500D01*
X173577487Y-64154500D01*
X173583939Y-64153128D01*
X173583944Y-64153128D01*
X173670887Y-64134647D01*
X173764288Y-64114794D01*
X173770319Y-64112109D01*
X173932722Y-64039803D01*
X173932724Y-64039802D01*
X173938752Y-64037118D01*
X174093253Y-63924866D01*
X174221040Y-63782944D01*
X174316527Y-63617556D01*
X174375542Y-63435928D01*
X174392907Y-63270706D01*
X174419920Y-63205050D01*
X174429122Y-63194782D01*
X177058499Y-60565405D01*
X177059847Y-60564669D01*
X178582001Y-60564669D01*
X178582371Y-60571490D01*
X178587895Y-60622352D01*
X178591521Y-60637604D01*
X178636676Y-60758054D01*
X178645214Y-60773649D01*
X178721715Y-60875724D01*
X178734276Y-60888285D01*
X178836351Y-60964786D01*
X178851946Y-60973324D01*
X178972394Y-61018478D01*
X178987649Y-61022105D01*
X179038514Y-61027631D01*
X179045328Y-61028000D01*
X179492885Y-61028000D01*
X179508124Y-61023525D01*
X179509329Y-61022135D01*
X179511000Y-61014452D01*
X179511000Y-61009884D01*
X180019000Y-61009884D01*
X180023475Y-61025123D01*
X180024865Y-61026328D01*
X180032548Y-61027999D01*
X180484669Y-61027999D01*
X180491490Y-61027629D01*
X180542352Y-61022105D01*
X180557604Y-61018479D01*
X180678054Y-60973324D01*
X180693649Y-60964786D01*
X180795724Y-60888285D01*
X180808285Y-60875724D01*
X180884786Y-60773649D01*
X180893324Y-60758054D01*
X180938478Y-60637606D01*
X180942105Y-60622351D01*
X180947631Y-60571486D01*
X180948000Y-60564672D01*
X180948000Y-58692115D01*
X180943525Y-58676876D01*
X180942135Y-58675671D01*
X180934452Y-58674000D01*
X180037115Y-58674000D01*
X180021876Y-58678475D01*
X180020671Y-58679865D01*
X180019000Y-58687548D01*
X180019000Y-61009884D01*
X179511000Y-61009884D01*
X179511000Y-58692115D01*
X179506525Y-58676876D01*
X179505135Y-58675671D01*
X179497452Y-58674000D01*
X178600116Y-58674000D01*
X178584877Y-58678475D01*
X178583672Y-58679865D01*
X178582001Y-58687548D01*
X178582001Y-60564669D01*
X177059847Y-60564669D01*
X177120811Y-60531379D01*
X177147594Y-60528500D01*
X177623134Y-60528500D01*
X177685316Y-60521745D01*
X177821705Y-60470615D01*
X177938261Y-60383261D01*
X178025615Y-60266705D01*
X178076745Y-60130316D01*
X178083500Y-60068134D01*
X178083500Y-56768000D01*
X178103502Y-56699879D01*
X178157158Y-56653386D01*
X178209500Y-56642000D01*
X178456000Y-56642000D01*
X178524121Y-56662002D01*
X178570614Y-56715658D01*
X178582000Y-56768000D01*
X178582000Y-58147885D01*
X178586475Y-58163124D01*
X178587865Y-58164329D01*
X178595548Y-58166000D01*
X180929884Y-58166000D01*
X180945123Y-58161525D01*
X180946328Y-58160135D01*
X180947999Y-58152452D01*
X180947999Y-56768000D01*
X180968001Y-56699879D01*
X181021657Y-56653386D01*
X181073999Y-56642000D01*
X184786000Y-56642000D01*
X184854121Y-56662002D01*
X184900614Y-56715658D01*
X184912000Y-56768000D01*
X184912000Y-65970000D01*
X184891998Y-66038121D01*
X184838342Y-66084614D01*
X184786000Y-66096000D01*
X183406115Y-66096000D01*
X183390876Y-66100475D01*
X183389671Y-66101865D01*
X183388000Y-66109548D01*
X183388000Y-68443884D01*
X183392475Y-68459123D01*
X183393865Y-68460328D01*
X183401548Y-68461999D01*
X184786000Y-68461999D01*
X184854121Y-68482001D01*
X184900614Y-68535657D01*
X184912000Y-68587999D01*
X184912000Y-68834500D01*
X184891998Y-68902621D01*
X184838342Y-68949114D01*
X184786000Y-68960500D01*
X181485866Y-68960500D01*
X181423684Y-68967255D01*
X181287295Y-69018385D01*
X181170739Y-69105739D01*
X181083385Y-69222295D01*
X181032255Y-69358684D01*
X181025500Y-69420866D01*
X181025500Y-69638806D01*
X181005498Y-69706927D01*
X180988595Y-69727901D01*
X170919700Y-79796795D01*
X170857388Y-79830821D01*
X170830605Y-79833700D01*
X156535036Y-79833700D01*
X156466915Y-79813698D01*
X156445941Y-79796795D01*
X148785146Y-72136000D01*
X153264496Y-72136000D01*
X153265186Y-72142565D01*
X153282505Y-72307343D01*
X153284458Y-72325928D01*
X153343473Y-72507556D01*
X153438960Y-72672944D01*
X153443378Y-72677851D01*
X153443379Y-72677852D01*
X153544689Y-72790368D01*
X153566747Y-72814866D01*
X153646160Y-72872563D01*
X153688576Y-72903380D01*
X153721248Y-72927118D01*
X153727276Y-72929802D01*
X153727278Y-72929803D01*
X153885097Y-73000068D01*
X153895712Y-73004794D01*
X153988407Y-73024497D01*
X154076056Y-73043128D01*
X154076061Y-73043128D01*
X154082513Y-73044500D01*
X154273487Y-73044500D01*
X154279939Y-73043128D01*
X154279944Y-73043128D01*
X154367593Y-73024497D01*
X154460288Y-73004794D01*
X154470903Y-73000068D01*
X154628722Y-72929803D01*
X154628724Y-72929802D01*
X154634752Y-72927118D01*
X154667425Y-72903380D01*
X154709840Y-72872563D01*
X154789253Y-72814866D01*
X154796064Y-72807302D01*
X154797830Y-72806214D01*
X154798577Y-72805541D01*
X154798700Y-72805678D01*
X154856507Y-72770061D01*
X154927491Y-72771410D01*
X154986476Y-72810922D01*
X155014737Y-72876052D01*
X155015701Y-72891610D01*
X155015701Y-72974880D01*
X155015895Y-72977344D01*
X155017683Y-73000068D01*
X155018535Y-73010904D01*
X155020330Y-73017081D01*
X155020331Y-73017087D01*
X155057359Y-73144538D01*
X155063331Y-73165093D01*
X155067366Y-73171915D01*
X155067366Y-73171916D01*
X155137828Y-73291061D01*
X155155287Y-73359877D01*
X155137828Y-73419339D01*
X155071142Y-73532100D01*
X155063331Y-73545307D01*
X155061120Y-73552918D01*
X155061119Y-73552920D01*
X155020329Y-73693319D01*
X155020328Y-73693324D01*
X155018535Y-73699496D01*
X155017779Y-73709105D01*
X155015894Y-73733056D01*
X155015700Y-73735519D01*
X155015701Y-75514880D01*
X155018535Y-75550904D01*
X155020330Y-75557081D01*
X155020331Y-75557087D01*
X155056071Y-75680105D01*
X155063331Y-75705093D01*
X155067366Y-75711915D01*
X155067366Y-75711916D01*
X155103328Y-75772725D01*
X155145065Y-75843298D01*
X155258602Y-75956835D01*
X155265423Y-75960869D01*
X155321851Y-75994240D01*
X155396807Y-76038569D01*
X155404418Y-76040780D01*
X155404420Y-76040781D01*
X155544819Y-76081571D01*
X155544824Y-76081572D01*
X155550996Y-76083365D01*
X155572619Y-76085067D01*
X155584562Y-76086007D01*
X155584571Y-76086007D01*
X155587019Y-76086200D01*
X156920120Y-76086200D01*
X158255380Y-76086199D01*
X158274623Y-76084685D01*
X158284986Y-76083870D01*
X158284987Y-76083870D01*
X158291404Y-76083365D01*
X158297584Y-76081570D01*
X158297587Y-76081569D01*
X158437980Y-76040781D01*
X158437982Y-76040780D01*
X158445593Y-76038569D01*
X158520550Y-75994240D01*
X158576977Y-75960869D01*
X158583798Y-75956835D01*
X158697335Y-75843298D01*
X158739072Y-75772725D01*
X158775034Y-75711916D01*
X158775034Y-75711915D01*
X158779069Y-75705093D01*
X158786329Y-75680105D01*
X158822071Y-75557081D01*
X158822072Y-75557076D01*
X158823865Y-75550904D01*
X158826438Y-75518214D01*
X158826507Y-75517338D01*
X158826507Y-75517329D01*
X158826700Y-75514881D01*
X158826699Y-73735520D01*
X158823865Y-73699496D01*
X158809099Y-73648669D01*
X158781281Y-73552920D01*
X158781280Y-73552918D01*
X158779069Y-73545307D01*
X158771259Y-73532100D01*
X158704572Y-73419339D01*
X158687113Y-73350523D01*
X158704572Y-73291061D01*
X158775034Y-73171916D01*
X158775034Y-73171915D01*
X158779069Y-73165093D01*
X158785041Y-73144538D01*
X158822071Y-73017081D01*
X158822072Y-73017076D01*
X158823865Y-73010904D01*
X158825754Y-72986901D01*
X158826507Y-72977338D01*
X158826507Y-72977329D01*
X158826700Y-72974881D01*
X158826699Y-71195520D01*
X158823865Y-71159496D01*
X158820603Y-71148266D01*
X158781281Y-71012920D01*
X158781280Y-71012918D01*
X158779069Y-71005307D01*
X158736667Y-70933608D01*
X158701369Y-70873923D01*
X158697335Y-70867102D01*
X158583798Y-70753565D01*
X158445593Y-70671831D01*
X158437982Y-70669620D01*
X158437980Y-70669619D01*
X158297581Y-70628829D01*
X158297576Y-70628828D01*
X158291404Y-70627035D01*
X158269781Y-70625333D01*
X158257838Y-70624393D01*
X158257829Y-70624393D01*
X158255381Y-70624200D01*
X156922280Y-70624200D01*
X155587020Y-70624201D01*
X155567777Y-70625715D01*
X155557414Y-70626530D01*
X155557413Y-70626530D01*
X155550996Y-70627035D01*
X155544816Y-70628830D01*
X155544813Y-70628831D01*
X155404420Y-70669619D01*
X155404418Y-70669620D01*
X155396807Y-70671831D01*
X155258602Y-70753565D01*
X155145065Y-70867102D01*
X155141031Y-70873923D01*
X155105734Y-70933608D01*
X155063331Y-71005307D01*
X155061120Y-71012918D01*
X155061119Y-71012920D01*
X155020329Y-71153319D01*
X155020328Y-71153324D01*
X155018535Y-71159496D01*
X155016833Y-71181119D01*
X155015894Y-71193056D01*
X155015700Y-71195519D01*
X155015700Y-71325700D01*
X154995698Y-71393821D01*
X154942042Y-71440314D01*
X154889700Y-71451700D01*
X154822714Y-71451700D01*
X154754593Y-71431698D01*
X154748653Y-71427636D01*
X154640094Y-71348763D01*
X154640093Y-71348762D01*
X154634752Y-71344882D01*
X154628724Y-71342198D01*
X154628722Y-71342197D01*
X154466319Y-71269891D01*
X154466318Y-71269891D01*
X154460288Y-71267206D01*
X154339813Y-71241598D01*
X154279944Y-71228872D01*
X154279939Y-71228872D01*
X154273487Y-71227500D01*
X154082513Y-71227500D01*
X154076061Y-71228872D01*
X154076056Y-71228872D01*
X154016187Y-71241598D01*
X153895712Y-71267206D01*
X153889682Y-71269891D01*
X153889681Y-71269891D01*
X153727278Y-71342197D01*
X153727276Y-71342198D01*
X153721248Y-71344882D01*
X153566747Y-71457134D01*
X153438960Y-71599056D01*
X153403699Y-71660130D01*
X153350736Y-71751865D01*
X153343473Y-71764444D01*
X153284458Y-71946072D01*
X153283768Y-71952633D01*
X153283768Y-71952635D01*
X153274582Y-72040035D01*
X153264496Y-72136000D01*
X148785146Y-72136000D01*
X148515293Y-71866147D01*
X148507753Y-71857861D01*
X148503641Y-71851382D01*
X148469505Y-71819326D01*
X148455797Y-71804182D01*
X148452924Y-71800437D01*
X148401914Y-71733961D01*
X148399614Y-71730964D01*
X148399613Y-71730963D01*
X148394587Y-71724413D01*
X148388036Y-71719386D01*
X148388034Y-71719384D01*
X148310812Y-71660130D01*
X148267475Y-71626876D01*
X148119450Y-71565562D01*
X148111262Y-71564484D01*
X148004572Y-71550438D01*
X148004571Y-71550438D01*
X148000485Y-71549900D01*
X147248192Y-71549900D01*
X146495716Y-71549901D01*
X146491631Y-71550439D01*
X146491627Y-71550439D01*
X146384937Y-71564484D01*
X146384935Y-71564484D01*
X146376750Y-71565562D01*
X146307737Y-71594148D01*
X146236352Y-71623716D01*
X146236350Y-71623717D01*
X146228724Y-71626876D01*
X146222174Y-71631902D01*
X146113509Y-71715285D01*
X146101613Y-71724413D01*
X146096587Y-71730963D01*
X146096584Y-71730966D01*
X146058375Y-71780761D01*
X146004076Y-71851525D01*
X145942762Y-71999550D01*
X145927100Y-72118515D01*
X145927101Y-72398284D01*
X145942762Y-72517250D01*
X145949400Y-72533276D01*
X145950460Y-72535834D01*
X145958050Y-72606423D01*
X145950460Y-72632274D01*
X145946411Y-72642049D01*
X145942172Y-72657869D01*
X145937884Y-72690440D01*
X145940095Y-72704622D01*
X145953252Y-72708400D01*
X145975031Y-72708400D01*
X146043152Y-72728402D01*
X146074991Y-72757694D01*
X146101613Y-72792387D01*
X146108163Y-72797413D01*
X146218969Y-72882438D01*
X146260836Y-72939776D01*
X146265058Y-73010647D01*
X146230294Y-73072550D01*
X146167581Y-73105831D01*
X146142265Y-73108400D01*
X145953635Y-73108400D01*
X145939864Y-73112444D01*
X145937835Y-73125983D01*
X145942172Y-73158933D01*
X145946409Y-73174745D01*
X145950731Y-73185179D01*
X145958322Y-73255769D01*
X145950731Y-73281621D01*
X145946410Y-73292052D01*
X145942172Y-73307869D01*
X145937884Y-73340440D01*
X145940095Y-73354622D01*
X145953252Y-73358400D01*
X147029985Y-73358400D01*
X147045224Y-73353925D01*
X147046429Y-73352535D01*
X147048100Y-73344852D01*
X147048100Y-73108400D01*
X147048653Y-73108400D01*
X147048654Y-73057397D01*
X147087039Y-72997672D01*
X147151621Y-72968181D01*
X147169542Y-72966899D01*
X147322101Y-72966899D01*
X147390221Y-72986901D01*
X147436714Y-73040557D01*
X147448100Y-73092899D01*
X147448100Y-73990285D01*
X147452575Y-74005524D01*
X147453965Y-74006729D01*
X147461648Y-74008400D01*
X148542565Y-74008400D01*
X148556336Y-74004356D01*
X148559103Y-73985893D01*
X148588979Y-73921488D01*
X148648933Y-73883460D01*
X148719928Y-73883882D01*
X148772807Y-73915470D01*
X155716784Y-80859447D01*
X155724328Y-80867737D01*
X155728441Y-80874218D01*
X155734218Y-80879643D01*
X155778108Y-80920858D01*
X155780950Y-80923613D01*
X155800671Y-80943334D01*
X155803866Y-80945812D01*
X155812888Y-80953518D01*
X155845120Y-80983786D01*
X155856299Y-80989932D01*
X155862873Y-80993546D01*
X155879397Y-81004399D01*
X155895400Y-81016813D01*
X155935984Y-81034376D01*
X155946614Y-81039583D01*
X155985381Y-81060895D01*
X155993058Y-81062866D01*
X155993063Y-81062868D01*
X156004999Y-81065932D01*
X156023707Y-81072337D01*
X156042296Y-81080381D01*
X156050124Y-81081621D01*
X156050131Y-81081623D01*
X156085965Y-81087299D01*
X156097585Y-81089705D01*
X156129400Y-81097873D01*
X156140411Y-81100700D01*
X156160665Y-81100700D01*
X156180375Y-81102251D01*
X156200384Y-81105420D01*
X156208276Y-81104674D01*
X156227021Y-81102902D01*
X156244403Y-81101259D01*
X156256260Y-81100700D01*
X163521240Y-81100700D01*
X163589361Y-81120702D01*
X163635854Y-81174358D01*
X163645958Y-81244632D01*
X163636346Y-81277951D01*
X163633776Y-81283723D01*
X163630473Y-81289444D01*
X163628433Y-81295724D01*
X163628432Y-81295725D01*
X163612780Y-81343896D01*
X163582042Y-81394054D01*
X158717000Y-86259095D01*
X158654688Y-86293121D01*
X158627905Y-86296000D01*
X156502982Y-86296001D01*
X156399820Y-86296001D01*
X156380577Y-86297515D01*
X156370214Y-86298330D01*
X156370213Y-86298330D01*
X156363796Y-86298835D01*
X156357616Y-86300630D01*
X156357613Y-86300631D01*
X156217220Y-86341419D01*
X156217218Y-86341420D01*
X156209607Y-86343631D01*
X156071402Y-86425365D01*
X155957865Y-86538902D01*
X155953831Y-86545723D01*
X155892163Y-86649999D01*
X155876131Y-86677107D01*
X155873920Y-86684718D01*
X155873919Y-86684720D01*
X155833129Y-86825119D01*
X155833128Y-86825124D01*
X155831335Y-86831296D01*
X155828500Y-86867319D01*
X155828501Y-88646680D01*
X155831335Y-88682704D01*
X155833130Y-88688881D01*
X155833131Y-88688887D01*
X155873919Y-88829280D01*
X155876131Y-88836893D01*
X155880166Y-88843715D01*
X155880166Y-88843716D01*
X155917374Y-88906632D01*
X155957865Y-88975098D01*
X156071402Y-89088635D01*
X156078223Y-89092669D01*
X156120613Y-89117738D01*
X156209607Y-89170369D01*
X156217218Y-89172580D01*
X156217220Y-89172581D01*
X156357619Y-89213371D01*
X156357624Y-89213372D01*
X156363796Y-89215165D01*
X156385419Y-89216867D01*
X156397362Y-89217807D01*
X156397371Y-89217807D01*
X156399819Y-89218000D01*
X157732920Y-89218000D01*
X159068180Y-89217999D01*
X159087972Y-89216442D01*
X159097786Y-89215670D01*
X159097787Y-89215670D01*
X159104204Y-89215165D01*
X159110384Y-89213370D01*
X159110387Y-89213369D01*
X159250780Y-89172581D01*
X159250782Y-89172580D01*
X159258393Y-89170369D01*
X159347388Y-89117738D01*
X159389777Y-89092669D01*
X159396598Y-89088635D01*
X159510135Y-88975098D01*
X159550626Y-88906632D01*
X159587834Y-88843716D01*
X159587834Y-88843715D01*
X159591869Y-88836893D01*
X159594081Y-88829280D01*
X159594840Y-88826669D01*
X180526001Y-88826669D01*
X180526371Y-88833490D01*
X180531895Y-88884352D01*
X180535521Y-88899604D01*
X180580676Y-89020054D01*
X180589214Y-89035649D01*
X180665715Y-89137724D01*
X180678276Y-89150285D01*
X180780351Y-89226786D01*
X180795946Y-89235324D01*
X180916394Y-89280478D01*
X180931649Y-89284105D01*
X180982514Y-89289631D01*
X180989328Y-89290000D01*
X182861885Y-89290000D01*
X182877124Y-89285525D01*
X182878329Y-89284135D01*
X182880000Y-89276452D01*
X182880000Y-88379115D01*
X182875525Y-88363876D01*
X182874135Y-88362671D01*
X182866452Y-88361000D01*
X180544116Y-88361000D01*
X180528877Y-88365475D01*
X180527672Y-88366865D01*
X180526001Y-88374548D01*
X180526001Y-88826669D01*
X159594840Y-88826669D01*
X159634871Y-88688881D01*
X159634872Y-88688876D01*
X159636665Y-88682704D01*
X159638367Y-88661081D01*
X159639307Y-88649138D01*
X159639307Y-88649129D01*
X159639500Y-88646681D01*
X159639499Y-87834885D01*
X180526000Y-87834885D01*
X180530475Y-87850124D01*
X180531865Y-87851329D01*
X180539548Y-87853000D01*
X182861885Y-87853000D01*
X182877124Y-87848525D01*
X182878329Y-87847135D01*
X182880000Y-87839452D01*
X182880000Y-86942116D01*
X182875525Y-86926877D01*
X182874135Y-86925672D01*
X182866452Y-86924001D01*
X180989331Y-86924001D01*
X180982510Y-86924371D01*
X180931648Y-86929895D01*
X180916396Y-86933521D01*
X180795946Y-86978676D01*
X180780351Y-86987214D01*
X180678276Y-87063715D01*
X180665715Y-87076276D01*
X180589214Y-87178351D01*
X180580676Y-87193946D01*
X180535522Y-87314394D01*
X180531895Y-87329649D01*
X180526369Y-87380514D01*
X180526000Y-87387328D01*
X180526000Y-87834885D01*
X159639499Y-87834885D01*
X159639499Y-87180595D01*
X159659501Y-87112474D01*
X159676404Y-87091500D01*
X164180024Y-82587881D01*
X164242336Y-82553855D01*
X164295316Y-82553729D01*
X164363056Y-82568128D01*
X164363061Y-82568128D01*
X164369513Y-82569500D01*
X164560487Y-82569500D01*
X164566939Y-82568128D01*
X164566944Y-82568128D01*
X164653887Y-82549647D01*
X164747288Y-82529794D01*
X164889416Y-82466515D01*
X164915722Y-82454803D01*
X164915724Y-82454802D01*
X164921752Y-82452118D01*
X165076253Y-82339866D01*
X165204040Y-82197944D01*
X165299527Y-82032556D01*
X165358542Y-81850928D01*
X165378504Y-81661000D01*
X165361294Y-81497255D01*
X165359232Y-81477635D01*
X165359232Y-81477633D01*
X165358542Y-81471072D01*
X165299527Y-81289444D01*
X165296223Y-81283721D01*
X165293653Y-81277949D01*
X165284219Y-81207582D01*
X165314325Y-81143285D01*
X165374414Y-81105471D01*
X165408760Y-81100700D01*
X171066433Y-81100700D01*
X171077616Y-81101227D01*
X171085109Y-81102902D01*
X171093035Y-81102653D01*
X171093036Y-81102653D01*
X171153186Y-81100762D01*
X171157145Y-81100700D01*
X171185056Y-81100700D01*
X171188991Y-81100203D01*
X171189056Y-81100195D01*
X171200893Y-81099262D01*
X171233151Y-81098248D01*
X171237170Y-81098122D01*
X171245089Y-81097873D01*
X171264543Y-81092221D01*
X171283900Y-81088213D01*
X171296130Y-81086668D01*
X171296131Y-81086668D01*
X171303997Y-81085674D01*
X171311368Y-81082755D01*
X171311370Y-81082755D01*
X171345112Y-81069396D01*
X171356342Y-81065551D01*
X171391183Y-81055429D01*
X171391184Y-81055429D01*
X171398793Y-81053218D01*
X171405612Y-81049185D01*
X171405617Y-81049183D01*
X171416228Y-81042907D01*
X171433976Y-81034212D01*
X171452817Y-81026752D01*
X171473187Y-81011953D01*
X171488587Y-81000764D01*
X171498507Y-80994248D01*
X171529735Y-80975780D01*
X171529738Y-80975778D01*
X171536562Y-80971742D01*
X171550883Y-80957421D01*
X171565917Y-80944580D01*
X171570495Y-80941254D01*
X171582307Y-80932672D01*
X171610498Y-80898595D01*
X171618488Y-80889816D01*
X178859636Y-73648669D01*
X180526001Y-73648669D01*
X180526371Y-73655490D01*
X180531895Y-73706352D01*
X180535521Y-73721604D01*
X180580676Y-73842054D01*
X180589214Y-73857649D01*
X180665715Y-73959724D01*
X180678276Y-73972285D01*
X180780351Y-74048786D01*
X180795946Y-74057324D01*
X180916394Y-74102478D01*
X180931649Y-74106105D01*
X180982514Y-74111631D01*
X180989328Y-74112000D01*
X182861885Y-74112000D01*
X182877124Y-74107525D01*
X182878329Y-74106135D01*
X182880000Y-74098452D01*
X182880000Y-73201115D01*
X182875525Y-73185876D01*
X182874135Y-73184671D01*
X182866452Y-73183000D01*
X180544116Y-73183000D01*
X180528877Y-73187475D01*
X180527672Y-73188865D01*
X180526001Y-73196548D01*
X180526001Y-73648669D01*
X178859636Y-73648669D01*
X180310905Y-72197400D01*
X180373217Y-72163374D01*
X180444032Y-72168439D01*
X180500868Y-72210986D01*
X180525679Y-72277506D01*
X180526000Y-72286495D01*
X180526000Y-72656885D01*
X180530475Y-72672124D01*
X180531865Y-72673329D01*
X180539548Y-72675000D01*
X182861885Y-72675000D01*
X182877124Y-72670525D01*
X182878329Y-72669135D01*
X182880000Y-72661452D01*
X182880000Y-71764116D01*
X182875525Y-71748877D01*
X182874135Y-71747672D01*
X182866452Y-71746001D01*
X181066494Y-71746001D01*
X180998373Y-71725999D01*
X180951880Y-71672343D01*
X180941776Y-71602069D01*
X180971270Y-71537489D01*
X180977399Y-71530906D01*
X181252766Y-71255539D01*
X181315078Y-71221513D01*
X181386092Y-71226652D01*
X181423684Y-71240745D01*
X181485866Y-71247500D01*
X184786000Y-71247500D01*
X184854121Y-71267502D01*
X184900614Y-71321158D01*
X184912000Y-71373500D01*
X184912000Y-71620000D01*
X184891998Y-71688121D01*
X184838342Y-71734614D01*
X184786000Y-71746000D01*
X183406115Y-71746000D01*
X183390876Y-71750475D01*
X183389671Y-71751865D01*
X183388000Y-71759548D01*
X183388000Y-74093884D01*
X183392475Y-74109123D01*
X183393865Y-74110328D01*
X183401548Y-74111999D01*
X184786000Y-74111999D01*
X184854121Y-74132001D01*
X184900614Y-74185657D01*
X184912000Y-74237999D01*
X184912000Y-86798000D01*
X184891998Y-86866121D01*
X184838342Y-86912614D01*
X184786000Y-86924000D01*
X183406115Y-86924000D01*
X183390876Y-86928475D01*
X183389671Y-86929865D01*
X183388000Y-86937548D01*
X183388000Y-89271884D01*
X183392475Y-89287123D01*
X183393865Y-89288328D01*
X183401548Y-89289999D01*
X184786000Y-89289999D01*
X184854121Y-89310001D01*
X184900614Y-89363657D01*
X184912000Y-89415999D01*
X184912000Y-89662500D01*
X184891998Y-89730621D01*
X184838342Y-89777114D01*
X184786000Y-89788500D01*
X181485866Y-89788500D01*
X181423684Y-89795255D01*
X181287295Y-89846385D01*
X181280112Y-89851768D01*
X181280109Y-89851770D01*
X181261934Y-89865392D01*
X181195428Y-89890239D01*
X181186370Y-89890565D01*
X169176835Y-89890565D01*
X169163228Y-89889828D01*
X169130284Y-89886249D01*
X169130281Y-89886249D01*
X169124159Y-89885584D01*
X169075649Y-89889828D01*
X169072586Y-89890096D01*
X169067756Y-89890425D01*
X169064895Y-89890565D01*
X169061809Y-89890565D01*
X169043082Y-89892401D01*
X169017615Y-89894898D01*
X169016302Y-89895020D01*
X168978708Y-89898309D01*
X168920700Y-89903384D01*
X168915417Y-89904919D01*
X168909939Y-89905456D01*
X168904037Y-89907238D01*
X168817992Y-89933217D01*
X168816725Y-89933592D01*
X168730497Y-89958643D01*
X168730495Y-89958644D01*
X168724574Y-89960364D01*
X168719689Y-89962896D01*
X168714420Y-89964487D01*
X168708979Y-89967380D01*
X168629710Y-90009528D01*
X168628542Y-90010142D01*
X168543250Y-90054353D01*
X168538949Y-90057786D01*
X168534090Y-90060370D01*
X168529318Y-90064262D01*
X168529315Y-90064264D01*
X168459713Y-90121031D01*
X168458685Y-90121860D01*
X168421007Y-90151938D01*
X168418249Y-90154140D01*
X168415753Y-90156636D01*
X168414742Y-90157540D01*
X168410389Y-90161258D01*
X168375819Y-90189453D01*
X168371898Y-90194193D01*
X168345511Y-90226089D01*
X168337521Y-90234868D01*
X163943528Y-94628860D01*
X163881216Y-94662886D01*
X163854433Y-94665765D01*
X154712366Y-94665765D01*
X154644245Y-94645763D01*
X154623271Y-94628860D01*
X154328917Y-94334506D01*
X154294891Y-94272194D01*
X154299956Y-94201379D01*
X154328917Y-94156316D01*
X154430135Y-94055098D01*
X154455226Y-94012671D01*
X154507834Y-93923716D01*
X154507834Y-93923715D01*
X154511869Y-93916893D01*
X154514081Y-93909280D01*
X154554871Y-93768881D01*
X154554872Y-93768876D01*
X154556665Y-93762704D01*
X154558367Y-93741081D01*
X154559307Y-93729138D01*
X154559307Y-93729129D01*
X154559500Y-93726681D01*
X154559499Y-91947320D01*
X154556665Y-91911296D01*
X154547393Y-91879379D01*
X154514081Y-91764720D01*
X154514080Y-91764718D01*
X154511869Y-91757107D01*
X154437372Y-91631139D01*
X154419913Y-91562323D01*
X154437372Y-91502861D01*
X154507834Y-91383716D01*
X154507834Y-91383715D01*
X154511869Y-91376893D01*
X154517231Y-91358437D01*
X154554871Y-91228881D01*
X154554872Y-91228876D01*
X154556665Y-91222704D01*
X154559500Y-91186681D01*
X154559499Y-89407320D01*
X154556665Y-89371296D01*
X154549795Y-89347647D01*
X154514081Y-89224720D01*
X154514080Y-89224718D01*
X154511869Y-89217107D01*
X154491603Y-89182838D01*
X154434169Y-89085723D01*
X154430135Y-89078902D01*
X154316598Y-88965365D01*
X154255727Y-88929366D01*
X154185216Y-88887666D01*
X154185215Y-88887666D01*
X154178393Y-88883631D01*
X154170782Y-88881420D01*
X154170780Y-88881419D01*
X154030381Y-88840629D01*
X154030376Y-88840628D01*
X154024204Y-88838835D01*
X154002581Y-88837133D01*
X153990638Y-88836193D01*
X153990629Y-88836193D01*
X153988181Y-88836000D01*
X152655080Y-88836000D01*
X151319820Y-88836001D01*
X151300577Y-88837515D01*
X151290214Y-88838330D01*
X151290213Y-88838330D01*
X151283796Y-88838835D01*
X151277616Y-88840630D01*
X151277613Y-88840631D01*
X151137220Y-88881419D01*
X151137218Y-88881420D01*
X151129607Y-88883631D01*
X151122785Y-88887666D01*
X151122784Y-88887666D01*
X151052273Y-88929366D01*
X150991402Y-88965365D01*
X150877865Y-89078902D01*
X150873832Y-89085722D01*
X150873827Y-89085728D01*
X150809970Y-89193704D01*
X150758077Y-89242157D01*
X150701517Y-89255565D01*
X148919609Y-89255565D01*
X148767739Y-89270456D01*
X148572220Y-89329487D01*
X148507540Y-89363878D01*
X148397332Y-89422476D01*
X148397329Y-89422478D01*
X148391890Y-89425370D01*
X148387120Y-89429260D01*
X148387116Y-89429263D01*
X148247370Y-89543238D01*
X148233619Y-89554453D01*
X148103434Y-89711819D01*
X148006294Y-89891475D01*
X147945900Y-90086577D01*
X147945256Y-90092702D01*
X147945256Y-90092703D01*
X147935088Y-90189453D01*
X147924552Y-90289694D01*
X147943062Y-90493090D01*
X148000726Y-90689016D01*
X148095348Y-90870011D01*
X148223323Y-91029179D01*
X148379777Y-91160460D01*
X148385175Y-91163428D01*
X148385180Y-91163431D01*
X148535547Y-91246095D01*
X148558750Y-91258851D01*
X148564617Y-91260712D01*
X148564619Y-91260713D01*
X148747556Y-91318744D01*
X148753426Y-91320606D01*
X148912375Y-91338435D01*
X150701517Y-91338435D01*
X150769638Y-91358437D01*
X150809970Y-91400296D01*
X150870627Y-91502861D01*
X150888087Y-91571677D01*
X150870628Y-91631139D01*
X150796131Y-91757107D01*
X150793920Y-91764718D01*
X150793919Y-91764720D01*
X150753129Y-91905119D01*
X150753128Y-91905124D01*
X150751335Y-91911296D01*
X150750831Y-91917706D01*
X150748694Y-91944856D01*
X150748500Y-91947319D01*
X150748501Y-93726680D01*
X150751335Y-93762704D01*
X150753130Y-93768881D01*
X150753131Y-93768887D01*
X150793919Y-93909280D01*
X150796131Y-93916893D01*
X150800166Y-93923715D01*
X150800166Y-93923716D01*
X150852774Y-94012671D01*
X150877865Y-94055098D01*
X150991402Y-94168635D01*
X150998223Y-94172669D01*
X151087891Y-94225698D01*
X151129607Y-94250369D01*
X151137218Y-94252580D01*
X151137220Y-94252581D01*
X151277619Y-94293371D01*
X151277624Y-94293372D01*
X151283796Y-94295165D01*
X151305419Y-94296867D01*
X151317362Y-94297807D01*
X151317371Y-94297807D01*
X151319819Y-94298000D01*
X151522510Y-94298000D01*
X151590631Y-94318002D01*
X151637124Y-94371658D01*
X151643130Y-94387576D01*
X151655228Y-94427647D01*
X151655550Y-94428734D01*
X151682364Y-94521027D01*
X151684897Y-94525914D01*
X151686487Y-94531180D01*
X151689376Y-94536614D01*
X151689380Y-94536623D01*
X151731526Y-94615889D01*
X151732138Y-94617055D01*
X151773515Y-94696878D01*
X151773520Y-94696886D01*
X151776353Y-94702351D01*
X151779788Y-94706654D01*
X151782370Y-94711510D01*
X151786262Y-94716282D01*
X151786264Y-94716285D01*
X151843040Y-94785899D01*
X151843868Y-94786926D01*
X151876140Y-94827352D01*
X151878634Y-94829846D01*
X151879554Y-94830875D01*
X151883269Y-94835224D01*
X151907558Y-94865006D01*
X151907561Y-94865009D01*
X151911453Y-94869781D01*
X151916201Y-94873709D01*
X151916202Y-94873710D01*
X151948078Y-94900080D01*
X151956857Y-94908069D01*
X153447394Y-96398605D01*
X153456486Y-96408737D01*
X153481123Y-96439379D01*
X153520831Y-96472698D01*
X153524436Y-96475843D01*
X153526538Y-96477749D01*
X153528734Y-96479945D01*
X153531129Y-96481912D01*
X153562996Y-96508089D01*
X153564010Y-96508930D01*
X153632857Y-96566700D01*
X153632861Y-96566703D01*
X153637577Y-96570660D01*
X153642397Y-96573310D01*
X153646651Y-96576804D01*
X153652075Y-96579712D01*
X153652076Y-96579713D01*
X153731286Y-96622185D01*
X153732414Y-96622798D01*
X153816550Y-96669051D01*
X153821797Y-96670715D01*
X153826645Y-96673315D01*
X153832543Y-96675118D01*
X153832545Y-96675119D01*
X153879590Y-96689502D01*
X153918420Y-96701373D01*
X153919624Y-96701748D01*
X153931865Y-96705631D01*
X154005355Y-96728944D01*
X154005359Y-96728945D01*
X154011226Y-96730806D01*
X154016696Y-96731420D01*
X154021957Y-96733028D01*
X154117410Y-96742723D01*
X154118685Y-96742859D01*
X154170175Y-96748635D01*
X154173699Y-96748635D01*
X154175093Y-96748713D01*
X154180793Y-96749162D01*
X154219018Y-96753045D01*
X154219024Y-96753045D01*
X154225147Y-96753667D01*
X154272470Y-96749194D01*
X154284327Y-96748635D01*
X164274365Y-96748635D01*
X164287972Y-96749372D01*
X164320915Y-96752951D01*
X164320920Y-96752951D01*
X164327041Y-96753616D01*
X164375552Y-96749372D01*
X164378616Y-96749104D01*
X164383445Y-96748775D01*
X164386306Y-96748635D01*
X164389391Y-96748635D01*
X164433598Y-96744301D01*
X164434859Y-96744184D01*
X164530501Y-96735816D01*
X164535785Y-96734281D01*
X164541261Y-96733744D01*
X164633247Y-96705972D01*
X164634334Y-96705650D01*
X164726627Y-96678836D01*
X164731514Y-96676303D01*
X164736780Y-96674713D01*
X164742214Y-96671824D01*
X164742223Y-96671820D01*
X164821489Y-96629674D01*
X164822655Y-96629062D01*
X164902478Y-96587685D01*
X164902486Y-96587680D01*
X164907951Y-96584847D01*
X164912254Y-96581412D01*
X164917110Y-96578830D01*
X164923445Y-96573664D01*
X164991499Y-96518160D01*
X164992526Y-96517332D01*
X165004104Y-96508089D01*
X165032952Y-96485060D01*
X165035446Y-96482566D01*
X165036475Y-96481646D01*
X165040824Y-96477931D01*
X165070606Y-96453642D01*
X165070609Y-96453639D01*
X165075381Y-96449747D01*
X165105680Y-96413122D01*
X165113669Y-96404343D01*
X167041343Y-94476669D01*
X180526001Y-94476669D01*
X180526371Y-94483490D01*
X180531895Y-94534352D01*
X180535521Y-94549604D01*
X180580676Y-94670054D01*
X180589214Y-94685649D01*
X180665715Y-94787724D01*
X180678276Y-94800285D01*
X180780351Y-94876786D01*
X180795946Y-94885324D01*
X180916394Y-94930478D01*
X180931649Y-94934105D01*
X180982514Y-94939631D01*
X180989328Y-94940000D01*
X182861885Y-94940000D01*
X182877124Y-94935525D01*
X182878329Y-94934135D01*
X182880000Y-94926452D01*
X182880000Y-94029115D01*
X182875525Y-94013876D01*
X182874135Y-94012671D01*
X182866452Y-94011000D01*
X180544116Y-94011000D01*
X180528877Y-94015475D01*
X180527672Y-94016865D01*
X180526001Y-94024548D01*
X180526001Y-94476669D01*
X167041343Y-94476669D01*
X168033127Y-93484885D01*
X180526000Y-93484885D01*
X180530475Y-93500124D01*
X180531865Y-93501329D01*
X180539548Y-93503000D01*
X182861885Y-93503000D01*
X182877124Y-93498525D01*
X182878329Y-93497135D01*
X182880000Y-93489452D01*
X182880000Y-92592116D01*
X182875525Y-92576877D01*
X182874135Y-92575672D01*
X182866452Y-92574001D01*
X180989331Y-92574001D01*
X180982510Y-92574371D01*
X180931648Y-92579895D01*
X180916396Y-92583521D01*
X180795946Y-92628676D01*
X180780351Y-92637214D01*
X180678276Y-92713715D01*
X180665715Y-92726276D01*
X180589214Y-92828351D01*
X180580676Y-92843946D01*
X180535522Y-92964394D01*
X180531895Y-92979649D01*
X180526369Y-93030514D01*
X180526000Y-93037328D01*
X180526000Y-93484885D01*
X168033127Y-93484885D01*
X169507672Y-92010340D01*
X169569984Y-91976314D01*
X169596767Y-91973435D01*
X181186370Y-91973435D01*
X181254491Y-91993437D01*
X181261934Y-91998608D01*
X181280109Y-92012230D01*
X181280112Y-92012232D01*
X181287295Y-92017615D01*
X181423684Y-92068745D01*
X181485866Y-92075500D01*
X184786000Y-92075500D01*
X184854121Y-92095502D01*
X184900614Y-92149158D01*
X184912000Y-92201500D01*
X184912000Y-92448000D01*
X184891998Y-92516121D01*
X184838342Y-92562614D01*
X184786000Y-92574000D01*
X183406115Y-92574000D01*
X183390876Y-92578475D01*
X183389671Y-92579865D01*
X183388000Y-92587548D01*
X183388000Y-94921884D01*
X183392475Y-94937123D01*
X183393865Y-94938328D01*
X183401548Y-94939999D01*
X184786000Y-94939999D01*
X184854121Y-94960001D01*
X184900614Y-95013657D01*
X184912000Y-95065999D01*
X184912000Y-97664000D01*
X184891998Y-97732121D01*
X184838342Y-97778614D01*
X184786000Y-97790000D01*
X94614000Y-97790000D01*
X94545879Y-97769998D01*
X94499386Y-97716342D01*
X94488000Y-97664000D01*
X94488000Y-94812000D01*
X94508002Y-94743879D01*
X94561658Y-94697386D01*
X94614000Y-94686000D01*
X95993885Y-94686000D01*
X96009124Y-94681525D01*
X96010329Y-94680135D01*
X96012000Y-94672452D01*
X96012000Y-94667884D01*
X96520000Y-94667884D01*
X96524475Y-94683123D01*
X96525865Y-94684328D01*
X96533548Y-94685999D01*
X98410669Y-94685999D01*
X98417490Y-94685629D01*
X98468352Y-94680105D01*
X98483604Y-94676479D01*
X98604054Y-94631324D01*
X98619649Y-94622786D01*
X98721724Y-94546285D01*
X98734285Y-94533724D01*
X98810786Y-94431649D01*
X98819324Y-94416054D01*
X98864478Y-94295606D01*
X98868105Y-94280351D01*
X98873631Y-94229486D01*
X98874000Y-94222672D01*
X98874000Y-93775115D01*
X98869525Y-93759876D01*
X98868135Y-93758671D01*
X98860452Y-93757000D01*
X96538115Y-93757000D01*
X96522876Y-93761475D01*
X96521671Y-93762865D01*
X96520000Y-93770548D01*
X96520000Y-94667884D01*
X96012000Y-94667884D01*
X96012000Y-93230885D01*
X96520000Y-93230885D01*
X96524475Y-93246124D01*
X96525865Y-93247329D01*
X96533548Y-93249000D01*
X98855884Y-93249000D01*
X98871123Y-93244525D01*
X98872328Y-93243135D01*
X98873999Y-93235452D01*
X98873999Y-92783331D01*
X98873629Y-92776510D01*
X98868105Y-92725648D01*
X98864479Y-92710396D01*
X98819324Y-92589946D01*
X98810786Y-92574351D01*
X98734285Y-92472276D01*
X98721724Y-92459715D01*
X98619649Y-92383214D01*
X98604054Y-92374676D01*
X98483606Y-92329522D01*
X98468351Y-92325895D01*
X98417486Y-92320369D01*
X98410672Y-92320000D01*
X96538115Y-92320000D01*
X96522876Y-92324475D01*
X96521671Y-92325865D01*
X96520000Y-92333548D01*
X96520000Y-93230885D01*
X96012000Y-93230885D01*
X96012000Y-92338116D01*
X96007525Y-92322877D01*
X96006135Y-92321672D01*
X95998452Y-92320001D01*
X94614000Y-92320001D01*
X94545879Y-92299999D01*
X94499386Y-92246343D01*
X94488000Y-92194001D01*
X94488000Y-91947500D01*
X94508002Y-91879379D01*
X94561658Y-91832886D01*
X94614000Y-91821500D01*
X97914134Y-91821500D01*
X97976316Y-91814745D01*
X98112705Y-91763615D01*
X98119888Y-91758232D01*
X98119891Y-91758230D01*
X98138066Y-91744608D01*
X98204572Y-91719761D01*
X98213630Y-91719435D01*
X116792133Y-91719435D01*
X116831800Y-91725842D01*
X116961411Y-91768832D01*
X116961413Y-91768832D01*
X116967939Y-91770997D01*
X116974775Y-91771697D01*
X116974778Y-91771698D01*
X117017831Y-91776109D01*
X117072400Y-91781700D01*
X117823200Y-91781700D01*
X117826446Y-91781363D01*
X117826450Y-91781363D01*
X117922108Y-91771438D01*
X117922112Y-91771437D01*
X117928966Y-91770726D01*
X117935502Y-91768545D01*
X117935504Y-91768545D01*
X118089798Y-91717068D01*
X118096746Y-91714750D01*
X118247148Y-91621678D01*
X118372105Y-91496503D01*
X118450527Y-91369280D01*
X118461075Y-91352168D01*
X118461076Y-91352166D01*
X118464915Y-91345938D01*
X118520597Y-91178061D01*
X118522401Y-91160460D01*
X118525709Y-91128169D01*
X118531300Y-91073600D01*
X118531300Y-91070295D01*
X119314801Y-91070295D01*
X119315138Y-91076814D01*
X119325057Y-91172406D01*
X119327949Y-91185800D01*
X119379388Y-91339984D01*
X119385561Y-91353162D01*
X119470863Y-91491007D01*
X119479899Y-91502408D01*
X119594629Y-91616939D01*
X119606040Y-91625951D01*
X119744043Y-91711016D01*
X119757224Y-91717163D01*
X119911510Y-91768338D01*
X119924886Y-91771205D01*
X120019238Y-91780872D01*
X120025654Y-91781200D01*
X120125685Y-91781200D01*
X120140924Y-91776725D01*
X120142129Y-91775335D01*
X120143800Y-91767652D01*
X120143800Y-91763084D01*
X120651800Y-91763084D01*
X120656275Y-91778323D01*
X120657665Y-91779528D01*
X120665348Y-91781199D01*
X120769895Y-91781199D01*
X120776414Y-91780862D01*
X120872006Y-91770943D01*
X120885400Y-91768051D01*
X121039584Y-91716612D01*
X121052762Y-91710439D01*
X121190607Y-91625137D01*
X121202008Y-91616101D01*
X121316539Y-91501371D01*
X121325551Y-91489960D01*
X121410616Y-91351957D01*
X121416763Y-91338776D01*
X121467938Y-91184490D01*
X121470805Y-91171114D01*
X121480472Y-91076762D01*
X121480800Y-91070346D01*
X121480800Y-90645315D01*
X121476325Y-90630076D01*
X121474935Y-90628871D01*
X121467252Y-90627200D01*
X120669915Y-90627200D01*
X120654676Y-90631675D01*
X120653471Y-90633065D01*
X120651800Y-90640748D01*
X120651800Y-91763084D01*
X120143800Y-91763084D01*
X120143800Y-90645315D01*
X120139325Y-90630076D01*
X120137935Y-90628871D01*
X120130252Y-90627200D01*
X119332916Y-90627200D01*
X119317677Y-90631675D01*
X119316472Y-90633065D01*
X119314801Y-90640748D01*
X119314801Y-91070295D01*
X118531300Y-91070295D01*
X118531300Y-89672800D01*
X118530963Y-89669550D01*
X118521038Y-89573892D01*
X118521037Y-89573888D01*
X118520326Y-89567034D01*
X118518146Y-89560501D01*
X118518144Y-89560490D01*
X118496598Y-89495912D01*
X118494012Y-89424962D01*
X118530196Y-89363878D01*
X118593660Y-89332053D01*
X118616121Y-89330035D01*
X119230029Y-89330035D01*
X119298150Y-89350037D01*
X119344643Y-89403693D01*
X119354747Y-89473967D01*
X119349622Y-89495702D01*
X119327663Y-89561907D01*
X119324795Y-89575286D01*
X119315128Y-89669638D01*
X119314800Y-89676055D01*
X119314800Y-90101085D01*
X119319275Y-90116324D01*
X119320665Y-90117529D01*
X119328348Y-90119200D01*
X121462684Y-90119200D01*
X121477923Y-90114725D01*
X121479128Y-90113335D01*
X121480799Y-90105652D01*
X121480799Y-89676105D01*
X121480462Y-89669586D01*
X121470543Y-89573994D01*
X121467651Y-89560600D01*
X121446069Y-89495911D01*
X121443485Y-89424962D01*
X121479668Y-89363878D01*
X121543132Y-89332053D01*
X121565593Y-89330035D01*
X125658588Y-89330035D01*
X125726709Y-89350037D01*
X125747606Y-89366862D01*
X125769916Y-89389134D01*
X125769921Y-89389138D01*
X125775097Y-89394305D01*
X125781327Y-89398145D01*
X125781328Y-89398146D01*
X125918490Y-89482694D01*
X125925662Y-89487115D01*
X125998985Y-89511435D01*
X126087011Y-89540632D01*
X126087013Y-89540632D01*
X126093539Y-89542797D01*
X126100375Y-89543497D01*
X126100378Y-89543498D01*
X126143431Y-89547909D01*
X126198000Y-89553500D01*
X127598800Y-89553500D01*
X127602046Y-89553163D01*
X127602050Y-89553163D01*
X127697708Y-89543238D01*
X127697712Y-89543237D01*
X127704566Y-89542526D01*
X127711102Y-89540345D01*
X127711104Y-89540345D01*
X127778346Y-89517911D01*
X127818222Y-89511435D01*
X128936365Y-89511435D01*
X128949972Y-89512172D01*
X128982915Y-89515751D01*
X128982920Y-89515751D01*
X128989041Y-89516416D01*
X129037552Y-89512172D01*
X129040616Y-89511904D01*
X129045445Y-89511575D01*
X129048306Y-89511435D01*
X129051391Y-89511435D01*
X129095598Y-89507101D01*
X129096859Y-89506984D01*
X129192501Y-89498616D01*
X129197785Y-89497081D01*
X129203261Y-89496544D01*
X129295247Y-89468772D01*
X129296334Y-89468450D01*
X129388627Y-89441636D01*
X129393514Y-89439103D01*
X129398780Y-89437513D01*
X129404214Y-89434624D01*
X129404223Y-89434620D01*
X129483489Y-89392474D01*
X129484655Y-89391862D01*
X129564478Y-89350485D01*
X129564486Y-89350480D01*
X129569951Y-89347647D01*
X129574254Y-89344212D01*
X129579110Y-89341630D01*
X129589128Y-89333460D01*
X129653499Y-89280960D01*
X129654526Y-89280132D01*
X129666647Y-89270456D01*
X129694952Y-89247860D01*
X129697446Y-89245366D01*
X129698475Y-89244446D01*
X129702824Y-89240731D01*
X129732606Y-89216442D01*
X129732609Y-89216439D01*
X129737381Y-89212547D01*
X129742682Y-89206140D01*
X129767680Y-89175922D01*
X129775669Y-89167143D01*
X130085905Y-88856907D01*
X130148217Y-88822881D01*
X130219032Y-88827946D01*
X130264095Y-88856907D01*
X130568598Y-89161410D01*
X130577699Y-89171553D01*
X130602323Y-89202179D01*
X130621178Y-89218000D01*
X130641985Y-89235460D01*
X130645629Y-89238639D01*
X130647751Y-89240563D01*
X130649933Y-89242745D01*
X130652317Y-89244703D01*
X130684202Y-89270894D01*
X130685217Y-89271736D01*
X130706982Y-89289999D01*
X130758777Y-89333460D01*
X130763601Y-89336112D01*
X130767851Y-89339603D01*
X130852524Y-89385004D01*
X130853526Y-89385549D01*
X130932340Y-89428878D01*
X130932350Y-89428882D01*
X130937750Y-89431851D01*
X130942997Y-89433515D01*
X130947845Y-89436115D01*
X130953743Y-89437918D01*
X130953745Y-89437919D01*
X131000790Y-89452302D01*
X131039620Y-89464173D01*
X131040824Y-89464548D01*
X131053065Y-89468431D01*
X131126555Y-89491744D01*
X131126559Y-89491745D01*
X131132426Y-89493606D01*
X131137896Y-89494220D01*
X131143157Y-89495828D01*
X131238610Y-89505523D01*
X131239885Y-89505659D01*
X131291375Y-89511435D01*
X131294899Y-89511435D01*
X131296293Y-89511513D01*
X131301993Y-89511962D01*
X131340218Y-89515845D01*
X131340224Y-89515845D01*
X131346347Y-89516467D01*
X131393668Y-89511994D01*
X131405524Y-89511435D01*
X132531835Y-89511435D01*
X132571501Y-89517842D01*
X132646739Y-89542797D01*
X132653575Y-89543497D01*
X132653578Y-89543498D01*
X132696631Y-89547909D01*
X132751200Y-89553500D01*
X134152000Y-89553500D01*
X134155246Y-89553163D01*
X134155250Y-89553163D01*
X134250908Y-89543238D01*
X134250912Y-89543237D01*
X134257766Y-89542526D01*
X134264302Y-89540345D01*
X134264304Y-89540345D01*
X134409978Y-89491744D01*
X134425546Y-89486550D01*
X134575948Y-89393478D01*
X134700905Y-89268303D01*
X134712152Y-89250058D01*
X134732463Y-89217107D01*
X134765579Y-89163383D01*
X134818350Y-89115891D01*
X134872838Y-89103500D01*
X137638233Y-89103500D01*
X137649416Y-89104027D01*
X137656909Y-89105702D01*
X137664835Y-89105453D01*
X137664836Y-89105453D01*
X137724986Y-89103562D01*
X137728945Y-89103500D01*
X137756856Y-89103500D01*
X137760791Y-89103003D01*
X137760856Y-89102995D01*
X137772693Y-89102062D01*
X137804951Y-89101048D01*
X137808970Y-89100922D01*
X137816889Y-89100673D01*
X137836343Y-89095021D01*
X137855700Y-89091013D01*
X137867930Y-89089468D01*
X137867931Y-89089468D01*
X137875797Y-89088474D01*
X137883168Y-89085555D01*
X137883170Y-89085555D01*
X137916912Y-89072196D01*
X137928142Y-89068351D01*
X137962983Y-89058229D01*
X137962984Y-89058229D01*
X137970593Y-89056018D01*
X137977412Y-89051985D01*
X137977417Y-89051983D01*
X137988028Y-89045707D01*
X138005776Y-89037012D01*
X138024617Y-89029552D01*
X138034390Y-89022452D01*
X138060387Y-89003564D01*
X138070307Y-88997048D01*
X138101535Y-88978580D01*
X138101538Y-88978578D01*
X138108362Y-88974542D01*
X138122683Y-88960221D01*
X138137717Y-88947380D01*
X138147694Y-88940131D01*
X138154107Y-88935472D01*
X138182298Y-88901395D01*
X138190288Y-88892616D01*
X143079500Y-84003405D01*
X143141812Y-83969379D01*
X143168595Y-83966500D01*
X143224487Y-83966500D01*
X143230939Y-83965128D01*
X143230944Y-83965128D01*
X143317887Y-83946647D01*
X143411288Y-83926794D01*
X143417319Y-83924109D01*
X143579722Y-83851803D01*
X143579724Y-83851802D01*
X143585752Y-83849118D01*
X143740253Y-83736866D01*
X143744675Y-83731955D01*
X143863621Y-83599852D01*
X143863622Y-83599851D01*
X143868040Y-83594944D01*
X143938156Y-83473500D01*
X143960223Y-83435279D01*
X143960224Y-83435278D01*
X143963527Y-83429556D01*
X144022542Y-83247928D01*
X144024034Y-83233738D01*
X144041814Y-83064565D01*
X144042504Y-83058000D01*
X144031243Y-82950860D01*
X144023232Y-82874635D01*
X144023232Y-82874633D01*
X144022542Y-82868072D01*
X143963527Y-82686444D01*
X143868040Y-82521056D01*
X143740253Y-82379134D01*
X143585752Y-82266882D01*
X143579724Y-82264198D01*
X143579722Y-82264197D01*
X143417319Y-82191891D01*
X143417318Y-82191891D01*
X143411288Y-82189206D01*
X143317888Y-82169353D01*
X143230944Y-82150872D01*
X143230939Y-82150872D01*
X143224487Y-82149500D01*
X143033513Y-82149500D01*
X143027061Y-82150872D01*
X143027056Y-82150872D01*
X142940112Y-82169353D01*
X142846712Y-82189206D01*
X142840682Y-82191891D01*
X142840681Y-82191891D01*
X142678278Y-82264197D01*
X142678276Y-82264198D01*
X142672248Y-82266882D01*
X142517747Y-82379134D01*
X142389960Y-82521056D01*
X142294473Y-82686444D01*
X142235458Y-82868072D01*
X142234768Y-82874633D01*
X142234768Y-82874635D01*
X142232996Y-82891495D01*
X142221533Y-83000566D01*
X142218093Y-83033293D01*
X142191080Y-83098950D01*
X142181878Y-83109218D01*
X137491500Y-87799595D01*
X137429188Y-87833621D01*
X137402405Y-87836500D01*
X134872911Y-87836500D01*
X134804790Y-87816498D01*
X134765767Y-87776804D01*
X134700078Y-87670652D01*
X134574903Y-87545695D01*
X134424338Y-87452885D01*
X134342335Y-87425686D01*
X134262989Y-87399368D01*
X134262987Y-87399368D01*
X134256461Y-87397203D01*
X134249625Y-87396503D01*
X134249622Y-87396502D01*
X134202361Y-87391660D01*
X134152000Y-87386500D01*
X132751200Y-87386500D01*
X132747954Y-87386837D01*
X132747950Y-87386837D01*
X132652292Y-87396762D01*
X132652288Y-87396763D01*
X132645434Y-87397474D01*
X132638898Y-87399655D01*
X132638896Y-87399655D01*
X132571654Y-87422089D01*
X132531778Y-87428565D01*
X131833567Y-87428565D01*
X131765446Y-87408563D01*
X131744472Y-87391660D01*
X131525067Y-87172255D01*
X131407149Y-87075397D01*
X131304155Y-87020172D01*
X131253573Y-86970355D01*
X131237954Y-86901098D01*
X131262258Y-86834390D01*
X131288133Y-86808303D01*
X131381080Y-86738643D01*
X131381081Y-86738642D01*
X131388261Y-86733261D01*
X131475615Y-86616705D01*
X131526745Y-86480316D01*
X131533500Y-86418134D01*
X131533500Y-85892095D01*
X132043601Y-85892095D01*
X132043938Y-85898614D01*
X132053857Y-85994206D01*
X132056749Y-86007600D01*
X132108188Y-86161784D01*
X132114361Y-86174962D01*
X132199663Y-86312807D01*
X132208699Y-86324208D01*
X132323429Y-86438739D01*
X132334840Y-86447751D01*
X132472843Y-86532816D01*
X132486024Y-86538963D01*
X132640310Y-86590138D01*
X132653686Y-86593005D01*
X132748038Y-86602672D01*
X132754454Y-86603000D01*
X133179485Y-86603000D01*
X133194724Y-86598525D01*
X133195929Y-86597135D01*
X133197600Y-86589452D01*
X133197600Y-86584884D01*
X133705600Y-86584884D01*
X133710075Y-86600123D01*
X133711465Y-86601328D01*
X133719148Y-86602999D01*
X134148695Y-86602999D01*
X134155214Y-86602662D01*
X134250806Y-86592743D01*
X134264200Y-86589851D01*
X134418384Y-86538412D01*
X134431562Y-86532239D01*
X134569407Y-86446937D01*
X134580808Y-86437901D01*
X134695339Y-86323171D01*
X134704351Y-86311760D01*
X134789416Y-86173757D01*
X134795563Y-86160576D01*
X134846738Y-86006290D01*
X134849605Y-85992914D01*
X134859272Y-85898562D01*
X134859600Y-85892146D01*
X134859600Y-85792115D01*
X134855125Y-85776876D01*
X134853735Y-85775671D01*
X134846052Y-85774000D01*
X133723715Y-85774000D01*
X133708476Y-85778475D01*
X133707271Y-85779865D01*
X133705600Y-85787548D01*
X133705600Y-86584884D01*
X133197600Y-86584884D01*
X133197600Y-85792115D01*
X133193125Y-85776876D01*
X133191735Y-85775671D01*
X133184052Y-85774000D01*
X132061716Y-85774000D01*
X132046477Y-85778475D01*
X132045272Y-85779865D01*
X132043601Y-85787548D01*
X132043601Y-85892095D01*
X131533500Y-85892095D01*
X131533500Y-85671866D01*
X131526745Y-85609684D01*
X131475615Y-85473295D01*
X131388261Y-85356739D01*
X131271705Y-85269385D01*
X131214354Y-85247885D01*
X132043600Y-85247885D01*
X132048075Y-85263124D01*
X132049465Y-85264329D01*
X132057148Y-85266000D01*
X133179485Y-85266000D01*
X133194724Y-85261525D01*
X133195929Y-85260135D01*
X133197600Y-85252452D01*
X133197600Y-85247885D01*
X133705600Y-85247885D01*
X133710075Y-85263124D01*
X133711465Y-85264329D01*
X133719148Y-85266000D01*
X134841484Y-85266000D01*
X134856723Y-85261525D01*
X134857928Y-85260135D01*
X134859599Y-85252452D01*
X134859599Y-85147905D01*
X134859262Y-85141386D01*
X134849343Y-85045794D01*
X134846451Y-85032400D01*
X134795012Y-84878216D01*
X134788839Y-84865038D01*
X134703537Y-84727193D01*
X134694501Y-84715792D01*
X134579771Y-84601261D01*
X134568360Y-84592249D01*
X134430357Y-84507184D01*
X134417176Y-84501037D01*
X134262890Y-84449862D01*
X134249514Y-84446995D01*
X134155162Y-84437328D01*
X134148745Y-84437000D01*
X133723715Y-84437000D01*
X133708476Y-84441475D01*
X133707271Y-84442865D01*
X133705600Y-84450548D01*
X133705600Y-85247885D01*
X133197600Y-85247885D01*
X133197600Y-84455116D01*
X133193125Y-84439877D01*
X133191735Y-84438672D01*
X133184052Y-84437001D01*
X132754505Y-84437001D01*
X132747986Y-84437338D01*
X132652394Y-84447257D01*
X132639000Y-84450149D01*
X132484816Y-84501588D01*
X132471638Y-84507761D01*
X132333793Y-84593063D01*
X132322392Y-84602099D01*
X132207861Y-84716829D01*
X132198849Y-84728240D01*
X132113784Y-84866243D01*
X132107637Y-84879424D01*
X132056462Y-85033710D01*
X132053595Y-85047086D01*
X132043928Y-85141438D01*
X132043600Y-85147855D01*
X132043600Y-85247885D01*
X131214354Y-85247885D01*
X131135316Y-85218255D01*
X131073134Y-85211500D01*
X130576866Y-85211500D01*
X130573469Y-85211869D01*
X130535424Y-85216002D01*
X130514684Y-85218255D01*
X130514452Y-85216116D01*
X130485488Y-85216166D01*
X130485207Y-85218748D01*
X130426486Y-85212369D01*
X130419672Y-85212000D01*
X130393115Y-85212000D01*
X130377876Y-85216475D01*
X130376671Y-85217865D01*
X130372946Y-85234991D01*
X130338922Y-85297303D01*
X130325390Y-85309035D01*
X130261739Y-85356739D01*
X130260813Y-85357974D01*
X130201783Y-85390208D01*
X130130968Y-85385143D01*
X130089645Y-85358586D01*
X130088261Y-85356739D01*
X130024240Y-85308758D01*
X129981725Y-85251899D01*
X129978909Y-85243430D01*
X129970525Y-85214877D01*
X129969135Y-85213672D01*
X129961452Y-85212001D01*
X129930331Y-85212001D01*
X129923510Y-85212371D01*
X129864793Y-85218748D01*
X129864495Y-85216002D01*
X129835554Y-85216060D01*
X129835316Y-85218255D01*
X129776531Y-85211869D01*
X129773134Y-85211500D01*
X129276866Y-85211500D01*
X129214684Y-85218255D01*
X129078295Y-85269385D01*
X128961739Y-85356739D01*
X128874385Y-85473295D01*
X128823255Y-85609684D01*
X128816500Y-85671866D01*
X128816500Y-86418134D01*
X128823255Y-86480316D01*
X128874385Y-86616705D01*
X128961739Y-86733261D01*
X128968919Y-86738642D01*
X128968920Y-86738643D01*
X129061948Y-86808364D01*
X129104463Y-86865224D01*
X129109489Y-86936042D01*
X129075429Y-86998335D01*
X129044370Y-87021054D01*
X128955049Y-87067353D01*
X128939855Y-87079482D01*
X128832798Y-87164944D01*
X128832791Y-87164951D01*
X128830048Y-87167140D01*
X128605528Y-87391660D01*
X128543216Y-87425686D01*
X128516433Y-87428565D01*
X127818165Y-87428565D01*
X127778498Y-87422158D01*
X127737511Y-87408563D01*
X127703261Y-87397203D01*
X127696425Y-87396503D01*
X127696422Y-87396502D01*
X127649161Y-87391660D01*
X127598800Y-87386500D01*
X127270288Y-87386500D01*
X127209587Y-87370914D01*
X127134660Y-87329722D01*
X127134650Y-87329718D01*
X127129250Y-87326749D01*
X127124003Y-87325085D01*
X127119155Y-87322485D01*
X127113257Y-87320682D01*
X127113255Y-87320681D01*
X127066210Y-87306298D01*
X127027380Y-87294427D01*
X127026176Y-87294052D01*
X127001834Y-87286330D01*
X126940445Y-87266856D01*
X126940441Y-87266855D01*
X126934574Y-87264994D01*
X126929104Y-87264380D01*
X126923843Y-87262772D01*
X126828390Y-87253077D01*
X126827115Y-87252941D01*
X126775625Y-87247165D01*
X126772101Y-87247165D01*
X126770707Y-87247087D01*
X126765007Y-87246638D01*
X126726782Y-87242755D01*
X126726776Y-87242755D01*
X126720653Y-87242133D01*
X126673333Y-87246606D01*
X126661476Y-87247165D01*
X118161427Y-87247165D01*
X118093306Y-87227163D01*
X118078167Y-87214919D01*
X118078002Y-87215119D01*
X118033557Y-87178351D01*
X117920636Y-87084934D01*
X117740980Y-86987794D01*
X117684774Y-86970395D01*
X117622073Y-86926736D01*
X117592016Y-86887566D01*
X117592013Y-86887563D01*
X117586987Y-86881013D01*
X117580437Y-86875987D01*
X117580434Y-86875984D01*
X117514145Y-86825119D01*
X117459875Y-86783476D01*
X117321311Y-86726081D01*
X117319479Y-86725322D01*
X117311850Y-86722162D01*
X117291592Y-86719495D01*
X117196972Y-86707038D01*
X117196971Y-86707038D01*
X117192885Y-86706500D01*
X117053017Y-86706500D01*
X116913116Y-86706501D01*
X116909031Y-86707039D01*
X116909027Y-86707039D01*
X116802337Y-86721084D01*
X116802335Y-86721084D01*
X116794150Y-86722162D01*
X116776219Y-86729589D01*
X116705630Y-86737179D01*
X116679782Y-86729590D01*
X116676339Y-86728163D01*
X116669480Y-86725322D01*
X116669477Y-86725321D01*
X116661850Y-86722162D01*
X116641592Y-86719495D01*
X116546972Y-86707038D01*
X116546971Y-86707038D01*
X116542885Y-86706500D01*
X116403017Y-86706500D01*
X116263116Y-86706501D01*
X116259031Y-86707039D01*
X116259027Y-86707039D01*
X116152337Y-86721084D01*
X116152335Y-86721084D01*
X116144150Y-86722162D01*
X116126219Y-86729589D01*
X116055630Y-86737179D01*
X116029782Y-86729590D01*
X116026339Y-86728163D01*
X116019480Y-86725322D01*
X116019477Y-86725321D01*
X116011850Y-86722162D01*
X115991592Y-86719495D01*
X115896972Y-86707038D01*
X115896971Y-86707038D01*
X115892885Y-86706500D01*
X115753017Y-86706500D01*
X115613116Y-86706501D01*
X115609031Y-86707039D01*
X115609027Y-86707039D01*
X115502337Y-86721084D01*
X115502335Y-86721084D01*
X115494150Y-86722162D01*
X115475565Y-86729860D01*
X115404977Y-86737450D01*
X115379126Y-86729860D01*
X115369351Y-86725811D01*
X115353531Y-86721572D01*
X115320960Y-86717284D01*
X115306778Y-86719495D01*
X115303000Y-86732652D01*
X115303000Y-86754431D01*
X115282998Y-86822552D01*
X115253706Y-86854391D01*
X115219013Y-86881013D01*
X115213987Y-86887563D01*
X115128962Y-86998369D01*
X115071624Y-87040236D01*
X115000753Y-87044458D01*
X114938850Y-87009694D01*
X114905569Y-86946981D01*
X114903000Y-86921665D01*
X114903000Y-86733035D01*
X114898956Y-86719264D01*
X114885417Y-86717235D01*
X114852467Y-86721572D01*
X114836652Y-86725810D01*
X114704007Y-86780753D01*
X114689824Y-86788941D01*
X114575920Y-86876344D01*
X114564344Y-86887920D01*
X114476941Y-87001824D01*
X114468753Y-87016007D01*
X114413810Y-87148650D01*
X114409572Y-87164468D01*
X114395538Y-87271066D01*
X114395000Y-87279275D01*
X114395000Y-87734385D01*
X114399475Y-87749624D01*
X114400865Y-87750829D01*
X114408548Y-87752500D01*
X114903000Y-87752500D01*
X114903000Y-87753052D01*
X114954000Y-87753053D01*
X115013725Y-87791438D01*
X115043218Y-87856019D01*
X115044500Y-87873948D01*
X115044501Y-88029871D01*
X115024499Y-88097992D01*
X114970844Y-88144485D01*
X114900570Y-88154590D01*
X114891718Y-88152993D01*
X114889452Y-88152500D01*
X114413116Y-88152500D01*
X114397877Y-88156975D01*
X114396672Y-88158365D01*
X114395001Y-88166048D01*
X114395001Y-88625723D01*
X114395539Y-88633935D01*
X114409572Y-88740533D01*
X114413810Y-88756348D01*
X114468753Y-88888993D01*
X114476941Y-88903176D01*
X114564344Y-89017080D01*
X114575920Y-89028656D01*
X114689824Y-89116059D01*
X114704007Y-89124247D01*
X114836649Y-89179189D01*
X114852469Y-89183428D01*
X114885040Y-89187716D01*
X114899222Y-89185505D01*
X114903000Y-89172348D01*
X114903000Y-88983337D01*
X114923002Y-88915216D01*
X114976658Y-88868723D01*
X115046932Y-88858619D01*
X115111512Y-88888113D01*
X115128962Y-88906632D01*
X115184171Y-88978580D01*
X115219013Y-89023987D01*
X115225563Y-89029013D01*
X115253705Y-89050607D01*
X115295572Y-89107946D01*
X115303000Y-89150569D01*
X115303000Y-89171965D01*
X115307044Y-89185736D01*
X115320583Y-89187765D01*
X115353533Y-89183428D01*
X115369348Y-89179190D01*
X115379126Y-89175140D01*
X115449715Y-89167550D01*
X115475564Y-89175139D01*
X115494150Y-89182838D01*
X115502338Y-89183916D01*
X115609021Y-89197961D01*
X115613115Y-89198500D01*
X115752983Y-89198500D01*
X115892884Y-89198499D01*
X115896969Y-89197961D01*
X115896973Y-89197961D01*
X116003663Y-89183916D01*
X116003665Y-89183916D01*
X116011850Y-89182838D01*
X116029781Y-89175411D01*
X116100370Y-89167821D01*
X116126218Y-89175410D01*
X116127453Y-89175922D01*
X116136520Y-89179678D01*
X116136523Y-89179679D01*
X116144150Y-89182838D01*
X116152338Y-89183916D01*
X116184467Y-89188146D01*
X116249394Y-89216869D01*
X116288485Y-89276134D01*
X116294020Y-89313068D01*
X116294020Y-89510565D01*
X116274018Y-89578686D01*
X116220362Y-89625179D01*
X116168020Y-89636565D01*
X98213630Y-89636565D01*
X98145509Y-89616563D01*
X98138066Y-89611392D01*
X98119891Y-89597770D01*
X98119888Y-89597768D01*
X98112705Y-89592385D01*
X97976316Y-89541255D01*
X97914134Y-89534500D01*
X94614000Y-89534500D01*
X94545879Y-89514498D01*
X94499386Y-89460842D01*
X94488000Y-89408500D01*
X94488000Y-89162000D01*
X94508002Y-89093879D01*
X94561658Y-89047386D01*
X94614000Y-89036000D01*
X95993885Y-89036000D01*
X96009124Y-89031525D01*
X96010329Y-89030135D01*
X96012000Y-89022452D01*
X96012000Y-89017884D01*
X96520000Y-89017884D01*
X96524475Y-89033123D01*
X96525865Y-89034328D01*
X96533548Y-89035999D01*
X98410669Y-89035999D01*
X98417490Y-89035629D01*
X98468352Y-89030105D01*
X98483604Y-89026479D01*
X98604054Y-88981324D01*
X98619649Y-88972786D01*
X98721724Y-88896285D01*
X98734285Y-88883724D01*
X98810786Y-88781649D01*
X98819324Y-88766054D01*
X98864478Y-88645606D01*
X98868105Y-88630351D01*
X98873631Y-88579486D01*
X98874000Y-88572672D01*
X98874000Y-88125115D01*
X98869525Y-88109876D01*
X98868135Y-88108671D01*
X98860452Y-88107000D01*
X96538115Y-88107000D01*
X96522876Y-88111475D01*
X96521671Y-88112865D01*
X96520000Y-88120548D01*
X96520000Y-89017884D01*
X96012000Y-89017884D01*
X96012000Y-87580885D01*
X96520000Y-87580885D01*
X96524475Y-87596124D01*
X96525865Y-87597329D01*
X96533548Y-87599000D01*
X98855884Y-87599000D01*
X98871123Y-87594525D01*
X98872328Y-87593135D01*
X98873999Y-87585452D01*
X98873999Y-87133331D01*
X98873629Y-87126510D01*
X98868105Y-87075648D01*
X98864479Y-87060396D01*
X98819324Y-86939946D01*
X98810786Y-86924351D01*
X98734285Y-86822276D01*
X98721724Y-86809715D01*
X98619649Y-86733214D01*
X98604054Y-86724676D01*
X98483606Y-86679522D01*
X98468351Y-86675895D01*
X98417486Y-86670369D01*
X98410672Y-86670000D01*
X96538115Y-86670000D01*
X96522876Y-86674475D01*
X96521671Y-86675865D01*
X96520000Y-86683548D01*
X96520000Y-87580885D01*
X96012000Y-87580885D01*
X96012000Y-86688116D01*
X96007525Y-86672877D01*
X96006135Y-86671672D01*
X95998452Y-86670001D01*
X94614000Y-86670001D01*
X94545879Y-86649999D01*
X94499386Y-86596343D01*
X94488000Y-86544001D01*
X94488000Y-85892095D01*
X125490401Y-85892095D01*
X125490738Y-85898614D01*
X125500657Y-85994206D01*
X125503549Y-86007600D01*
X125554988Y-86161784D01*
X125561161Y-86174962D01*
X125646463Y-86312807D01*
X125655499Y-86324208D01*
X125770229Y-86438739D01*
X125781640Y-86447751D01*
X125919643Y-86532816D01*
X125932824Y-86538963D01*
X126087110Y-86590138D01*
X126100486Y-86593005D01*
X126194838Y-86602672D01*
X126201254Y-86603000D01*
X126626285Y-86603000D01*
X126641524Y-86598525D01*
X126642729Y-86597135D01*
X126644400Y-86589452D01*
X126644400Y-86584884D01*
X127152400Y-86584884D01*
X127156875Y-86600123D01*
X127158265Y-86601328D01*
X127165948Y-86602999D01*
X127595495Y-86602999D01*
X127602014Y-86602662D01*
X127697606Y-86592743D01*
X127711000Y-86589851D01*
X127865184Y-86538412D01*
X127878362Y-86532239D01*
X128016207Y-86446937D01*
X128027608Y-86437901D01*
X128142139Y-86323171D01*
X128151151Y-86311760D01*
X128236216Y-86173757D01*
X128242363Y-86160576D01*
X128293538Y-86006290D01*
X128296405Y-85992914D01*
X128306072Y-85898562D01*
X128306400Y-85892146D01*
X128306400Y-85792115D01*
X128301925Y-85776876D01*
X128300535Y-85775671D01*
X128292852Y-85774000D01*
X127170515Y-85774000D01*
X127155276Y-85778475D01*
X127154071Y-85779865D01*
X127152400Y-85787548D01*
X127152400Y-86584884D01*
X126644400Y-86584884D01*
X126644400Y-85792115D01*
X126639925Y-85776876D01*
X126638535Y-85775671D01*
X126630852Y-85774000D01*
X125508516Y-85774000D01*
X125493277Y-85778475D01*
X125492072Y-85779865D01*
X125490401Y-85787548D01*
X125490401Y-85892095D01*
X94488000Y-85892095D01*
X94488000Y-85247885D01*
X125490400Y-85247885D01*
X125494875Y-85263124D01*
X125496265Y-85264329D01*
X125503948Y-85266000D01*
X126626285Y-85266000D01*
X126641524Y-85261525D01*
X126642729Y-85260135D01*
X126644400Y-85252452D01*
X126644400Y-85247885D01*
X127152400Y-85247885D01*
X127156875Y-85263124D01*
X127158265Y-85264329D01*
X127165948Y-85266000D01*
X128288284Y-85266000D01*
X128303523Y-85261525D01*
X128304728Y-85260135D01*
X128306399Y-85252452D01*
X128306399Y-85147905D01*
X128306062Y-85141386D01*
X128296143Y-85045794D01*
X128293251Y-85032400D01*
X128241812Y-84878216D01*
X128235639Y-84865038D01*
X128150337Y-84727193D01*
X128141301Y-84715792D01*
X128026571Y-84601261D01*
X128015160Y-84592249D01*
X127877157Y-84507184D01*
X127863976Y-84501037D01*
X127709690Y-84449862D01*
X127696314Y-84446995D01*
X127601962Y-84437328D01*
X127595545Y-84437000D01*
X127170515Y-84437000D01*
X127155276Y-84441475D01*
X127154071Y-84442865D01*
X127152400Y-84450548D01*
X127152400Y-85247885D01*
X126644400Y-85247885D01*
X126644400Y-84455116D01*
X126639925Y-84439877D01*
X126638535Y-84438672D01*
X126630852Y-84437001D01*
X126201305Y-84437001D01*
X126194786Y-84437338D01*
X126099194Y-84447257D01*
X126085800Y-84450149D01*
X125931616Y-84501588D01*
X125918438Y-84507761D01*
X125780593Y-84593063D01*
X125769192Y-84602099D01*
X125654661Y-84716829D01*
X125645649Y-84728240D01*
X125560584Y-84866243D01*
X125554437Y-84879424D01*
X125503262Y-85033710D01*
X125500395Y-85047086D01*
X125490728Y-85141438D01*
X125490400Y-85147855D01*
X125490400Y-85247885D01*
X94488000Y-85247885D01*
X94488000Y-82891495D01*
X108440001Y-82891495D01*
X108440338Y-82898014D01*
X108450257Y-82993606D01*
X108453149Y-83007000D01*
X108504588Y-83161184D01*
X108510761Y-83174362D01*
X108596063Y-83312207D01*
X108605099Y-83323608D01*
X108719829Y-83438139D01*
X108731240Y-83447151D01*
X108869243Y-83532216D01*
X108882424Y-83538363D01*
X109036710Y-83589538D01*
X109050086Y-83592405D01*
X109144438Y-83602072D01*
X109150854Y-83602400D01*
X109250885Y-83602400D01*
X109266124Y-83597925D01*
X109267329Y-83596535D01*
X109269000Y-83588852D01*
X109269000Y-83584284D01*
X109777000Y-83584284D01*
X109781475Y-83599523D01*
X109782865Y-83600728D01*
X109790548Y-83602399D01*
X109895095Y-83602399D01*
X109901614Y-83602062D01*
X109997206Y-83592143D01*
X110010600Y-83589251D01*
X110164784Y-83537812D01*
X110177962Y-83531639D01*
X110315807Y-83446337D01*
X110327208Y-83437301D01*
X110441739Y-83322571D01*
X110450751Y-83311160D01*
X110535816Y-83173157D01*
X110541963Y-83159976D01*
X110593138Y-83005690D01*
X110596005Y-82992314D01*
X110605672Y-82897962D01*
X110606000Y-82891546D01*
X110606000Y-82466515D01*
X110601525Y-82451276D01*
X110600135Y-82450071D01*
X110592452Y-82448400D01*
X109795115Y-82448400D01*
X109779876Y-82452875D01*
X109778671Y-82454265D01*
X109777000Y-82461948D01*
X109777000Y-83584284D01*
X109269000Y-83584284D01*
X109269000Y-82466515D01*
X109264525Y-82451276D01*
X109263135Y-82450071D01*
X109255452Y-82448400D01*
X108458116Y-82448400D01*
X108442877Y-82452875D01*
X108441672Y-82454265D01*
X108440001Y-82461948D01*
X108440001Y-82891495D01*
X94488000Y-82891495D01*
X94488000Y-74873000D01*
X94508002Y-74804879D01*
X94561658Y-74758386D01*
X94614000Y-74747000D01*
X95993885Y-74747000D01*
X96009124Y-74742525D01*
X96010329Y-74741135D01*
X96012000Y-74733452D01*
X96012000Y-74728884D01*
X96520000Y-74728884D01*
X96524475Y-74744123D01*
X96525865Y-74745328D01*
X96533548Y-74746999D01*
X98410669Y-74746999D01*
X98417490Y-74746629D01*
X98468352Y-74741105D01*
X98483604Y-74737479D01*
X98604054Y-74692324D01*
X98619649Y-74683786D01*
X98721724Y-74607285D01*
X98734285Y-74594724D01*
X98810786Y-74492649D01*
X98819324Y-74477054D01*
X98864478Y-74356606D01*
X98868105Y-74341351D01*
X98873631Y-74290486D01*
X98874000Y-74283672D01*
X98874000Y-73836115D01*
X98869525Y-73820876D01*
X98868135Y-73819671D01*
X98860452Y-73818000D01*
X96538115Y-73818000D01*
X96522876Y-73822475D01*
X96521671Y-73823865D01*
X96520000Y-73831548D01*
X96520000Y-74728884D01*
X96012000Y-74728884D01*
X96012000Y-73291885D01*
X96520000Y-73291885D01*
X96524475Y-73307124D01*
X96525865Y-73308329D01*
X96533548Y-73310000D01*
X98855884Y-73310000D01*
X98871123Y-73305525D01*
X98872328Y-73304135D01*
X98873999Y-73296452D01*
X98873999Y-72844331D01*
X98873629Y-72837510D01*
X98868105Y-72786648D01*
X98864479Y-72771396D01*
X98819324Y-72650946D01*
X98810786Y-72635351D01*
X98734285Y-72533276D01*
X98721724Y-72520715D01*
X98619649Y-72444214D01*
X98604054Y-72435676D01*
X98483606Y-72390522D01*
X98468351Y-72386895D01*
X98417486Y-72381369D01*
X98410672Y-72381000D01*
X96538115Y-72381000D01*
X96522876Y-72385475D01*
X96521671Y-72386865D01*
X96520000Y-72394548D01*
X96520000Y-73291885D01*
X96012000Y-73291885D01*
X96012000Y-72399116D01*
X96007525Y-72383877D01*
X96006135Y-72382672D01*
X95998452Y-72381001D01*
X94614000Y-72381001D01*
X94545879Y-72360999D01*
X94499386Y-72307343D01*
X94488000Y-72255001D01*
X94488000Y-72008500D01*
X94508002Y-71940379D01*
X94561658Y-71893886D01*
X94614000Y-71882500D01*
X97914134Y-71882500D01*
X97976316Y-71875745D01*
X98112705Y-71824615D01*
X98119888Y-71819232D01*
X98119891Y-71819230D01*
X98138066Y-71805608D01*
X98204572Y-71780761D01*
X98213630Y-71780435D01*
X100534033Y-71780435D01*
X100602154Y-71800437D01*
X100623128Y-71817340D01*
X109377094Y-80571306D01*
X109411120Y-80633618D01*
X109406055Y-80704433D01*
X109363508Y-80761269D01*
X109296988Y-80786080D01*
X109287999Y-80786401D01*
X109150905Y-80786401D01*
X109144386Y-80786738D01*
X109048794Y-80796657D01*
X109035400Y-80799549D01*
X108881216Y-80850988D01*
X108868038Y-80857161D01*
X108730193Y-80942463D01*
X108718792Y-80951499D01*
X108604261Y-81066229D01*
X108595249Y-81077640D01*
X108510184Y-81215643D01*
X108504037Y-81228824D01*
X108452862Y-81383110D01*
X108449995Y-81396486D01*
X108440328Y-81490838D01*
X108440000Y-81497255D01*
X108440000Y-81922285D01*
X108444475Y-81937524D01*
X108445865Y-81938729D01*
X108453548Y-81940400D01*
X110587884Y-81940400D01*
X110638526Y-81925530D01*
X110709522Y-81925530D01*
X110763119Y-81957331D01*
X111352595Y-82546807D01*
X111386621Y-82609119D01*
X111389500Y-82635902D01*
X111389500Y-82894800D01*
X111389837Y-82898046D01*
X111389837Y-82898050D01*
X111399752Y-82993606D01*
X111400474Y-83000566D01*
X111402655Y-83007102D01*
X111402655Y-83007104D01*
X111421826Y-83064565D01*
X111456450Y-83168346D01*
X111549522Y-83318748D01*
X111674697Y-83443705D01*
X111680927Y-83447545D01*
X111680928Y-83447546D01*
X111818288Y-83532216D01*
X111825262Y-83536515D01*
X111905005Y-83562964D01*
X111986611Y-83590032D01*
X111986613Y-83590032D01*
X111993139Y-83592197D01*
X111999975Y-83592897D01*
X111999978Y-83592898D01*
X112043031Y-83597309D01*
X112097600Y-83602900D01*
X112848400Y-83602900D01*
X112851646Y-83602563D01*
X112851650Y-83602563D01*
X112947308Y-83592638D01*
X112947312Y-83592637D01*
X112954166Y-83591926D01*
X112960702Y-83589745D01*
X112960704Y-83589745D01*
X113092806Y-83545672D01*
X113121946Y-83535950D01*
X113272348Y-83442878D01*
X113397305Y-83317703D01*
X113405742Y-83304016D01*
X113410856Y-83295720D01*
X113463628Y-83248226D01*
X113518116Y-83235835D01*
X114458418Y-83235835D01*
X114526539Y-83255837D01*
X114558380Y-83285130D01*
X114569013Y-83298987D01*
X114575563Y-83304013D01*
X114575566Y-83304016D01*
X114601507Y-83323921D01*
X114696125Y-83396524D01*
X114844150Y-83457838D01*
X114852338Y-83458916D01*
X114959021Y-83472961D01*
X114963115Y-83473500D01*
X115102983Y-83473500D01*
X115242884Y-83473499D01*
X115246969Y-83472961D01*
X115246973Y-83472961D01*
X115353663Y-83458916D01*
X115353665Y-83458916D01*
X115361850Y-83457838D01*
X115379781Y-83450411D01*
X115450370Y-83442821D01*
X115476218Y-83450410D01*
X115479661Y-83451837D01*
X115486520Y-83454678D01*
X115486523Y-83454679D01*
X115494150Y-83457838D01*
X115502338Y-83458916D01*
X115609021Y-83472961D01*
X115613115Y-83473500D01*
X115752983Y-83473500D01*
X115892884Y-83473499D01*
X115896969Y-83472961D01*
X115896973Y-83472961D01*
X116003663Y-83458916D01*
X116003665Y-83458916D01*
X116011850Y-83457838D01*
X116029781Y-83450411D01*
X116100370Y-83442821D01*
X116126218Y-83450410D01*
X116129661Y-83451837D01*
X116136520Y-83454678D01*
X116136523Y-83454679D01*
X116144150Y-83457838D01*
X116152338Y-83458916D01*
X116259021Y-83472961D01*
X116263115Y-83473500D01*
X116402983Y-83473500D01*
X116542884Y-83473499D01*
X116546969Y-83472961D01*
X116546973Y-83472961D01*
X116653663Y-83458916D01*
X116653665Y-83458916D01*
X116661850Y-83457838D01*
X116679781Y-83450411D01*
X116750370Y-83442821D01*
X116776218Y-83450410D01*
X116779661Y-83451837D01*
X116786520Y-83454678D01*
X116786523Y-83454679D01*
X116794150Y-83457838D01*
X116802338Y-83458916D01*
X116909021Y-83472961D01*
X116913115Y-83473500D01*
X117052983Y-83473500D01*
X117192884Y-83473499D01*
X117196969Y-83472961D01*
X117196973Y-83472961D01*
X117303663Y-83458916D01*
X117303665Y-83458916D01*
X117311850Y-83457838D01*
X117395303Y-83423271D01*
X117452248Y-83399684D01*
X117452250Y-83399683D01*
X117459876Y-83396524D01*
X117586987Y-83298987D01*
X117592010Y-83292441D01*
X117592014Y-83292437D01*
X117614041Y-83263731D01*
X117671379Y-83221864D01*
X117714003Y-83214435D01*
X119284921Y-83214435D01*
X119324588Y-83220842D01*
X119355611Y-83231132D01*
X119355613Y-83231132D01*
X119362139Y-83233297D01*
X119368975Y-83233997D01*
X119368978Y-83233998D01*
X119412031Y-83238409D01*
X119466600Y-83244000D01*
X120817400Y-83244000D01*
X120820646Y-83243663D01*
X120820650Y-83243663D01*
X120916308Y-83233738D01*
X120916312Y-83233737D01*
X120923166Y-83233026D01*
X120929708Y-83230843D01*
X120929710Y-83230843D01*
X120967094Y-83218371D01*
X120994673Y-83212496D01*
X121019098Y-83210101D01*
X121020359Y-83209984D01*
X121116001Y-83201616D01*
X121121285Y-83200081D01*
X121126761Y-83199544D01*
X121218747Y-83171772D01*
X121219834Y-83171450D01*
X121312127Y-83144636D01*
X121317014Y-83142103D01*
X121322280Y-83140513D01*
X121327714Y-83137624D01*
X121327723Y-83137620D01*
X121406989Y-83095474D01*
X121408155Y-83094862D01*
X121487978Y-83053485D01*
X121487986Y-83053480D01*
X121493451Y-83050647D01*
X121497754Y-83047212D01*
X121502610Y-83044630D01*
X121576999Y-82983960D01*
X121578026Y-82983132D01*
X121581680Y-82980215D01*
X121618452Y-82950860D01*
X121620946Y-82948366D01*
X121621975Y-82947446D01*
X121626324Y-82943731D01*
X121656106Y-82919442D01*
X121656109Y-82919439D01*
X121660881Y-82915547D01*
X121680737Y-82891546D01*
X121691180Y-82878922D01*
X121699169Y-82870143D01*
X126687907Y-77881405D01*
X126750219Y-77847379D01*
X126777002Y-77844500D01*
X126998400Y-77844500D01*
X127001646Y-77844163D01*
X127001650Y-77844163D01*
X127097308Y-77834238D01*
X127097312Y-77834237D01*
X127104166Y-77833526D01*
X127110702Y-77831345D01*
X127110704Y-77831345D01*
X127255610Y-77783000D01*
X127271946Y-77777550D01*
X127422348Y-77684478D01*
X127547305Y-77559303D01*
X127621725Y-77438572D01*
X127636275Y-77414968D01*
X127636276Y-77414966D01*
X127640115Y-77408738D01*
X127695797Y-77240861D01*
X127704277Y-77158095D01*
X128471001Y-77158095D01*
X128471338Y-77164614D01*
X128481257Y-77260206D01*
X128484149Y-77273600D01*
X128535588Y-77427784D01*
X128541761Y-77440962D01*
X128627063Y-77578807D01*
X128636099Y-77590208D01*
X128750829Y-77704739D01*
X128762240Y-77713751D01*
X128900243Y-77798816D01*
X128913424Y-77804963D01*
X129067710Y-77856138D01*
X129081086Y-77859005D01*
X129175438Y-77868672D01*
X129181854Y-77869000D01*
X129606885Y-77869000D01*
X129622124Y-77864525D01*
X129623329Y-77863135D01*
X129625000Y-77855452D01*
X129625000Y-77850884D01*
X130133000Y-77850884D01*
X130137475Y-77866123D01*
X130138865Y-77867328D01*
X130146548Y-77868999D01*
X130576095Y-77868999D01*
X130582614Y-77868662D01*
X130678206Y-77858743D01*
X130691600Y-77855851D01*
X130845784Y-77804412D01*
X130858962Y-77798239D01*
X130996807Y-77712937D01*
X131008208Y-77703901D01*
X131122739Y-77589171D01*
X131131751Y-77577760D01*
X131216816Y-77439757D01*
X131222963Y-77426576D01*
X131274138Y-77272290D01*
X131277005Y-77258914D01*
X131286672Y-77164562D01*
X131287000Y-77158146D01*
X131287000Y-77058115D01*
X131282525Y-77042876D01*
X131281135Y-77041671D01*
X131273452Y-77040000D01*
X130151115Y-77040000D01*
X130135876Y-77044475D01*
X130134671Y-77045865D01*
X130133000Y-77053548D01*
X130133000Y-77850884D01*
X129625000Y-77850884D01*
X129625000Y-77058115D01*
X129620525Y-77042876D01*
X129619135Y-77041671D01*
X129611452Y-77040000D01*
X128489116Y-77040000D01*
X128473877Y-77044475D01*
X128472672Y-77045865D01*
X128471001Y-77053548D01*
X128471001Y-77158095D01*
X127704277Y-77158095D01*
X127706500Y-77136400D01*
X127706500Y-76513885D01*
X128471000Y-76513885D01*
X128475475Y-76529124D01*
X128476865Y-76530329D01*
X128484548Y-76532000D01*
X129606885Y-76532000D01*
X129622124Y-76527525D01*
X129623329Y-76526135D01*
X129625000Y-76518452D01*
X129625000Y-76513885D01*
X130133000Y-76513885D01*
X130137475Y-76529124D01*
X130138865Y-76530329D01*
X130146548Y-76532000D01*
X131268884Y-76532000D01*
X131284123Y-76527525D01*
X131285328Y-76526135D01*
X131286999Y-76518452D01*
X131286999Y-76413905D01*
X131286662Y-76407386D01*
X131276743Y-76311794D01*
X131273851Y-76298400D01*
X131222412Y-76144216D01*
X131216239Y-76131038D01*
X131130937Y-75993193D01*
X131121901Y-75981792D01*
X131007171Y-75867261D01*
X130995760Y-75858249D01*
X130857757Y-75773184D01*
X130844576Y-75767037D01*
X130690290Y-75715862D01*
X130676914Y-75712995D01*
X130582562Y-75703328D01*
X130576145Y-75703000D01*
X130151115Y-75703000D01*
X130135876Y-75707475D01*
X130134671Y-75708865D01*
X130133000Y-75716548D01*
X130133000Y-76513885D01*
X129625000Y-76513885D01*
X129625000Y-75721116D01*
X129620525Y-75705877D01*
X129619135Y-75704672D01*
X129611452Y-75703001D01*
X129181905Y-75703001D01*
X129175386Y-75703338D01*
X129079794Y-75713257D01*
X129066400Y-75716149D01*
X128912216Y-75767588D01*
X128899038Y-75773761D01*
X128761193Y-75859063D01*
X128749792Y-75868099D01*
X128635261Y-75982829D01*
X128626249Y-75994240D01*
X128541184Y-76132243D01*
X128535037Y-76145424D01*
X128483862Y-76299710D01*
X128480995Y-76313086D01*
X128471328Y-76407438D01*
X128471000Y-76413855D01*
X128471000Y-76513885D01*
X127706500Y-76513885D01*
X127706500Y-76410600D01*
X127699782Y-76345850D01*
X127696238Y-76311692D01*
X127696237Y-76311688D01*
X127695526Y-76304834D01*
X127686570Y-76277988D01*
X127641868Y-76144002D01*
X127639550Y-76137054D01*
X127546478Y-75986652D01*
X127421303Y-75861695D01*
X127415072Y-75857854D01*
X127276968Y-75772725D01*
X127276966Y-75772724D01*
X127270738Y-75768885D01*
X127170151Y-75735522D01*
X127109389Y-75715368D01*
X127109387Y-75715368D01*
X127102861Y-75713203D01*
X127096025Y-75712503D01*
X127096022Y-75712502D01*
X127051592Y-75707950D01*
X126998400Y-75702500D01*
X125647600Y-75702500D01*
X125644354Y-75702837D01*
X125644350Y-75702837D01*
X125548692Y-75712762D01*
X125548688Y-75712763D01*
X125541834Y-75713474D01*
X125535298Y-75715655D01*
X125535296Y-75715655D01*
X125403194Y-75759728D01*
X125374054Y-75769450D01*
X125223652Y-75862522D01*
X125098695Y-75987697D01*
X125094855Y-75993927D01*
X125094854Y-75993928D01*
X125037977Y-76086200D01*
X125005885Y-76138262D01*
X124990058Y-76185978D01*
X124958740Y-76280402D01*
X124950203Y-76306139D01*
X124939500Y-76410600D01*
X124939500Y-76631998D01*
X124919498Y-76700119D01*
X124902595Y-76721093D01*
X121695653Y-79928035D01*
X121633341Y-79962061D01*
X121562526Y-79956996D01*
X121505690Y-79914449D01*
X121480879Y-79847929D01*
X121486965Y-79799273D01*
X121512632Y-79721889D01*
X121512632Y-79721887D01*
X121514797Y-79715361D01*
X121525500Y-79610900D01*
X121525500Y-78885100D01*
X121525163Y-78881850D01*
X121515238Y-78786192D01*
X121515237Y-78786188D01*
X121514526Y-78779334D01*
X121512345Y-78772797D01*
X121512344Y-78772792D01*
X121491885Y-78711468D01*
X121489301Y-78640519D01*
X121522314Y-78582498D01*
X122284907Y-77819905D01*
X122347219Y-77785879D01*
X122374002Y-77783000D01*
X122595400Y-77783000D01*
X122598646Y-77782663D01*
X122598650Y-77782663D01*
X122694308Y-77772738D01*
X122694312Y-77772737D01*
X122701166Y-77772026D01*
X122707702Y-77769845D01*
X122707704Y-77769845D01*
X122857892Y-77719738D01*
X122868946Y-77716050D01*
X123019348Y-77622978D01*
X123144305Y-77497803D01*
X123176975Y-77444803D01*
X123233275Y-77353468D01*
X123233276Y-77353466D01*
X123237115Y-77347238D01*
X123270233Y-77247389D01*
X123290632Y-77185889D01*
X123290632Y-77185887D01*
X123292797Y-77179361D01*
X123294314Y-77164562D01*
X123303172Y-77078098D01*
X123303500Y-77074900D01*
X123303500Y-76349100D01*
X123303163Y-76345850D01*
X123293238Y-76250192D01*
X123293237Y-76250188D01*
X123292526Y-76243334D01*
X123273391Y-76185978D01*
X123238868Y-76082502D01*
X123236550Y-76075554D01*
X123143478Y-75925152D01*
X123018303Y-75800195D01*
X123012072Y-75796354D01*
X122873968Y-75711225D01*
X122873966Y-75711224D01*
X122867738Y-75707385D01*
X122781228Y-75678691D01*
X122706389Y-75653868D01*
X122706387Y-75653868D01*
X122699861Y-75651703D01*
X122693025Y-75651003D01*
X122693022Y-75651002D01*
X122647186Y-75646306D01*
X122595400Y-75641000D01*
X121244600Y-75641000D01*
X121241354Y-75641337D01*
X121241350Y-75641337D01*
X121145692Y-75651262D01*
X121145688Y-75651263D01*
X121138834Y-75651974D01*
X121132298Y-75654155D01*
X121132296Y-75654155D01*
X121054515Y-75680105D01*
X120971054Y-75707950D01*
X120820652Y-75801022D01*
X120695695Y-75926197D01*
X120691855Y-75932427D01*
X120691854Y-75932428D01*
X120626428Y-76038569D01*
X120602885Y-76076762D01*
X120580583Y-76144002D01*
X120550958Y-76233319D01*
X120547203Y-76244639D01*
X120536500Y-76349100D01*
X120536500Y-76570499D01*
X120516498Y-76638620D01*
X120499595Y-76659594D01*
X119450598Y-77708591D01*
X119440454Y-77717693D01*
X119414626Y-77738459D01*
X119414622Y-77738463D01*
X119409821Y-77742323D01*
X119405862Y-77747041D01*
X119405861Y-77747042D01*
X119376540Y-77781985D01*
X119373361Y-77785629D01*
X119371437Y-77787751D01*
X119369255Y-77789933D01*
X119357362Y-77804412D01*
X119341106Y-77824202D01*
X119340264Y-77825217D01*
X119324084Y-77844500D01*
X119278540Y-77898777D01*
X119275888Y-77903601D01*
X119272397Y-77907851D01*
X119226996Y-77992524D01*
X119226451Y-77993526D01*
X119183122Y-78072340D01*
X119183118Y-78072350D01*
X119180149Y-78077750D01*
X119178485Y-78082997D01*
X119175885Y-78087845D01*
X119166848Y-78117405D01*
X119127804Y-78176700D01*
X119062900Y-78205474D01*
X119046354Y-78206565D01*
X117263882Y-78206565D01*
X117250274Y-78205828D01*
X117217332Y-78202249D01*
X117217328Y-78202249D01*
X117211207Y-78201584D01*
X117169519Y-78205231D01*
X117159632Y-78206096D01*
X117154803Y-78206425D01*
X117151942Y-78206565D01*
X117148857Y-78206565D01*
X117104650Y-78210899D01*
X117103389Y-78211016D01*
X117007747Y-78219384D01*
X117002463Y-78220919D01*
X116996987Y-78221456D01*
X116905001Y-78249228D01*
X116903914Y-78249550D01*
X116811621Y-78276364D01*
X116806734Y-78278897D01*
X116801468Y-78280487D01*
X116796034Y-78283376D01*
X116796025Y-78283380D01*
X116716759Y-78325526D01*
X116715593Y-78326138D01*
X116635770Y-78367515D01*
X116635762Y-78367520D01*
X116630297Y-78370353D01*
X116625994Y-78373788D01*
X116621138Y-78376370D01*
X116616366Y-78380262D01*
X116616363Y-78380264D01*
X116546749Y-78437040D01*
X116545722Y-78437868D01*
X116505296Y-78470140D01*
X116502802Y-78472634D01*
X116501773Y-78473554D01*
X116497424Y-78477269D01*
X116467642Y-78501558D01*
X116467639Y-78501561D01*
X116462867Y-78505453D01*
X116458939Y-78510201D01*
X116458938Y-78510202D01*
X116432568Y-78542078D01*
X116424579Y-78550857D01*
X116016980Y-78958456D01*
X116006837Y-78967557D01*
X115976211Y-78992181D01*
X115972250Y-78996902D01*
X115942930Y-79031843D01*
X115939751Y-79035487D01*
X115937827Y-79037609D01*
X115935645Y-79039791D01*
X115913788Y-79066401D01*
X115855095Y-79106342D01*
X115784123Y-79108212D01*
X115727330Y-79075518D01*
X115124340Y-78472528D01*
X115090314Y-78410216D01*
X115087435Y-78383433D01*
X115087435Y-77813935D01*
X115107437Y-77745814D01*
X115161093Y-77699321D01*
X115213435Y-77687935D01*
X116682235Y-77687935D01*
X116721901Y-77694342D01*
X116797139Y-77719297D01*
X116803975Y-77719997D01*
X116803978Y-77719998D01*
X116847031Y-77724409D01*
X116901600Y-77730000D01*
X118302400Y-77730000D01*
X118305646Y-77729663D01*
X118305650Y-77729663D01*
X118401308Y-77719738D01*
X118401312Y-77719737D01*
X118408166Y-77719026D01*
X118414702Y-77716845D01*
X118414704Y-77716845D01*
X118568998Y-77665368D01*
X118575946Y-77663050D01*
X118726348Y-77569978D01*
X118851305Y-77444803D01*
X118911445Y-77347238D01*
X118940275Y-77300468D01*
X118940276Y-77300466D01*
X118944115Y-77294238D01*
X118987109Y-77164614D01*
X118997632Y-77132889D01*
X118997632Y-77132887D01*
X118999797Y-77126361D01*
X119010500Y-77021900D01*
X119010500Y-76271100D01*
X119007886Y-76245906D01*
X119000238Y-76172192D01*
X119000237Y-76172188D01*
X118999526Y-76165334D01*
X118992884Y-76145424D01*
X118945868Y-76004502D01*
X118943550Y-75997554D01*
X118850478Y-75847152D01*
X118725303Y-75722195D01*
X118710803Y-75713257D01*
X118580968Y-75633225D01*
X118580966Y-75633224D01*
X118574738Y-75629385D01*
X118494995Y-75602936D01*
X118413389Y-75575868D01*
X118413387Y-75575868D01*
X118406861Y-75573703D01*
X118400025Y-75573003D01*
X118400022Y-75573002D01*
X118356969Y-75568591D01*
X118302400Y-75563000D01*
X116901600Y-75563000D01*
X116898354Y-75563337D01*
X116898350Y-75563337D01*
X116802692Y-75573262D01*
X116802688Y-75573263D01*
X116795834Y-75573974D01*
X116789298Y-75576155D01*
X116789296Y-75576155D01*
X116722054Y-75598589D01*
X116682178Y-75605065D01*
X114903079Y-75605065D01*
X114863412Y-75598658D01*
X114832389Y-75588368D01*
X114832387Y-75588368D01*
X114825861Y-75586203D01*
X114819025Y-75585503D01*
X114819022Y-75585502D01*
X114767672Y-75580241D01*
X114721400Y-75575500D01*
X113370600Y-75575500D01*
X113367354Y-75575837D01*
X113367350Y-75575837D01*
X113271692Y-75585762D01*
X113271688Y-75585763D01*
X113264834Y-75586474D01*
X113258298Y-75588655D01*
X113258296Y-75588655D01*
X113143120Y-75627081D01*
X113097054Y-75642450D01*
X112946652Y-75735522D01*
X112821695Y-75860697D01*
X112817855Y-75866927D01*
X112817854Y-75866928D01*
X112737800Y-75996800D01*
X112728885Y-76011262D01*
X112726581Y-76018209D01*
X112688828Y-76132032D01*
X112673203Y-76179139D01*
X112662500Y-76283600D01*
X112662500Y-77009400D01*
X112662837Y-77012646D01*
X112662837Y-77012650D01*
X112667555Y-77058115D01*
X112673474Y-77115166D01*
X112675655Y-77121702D01*
X112675655Y-77121704D01*
X112694891Y-77179361D01*
X112729450Y-77282946D01*
X112822522Y-77433348D01*
X112827704Y-77438521D01*
X112942516Y-77553134D01*
X112942521Y-77553138D01*
X112947697Y-77558305D01*
X112953927Y-77562146D01*
X112956657Y-77564301D01*
X112997720Y-77622218D01*
X113004565Y-77663183D01*
X113004565Y-78803365D01*
X113003828Y-78816972D01*
X112999584Y-78856041D01*
X113000121Y-78862176D01*
X113004096Y-78907616D01*
X113004425Y-78912445D01*
X113004565Y-78915306D01*
X113004565Y-78918391D01*
X113004866Y-78921456D01*
X113008896Y-78962563D01*
X113009016Y-78963859D01*
X113017384Y-79059501D01*
X113018919Y-79064785D01*
X113019456Y-79070261D01*
X113047228Y-79162247D01*
X113047550Y-79163334D01*
X113074364Y-79255627D01*
X113076897Y-79260514D01*
X113078487Y-79265780D01*
X113081376Y-79271214D01*
X113081380Y-79271223D01*
X113123526Y-79350489D01*
X113124138Y-79351655D01*
X113165515Y-79431478D01*
X113165520Y-79431486D01*
X113168353Y-79436951D01*
X113171788Y-79441254D01*
X113174370Y-79446110D01*
X113178262Y-79450882D01*
X113178264Y-79450885D01*
X113235040Y-79520499D01*
X113235868Y-79521526D01*
X113268140Y-79561952D01*
X113270634Y-79564446D01*
X113271554Y-79565475D01*
X113275269Y-79569824D01*
X113299558Y-79599606D01*
X113299561Y-79599609D01*
X113303453Y-79604381D01*
X113308201Y-79608309D01*
X113308202Y-79608310D01*
X113340078Y-79634680D01*
X113348857Y-79642669D01*
X114025189Y-80319000D01*
X114633313Y-80927124D01*
X114667338Y-80989436D01*
X114662274Y-81060251D01*
X114620920Y-81116183D01*
X114606915Y-81126929D01*
X114540694Y-81152528D01*
X114530213Y-81152965D01*
X113517988Y-81152965D01*
X113449867Y-81132963D01*
X113410843Y-81093266D01*
X113410197Y-81092222D01*
X113396478Y-81070052D01*
X113381830Y-81055429D01*
X113313888Y-80987606D01*
X113271303Y-80945095D01*
X113265072Y-80941254D01*
X113126968Y-80856125D01*
X113126966Y-80856124D01*
X113120738Y-80852285D01*
X113040995Y-80825836D01*
X112959389Y-80798768D01*
X112959387Y-80798768D01*
X112952861Y-80796603D01*
X112946025Y-80795903D01*
X112946022Y-80795902D01*
X112902969Y-80791491D01*
X112848400Y-80785900D01*
X112589502Y-80785900D01*
X112521381Y-80765898D01*
X112500407Y-80748995D01*
X105832507Y-74081095D01*
X112663001Y-74081095D01*
X112663338Y-74087614D01*
X112673257Y-74183206D01*
X112676149Y-74196600D01*
X112727588Y-74350784D01*
X112733761Y-74363962D01*
X112819063Y-74501807D01*
X112828099Y-74513208D01*
X112942829Y-74627739D01*
X112954240Y-74636751D01*
X113092243Y-74721816D01*
X113105424Y-74727963D01*
X113259710Y-74779138D01*
X113273086Y-74782005D01*
X113367438Y-74791672D01*
X113373854Y-74792000D01*
X113773885Y-74792000D01*
X113789124Y-74787525D01*
X113790329Y-74786135D01*
X113792000Y-74778452D01*
X113792000Y-74773884D01*
X114300000Y-74773884D01*
X114304475Y-74789123D01*
X114305865Y-74790328D01*
X114313548Y-74791999D01*
X114718095Y-74791999D01*
X114724614Y-74791662D01*
X114820206Y-74781743D01*
X114833600Y-74778851D01*
X114987784Y-74727412D01*
X115000962Y-74721239D01*
X115138807Y-74635937D01*
X115150208Y-74626901D01*
X115264739Y-74512171D01*
X115273751Y-74500760D01*
X115358816Y-74362757D01*
X115364963Y-74349576D01*
X115416138Y-74195290D01*
X115419005Y-74181914D01*
X115428672Y-74087562D01*
X115429000Y-74081146D01*
X115429000Y-74071900D01*
X116193500Y-74071900D01*
X116193837Y-74075146D01*
X116193837Y-74075150D01*
X116201927Y-74153114D01*
X116204474Y-74177666D01*
X116206655Y-74184202D01*
X116206655Y-74184204D01*
X116242114Y-74290486D01*
X116260450Y-74345446D01*
X116353522Y-74495848D01*
X116478697Y-74620805D01*
X116484927Y-74624645D01*
X116484928Y-74624646D01*
X116622090Y-74709194D01*
X116629262Y-74713615D01*
X116670859Y-74727412D01*
X116790611Y-74767132D01*
X116790613Y-74767132D01*
X116797139Y-74769297D01*
X116803975Y-74769997D01*
X116803978Y-74769998D01*
X116841908Y-74773884D01*
X116901600Y-74780000D01*
X118302400Y-74780000D01*
X118305646Y-74779663D01*
X118305650Y-74779663D01*
X118401308Y-74769738D01*
X118401312Y-74769737D01*
X118408166Y-74769026D01*
X118414702Y-74766845D01*
X118414704Y-74766845D01*
X118551401Y-74721239D01*
X118575946Y-74713050D01*
X118726348Y-74619978D01*
X118851305Y-74494803D01*
X118862408Y-74476791D01*
X118940275Y-74350468D01*
X118940276Y-74350466D01*
X118944115Y-74344238D01*
X118987097Y-74214650D01*
X118997632Y-74182889D01*
X118997632Y-74182887D01*
X118999797Y-74176361D01*
X119002847Y-74146595D01*
X120537001Y-74146595D01*
X120537338Y-74153114D01*
X120547257Y-74248706D01*
X120550149Y-74262100D01*
X120601588Y-74416284D01*
X120607761Y-74429462D01*
X120693063Y-74567307D01*
X120702099Y-74578708D01*
X120816829Y-74693239D01*
X120828240Y-74702251D01*
X120966243Y-74787316D01*
X120979424Y-74793463D01*
X121133710Y-74844638D01*
X121147086Y-74847505D01*
X121241438Y-74857172D01*
X121247854Y-74857500D01*
X121647885Y-74857500D01*
X121663124Y-74853025D01*
X121664329Y-74851635D01*
X121666000Y-74843952D01*
X121666000Y-74839384D01*
X122174000Y-74839384D01*
X122178475Y-74854623D01*
X122179865Y-74855828D01*
X122187548Y-74857499D01*
X122592095Y-74857499D01*
X122598614Y-74857162D01*
X122694206Y-74847243D01*
X122707600Y-74844351D01*
X122861784Y-74792912D01*
X122874962Y-74786739D01*
X123012807Y-74701437D01*
X123024208Y-74692401D01*
X123138739Y-74577671D01*
X123147751Y-74566260D01*
X123232816Y-74428257D01*
X123238963Y-74415076D01*
X123290138Y-74260790D01*
X123293005Y-74247414D01*
X123302672Y-74153062D01*
X123303000Y-74146646D01*
X123303000Y-74059115D01*
X123298525Y-74043876D01*
X123297135Y-74042671D01*
X123289452Y-74041000D01*
X122192115Y-74041000D01*
X122176876Y-74045475D01*
X122175671Y-74046865D01*
X122174000Y-74054548D01*
X122174000Y-74839384D01*
X121666000Y-74839384D01*
X121666000Y-74059115D01*
X121661525Y-74043876D01*
X121660135Y-74042671D01*
X121652452Y-74041000D01*
X120555116Y-74041000D01*
X120539877Y-74045475D01*
X120538672Y-74046865D01*
X120537001Y-74054548D01*
X120537001Y-74146595D01*
X119002847Y-74146595D01*
X119010500Y-74071900D01*
X119010500Y-73514885D01*
X120537000Y-73514885D01*
X120541475Y-73530124D01*
X120542865Y-73531329D01*
X120550548Y-73533000D01*
X121647885Y-73533000D01*
X121663124Y-73528525D01*
X121664329Y-73527135D01*
X121666000Y-73519452D01*
X121666000Y-73514885D01*
X122174000Y-73514885D01*
X122178475Y-73530124D01*
X122179865Y-73531329D01*
X122187548Y-73533000D01*
X123284884Y-73533000D01*
X123300123Y-73528525D01*
X123301328Y-73527135D01*
X123302999Y-73519452D01*
X123302999Y-73427405D01*
X123302662Y-73420886D01*
X123292743Y-73325294D01*
X123289851Y-73311900D01*
X123238412Y-73157716D01*
X123232239Y-73144538D01*
X123146937Y-73006693D01*
X123137901Y-72995292D01*
X123023171Y-72880761D01*
X123011760Y-72871749D01*
X122873757Y-72786684D01*
X122860576Y-72780537D01*
X122706290Y-72729362D01*
X122692914Y-72726495D01*
X122598562Y-72716828D01*
X122592145Y-72716500D01*
X122192115Y-72716500D01*
X122176876Y-72720975D01*
X122175671Y-72722365D01*
X122174000Y-72730048D01*
X122174000Y-73514885D01*
X121666000Y-73514885D01*
X121666000Y-72734616D01*
X121661525Y-72719377D01*
X121660135Y-72718172D01*
X121652452Y-72716501D01*
X121247905Y-72716501D01*
X121241386Y-72716838D01*
X121145794Y-72726757D01*
X121132400Y-72729649D01*
X120978216Y-72781088D01*
X120965038Y-72787261D01*
X120827193Y-72872563D01*
X120815792Y-72881599D01*
X120701261Y-72996329D01*
X120692249Y-73007740D01*
X120607184Y-73145743D01*
X120601037Y-73158924D01*
X120549862Y-73313210D01*
X120546995Y-73326586D01*
X120537328Y-73420938D01*
X120537000Y-73427355D01*
X120537000Y-73514885D01*
X119010500Y-73514885D01*
X119010500Y-73321100D01*
X119009896Y-73315275D01*
X119000238Y-73222192D01*
X119000237Y-73222188D01*
X118999526Y-73215334D01*
X118993259Y-73196548D01*
X118945868Y-73054502D01*
X118943550Y-73047554D01*
X118850478Y-72897152D01*
X118725303Y-72772195D01*
X118719071Y-72768353D01*
X118719069Y-72768352D01*
X118703320Y-72758644D01*
X118655826Y-72705872D01*
X118643435Y-72651384D01*
X118643435Y-71576609D01*
X118628544Y-71424739D01*
X118569513Y-71229220D01*
X118501603Y-71101500D01*
X118476524Y-71054332D01*
X118476522Y-71054329D01*
X118473630Y-71048890D01*
X118469740Y-71044120D01*
X118469737Y-71044116D01*
X118348436Y-70895387D01*
X118348434Y-70895385D01*
X118344547Y-70890619D01*
X118187181Y-70760434D01*
X118007525Y-70663294D01*
X117812423Y-70602900D01*
X117806298Y-70602256D01*
X117806297Y-70602256D01*
X117615435Y-70582196D01*
X117615433Y-70582196D01*
X117609306Y-70581552D01*
X117523339Y-70589375D01*
X117412049Y-70599503D01*
X117412046Y-70599504D01*
X117405910Y-70600062D01*
X117209984Y-70657726D01*
X117028989Y-70752348D01*
X116869821Y-70880323D01*
X116738540Y-71036777D01*
X116735572Y-71042175D01*
X116735569Y-71042180D01*
X116657335Y-71184488D01*
X116640149Y-71215750D01*
X116638288Y-71221617D01*
X116638287Y-71221619D01*
X116599186Y-71344882D01*
X116578394Y-71410426D01*
X116560565Y-71569375D01*
X116560565Y-72651512D01*
X116540563Y-72719633D01*
X116500867Y-72758656D01*
X116477652Y-72773022D01*
X116352695Y-72898197D01*
X116348855Y-72904427D01*
X116348854Y-72904428D01*
X116264943Y-73040557D01*
X116259885Y-73048762D01*
X116245071Y-73093424D01*
X116214407Y-73185876D01*
X116204203Y-73216639D01*
X116193500Y-73321100D01*
X116193500Y-74071900D01*
X115429000Y-74071900D01*
X115429000Y-73993615D01*
X115424525Y-73978376D01*
X115423135Y-73977171D01*
X115415452Y-73975500D01*
X114318115Y-73975500D01*
X114302876Y-73979975D01*
X114301671Y-73981365D01*
X114300000Y-73989048D01*
X114300000Y-74773884D01*
X113792000Y-74773884D01*
X113792000Y-73993615D01*
X113787525Y-73978376D01*
X113786135Y-73977171D01*
X113778452Y-73975500D01*
X112681116Y-73975500D01*
X112665877Y-73979975D01*
X112664672Y-73981365D01*
X112663001Y-73989048D01*
X112663001Y-74081095D01*
X105832507Y-74081095D01*
X105200797Y-73449385D01*
X112663000Y-73449385D01*
X112667475Y-73464624D01*
X112668865Y-73465829D01*
X112676548Y-73467500D01*
X113773885Y-73467500D01*
X113789124Y-73463025D01*
X113790329Y-73461635D01*
X113792000Y-73453952D01*
X113792000Y-73449385D01*
X114300000Y-73449385D01*
X114304475Y-73464624D01*
X114305865Y-73465829D01*
X114313548Y-73467500D01*
X115410884Y-73467500D01*
X115426123Y-73463025D01*
X115427328Y-73461635D01*
X115428999Y-73453952D01*
X115428999Y-73361905D01*
X115428662Y-73355386D01*
X115418743Y-73259794D01*
X115415851Y-73246400D01*
X115364412Y-73092216D01*
X115358239Y-73079038D01*
X115272937Y-72941193D01*
X115263901Y-72929792D01*
X115149171Y-72815261D01*
X115137760Y-72806249D01*
X114999757Y-72721184D01*
X114986576Y-72715037D01*
X114832290Y-72663862D01*
X114818914Y-72660995D01*
X114724562Y-72651328D01*
X114718145Y-72651000D01*
X114318115Y-72651000D01*
X114302876Y-72655475D01*
X114301671Y-72656865D01*
X114300000Y-72664548D01*
X114300000Y-73449385D01*
X113792000Y-73449385D01*
X113792000Y-72669116D01*
X113787525Y-72653877D01*
X113786135Y-72652672D01*
X113778452Y-72651001D01*
X113373905Y-72651001D01*
X113367386Y-72651338D01*
X113271794Y-72661257D01*
X113258400Y-72664149D01*
X113104216Y-72715588D01*
X113091038Y-72721761D01*
X112953193Y-72807063D01*
X112941792Y-72816099D01*
X112827261Y-72930829D01*
X112818249Y-72942240D01*
X112733184Y-73080243D01*
X112727037Y-73093424D01*
X112675862Y-73247710D01*
X112672995Y-73261086D01*
X112663328Y-73355438D01*
X112663000Y-73361855D01*
X112663000Y-73449385D01*
X105200797Y-73449385D01*
X101799002Y-70047590D01*
X101789901Y-70037447D01*
X101769140Y-70011626D01*
X101765277Y-70006821D01*
X101743497Y-69988545D01*
X101725615Y-69973540D01*
X101721971Y-69970361D01*
X101719849Y-69968437D01*
X101717667Y-69966255D01*
X101683398Y-69938106D01*
X101682383Y-69937264D01*
X101613546Y-69879503D01*
X101608823Y-69875540D01*
X101603999Y-69872888D01*
X101599749Y-69869397D01*
X101515076Y-69823996D01*
X101514074Y-69823451D01*
X101435260Y-69780122D01*
X101435250Y-69780118D01*
X101429850Y-69777149D01*
X101424603Y-69775485D01*
X101419755Y-69772885D01*
X101413857Y-69771082D01*
X101413855Y-69771081D01*
X101366810Y-69756698D01*
X101327980Y-69744827D01*
X101326776Y-69744452D01*
X101274601Y-69727901D01*
X101241045Y-69717256D01*
X101241041Y-69717255D01*
X101235174Y-69715394D01*
X101229704Y-69714780D01*
X101224443Y-69713172D01*
X101128990Y-69703477D01*
X101127715Y-69703341D01*
X101076225Y-69697565D01*
X101072701Y-69697565D01*
X101071307Y-69697487D01*
X101065607Y-69697038D01*
X101027382Y-69693155D01*
X101027376Y-69693155D01*
X101021253Y-69692533D01*
X100973933Y-69697006D01*
X100962076Y-69697565D01*
X98213630Y-69697565D01*
X98145509Y-69677563D01*
X98138066Y-69672392D01*
X98119891Y-69658770D01*
X98119888Y-69658768D01*
X98112705Y-69653385D01*
X97976316Y-69602255D01*
X97914134Y-69595500D01*
X94614000Y-69595500D01*
X94545879Y-69575498D01*
X94499386Y-69521842D01*
X94488000Y-69469500D01*
X94488000Y-69223000D01*
X94508002Y-69154879D01*
X94561658Y-69108386D01*
X94614000Y-69097000D01*
X95993885Y-69097000D01*
X96009124Y-69092525D01*
X96010329Y-69091135D01*
X96012000Y-69083452D01*
X96012000Y-69078884D01*
X96520000Y-69078884D01*
X96524475Y-69094123D01*
X96525865Y-69095328D01*
X96533548Y-69096999D01*
X98410669Y-69096999D01*
X98417490Y-69096629D01*
X98468352Y-69091105D01*
X98483604Y-69087479D01*
X98604054Y-69042324D01*
X98619649Y-69033786D01*
X98721724Y-68957285D01*
X98734285Y-68944724D01*
X98810786Y-68842649D01*
X98819324Y-68827054D01*
X98864478Y-68706606D01*
X98868105Y-68691351D01*
X98873631Y-68640486D01*
X98874000Y-68633672D01*
X98874000Y-68186115D01*
X98869525Y-68170876D01*
X98868135Y-68169671D01*
X98860452Y-68168000D01*
X96538115Y-68168000D01*
X96522876Y-68172475D01*
X96521671Y-68173865D01*
X96520000Y-68181548D01*
X96520000Y-69078884D01*
X96012000Y-69078884D01*
X96012000Y-67641885D01*
X96520000Y-67641885D01*
X96524475Y-67657124D01*
X96525865Y-67658329D01*
X96533548Y-67660000D01*
X98855884Y-67660000D01*
X98871123Y-67655525D01*
X98872328Y-67654135D01*
X98873999Y-67646452D01*
X98873999Y-67194331D01*
X98873629Y-67187510D01*
X98868105Y-67136648D01*
X98864479Y-67121396D01*
X98819324Y-67000946D01*
X98810786Y-66985351D01*
X98734285Y-66883276D01*
X98721724Y-66870715D01*
X98619649Y-66794214D01*
X98604054Y-66785676D01*
X98483606Y-66740522D01*
X98468351Y-66736895D01*
X98417486Y-66731369D01*
X98410672Y-66731000D01*
X96538115Y-66731000D01*
X96522876Y-66735475D01*
X96521671Y-66736865D01*
X96520000Y-66744548D01*
X96520000Y-67641885D01*
X96012000Y-67641885D01*
X96012000Y-66749116D01*
X96007525Y-66733877D01*
X96006135Y-66732672D01*
X95998452Y-66731001D01*
X94614000Y-66731001D01*
X94545879Y-66710999D01*
X94499386Y-66657343D01*
X94488000Y-66605001D01*
X94488000Y-60564669D01*
X98989001Y-60564669D01*
X98989371Y-60571490D01*
X98994895Y-60622352D01*
X98998521Y-60637604D01*
X99043676Y-60758054D01*
X99052214Y-60773649D01*
X99128715Y-60875724D01*
X99141276Y-60888285D01*
X99243351Y-60964786D01*
X99258946Y-60973324D01*
X99379394Y-61018478D01*
X99394649Y-61022105D01*
X99445514Y-61027631D01*
X99452328Y-61028000D01*
X99899885Y-61028000D01*
X99915124Y-61023525D01*
X99916329Y-61022135D01*
X99918000Y-61014452D01*
X99918000Y-61009884D01*
X100426000Y-61009884D01*
X100430475Y-61025123D01*
X100431865Y-61026328D01*
X100439548Y-61027999D01*
X100891669Y-61027999D01*
X100898490Y-61027629D01*
X100949352Y-61022105D01*
X100964604Y-61018479D01*
X101085054Y-60973324D01*
X101100649Y-60964786D01*
X101202724Y-60888285D01*
X101215285Y-60875724D01*
X101291786Y-60773649D01*
X101300324Y-60758054D01*
X101345478Y-60637606D01*
X101349105Y-60622351D01*
X101354631Y-60571486D01*
X101355000Y-60564672D01*
X101355000Y-58692115D01*
X101350525Y-58676876D01*
X101349135Y-58675671D01*
X101341452Y-58674000D01*
X100444115Y-58674000D01*
X100428876Y-58678475D01*
X100427671Y-58679865D01*
X100426000Y-58687548D01*
X100426000Y-61009884D01*
X99918000Y-61009884D01*
X99918000Y-58692115D01*
X99913525Y-58676876D01*
X99912135Y-58675671D01*
X99904452Y-58674000D01*
X99007116Y-58674000D01*
X98991877Y-58678475D01*
X98990672Y-58679865D01*
X98989001Y-58687548D01*
X98989001Y-60564669D01*
X94488000Y-60564669D01*
X94488000Y-56768000D01*
X94508002Y-56699879D01*
X94561658Y-56653386D01*
X94614000Y-56642000D01*
X98863000Y-56642000D01*
X98931121Y-56662002D01*
G37*
%TD.AperFunction*%
%TD*%
M02*
