M48
; DRILL file {KiCad (6.0.1)} date Tue Apr  4 11:04:23 2023
; FORMAT={-:-/ absolute / inch / decimal}
; #@! TF.CreationDate,2023-04-04T11:04:23-04:00
; #@! TF.GenerationSoftware,Kicad,Pcbnew,(6.0.1)
; #@! TF.FileFunction,Plated,1,2,PTH
FMAT,2
INCH
; #@! TA.AperFunction,Plated,PTH,ViaDrill
T1C0.0157
; #@! TA.AperFunction,Plated,PTH,ComponentDrill
T2C0.0200
%
G90
G05
T1
X3.86Y-2.55
X3.87Y-3.26
X4.03Y-3.07
X4.074Y-3.794
X4.076Y-3.348
X4.207Y-2.49
X4.22Y-2.73
X4.264Y-3.746
X4.326Y-3.412
X4.45Y-2.26
X4.458Y-3.746
X4.486Y-2.666
X4.63Y-2.82
X4.672Y-3.746
X4.72Y-2.88
X4.87Y-2.534
X4.988Y-3.202
X4.99Y-2.334
X5.048Y-3.616
X5.08Y-2.81
X5.124Y-3.314
X5.148Y-2.524
X5.166Y-3.202
X5.36Y-2.71
X5.366Y-3.61
X5.42Y-3.04
X5.5Y-2.49
X5.5709Y-2.8419
X5.632Y-2.992
X5.635Y-3.27
X5.65Y-3.82
X5.8Y-2.532
X5.86Y-3.26
X5.865Y-3.555
X5.878Y-3.794
X5.92Y-2.7
X5.93Y-2.4
X6.0Y-2.83
X6.018Y-3.16
X6.06Y-2.96
X6.07Y-2.84
X6.188Y-2.528
X6.28Y-2.69
X6.43Y-3.13
X6.442Y-3.524
X6.47Y-2.84
X6.475Y-3.215
X6.508Y-3.33
X6.63Y-2.31
X6.674Y-3.792
X6.73Y-2.82
X6.76Y-3.44
X6.83Y-2.49
X6.88Y-3.25
X6.92Y-2.62
X7.1Y-3.34
X7.14Y-3.06
T2
X5.945Y-3.455
X6.11Y-3.455
X6.11Y-3.505
X6.11Y-3.555
X6.11Y-3.605
X6.11Y-3.655
X6.275Y-3.555
X6.275Y-3.655
X6.278Y-2.838
X6.278Y-2.888
X6.278Y-2.938
X6.278Y-2.988
X6.278Y-3.038
T0
M30
